<svg xmlns="http://www.w3.org/2000/svg" width="567" height="933" fill="none" xmlns:v="https://vecta.io/nano"><path d="M192.761 138.804l4 8L252 257c7.976 14.344 11.129 25.07 17.5 47.5l-8.739 20.304-16.5 38.5c-6.884 12.689-11.607 19.123-21 30-13 16.5-23.492 37.674-23 39 5.49 14.781 5.043 22.653 0 36.196-42.768-35.713-20.761-91.696-8-129.196.209-15.096-4.36-29.154-20-58-10.924 1.149-16.282-1.998-20.5-17.5-18.834-6.579-29.983-6.993-50-7 2.157.359 1.968-.258 22.5 11 13.424 6.433 29.806 25.977 27.5 56.5-2.741 19.226-25.149 43.486-55.5 59.5 3.905.586 10.5-.5 10 1.5-19.127 13.823-31.86 20.414-54 32.5-43.5 33.5-53.343 61.166-49.5 111.5 2.693 21.262 7.48 36.88 14.5 51 6 12.786 15.66 24.679 19.5 41 .624-13.829 1.447-17.273 3.5-18 6.057 24.938 18.832 35.56 50 51.5 33.776 18.994 49.098 29.508 70.5 53.5-1.863-12.226-3.361-18.577-7.5-31 57 79 63 157 8 253 68.866-59.73 108.079-88.692 171-125 5.274-6.649 5.296-10.241 2-16.5-41.962-33.397-58.516-50.376-82-81-20.527-32.938-32.218-52.319-51.5-79 31.131 9.763 47.137 26.512 74 69.5l15.5-11c-7.888-16.082-11.423-23.808-15.5-34.304l41.739-10.5c8.222 17.627 12.091 29.64 18.5 52.5 17.95-1.915 25.822-.812 39 2l-7.239-32.196h17.5c20.261 18.971 32.62 27.885 56 41.5 11.671-29.094 34.5-47.5 68-61l9.25-6.5c-4.586-1.856-40.145-26.427 9.25-6.5l18.5-20.5c-46-34.5-15-63.5 12-23 8.315-20.381 9.156-35.007 6-65l-4-11-16-48.5-19-4.5-8.5-33c7.751.109 12.711 3.654 22 12.5-19.361-75.501-52.313-89.253-109.5-79 .286 2.99 1.839 4.752 6.5 8 7.833.5 25.1 4.8 31.5 18 3.833 7.167 10.9 25.3 8.5 40.5-1 4.334-4.1 13.9-8.5 17.5-.986-2.182-1.708 23.213-36 20s-53.633-59.385-18.5-87.5l4.5-16.5c-1.761-9.804-15.261-56.804-23-63-2.135-5.158-4.515-8.21 1.239-12.304 6.609 0-57.152-81.529-90.239-121.196-27.2-36.8-18.667-74.333-11-88.5 18.8-48.8 58.833-61.333 76.5-61.5-14.8-11.6-36.5-12.5-45.5-11.5-34.8 2.8-62.167 20.5-71.5 29-33.2 22.4-53.833 81-60 107.5z" stroke="#fff" stroke-width="4" stroke-linejoin="round"/></svg>