<svg xmlns="http://www.w3.org/2000/svg" width="1903" height="1051" fill="none" xmlns:v="https://vecta.io/nano"><mask id="A" fill="#fff"><path fill-rule="evenodd" d="M1901.67 195.108c-1.4-11.57-2.95-22.088-4.33-29.306l-2.13-11.139c-3.8-19.753-14.37-52.765-24.25-75.66-19.22-44.587-45.96-87.454-76.89-123.264-10.7-12.384-39.36-39.725-53.16-50.701-62.03-49.351-138.14-88.188-227.52-116.091-17.4-5.426-24.8-7.589-36.1-10.508l-11.74-3.128c-3.42-.997-29.42-6.752-33.33-7.373-1.73-.28-3.14-.323-3.13-.104 0 .382 1.52 3.782 5.41 12.105l12.38 26.683 9.12 19.701 9.12 19.708 9.21 19.905 11.96 25.732 7.08 15.263 15.74 5.725 21.19 7.612c3 1.035 10 3.59 15.55 5.664l10.08 3.774.08 4.543c.38 21.775.11 94.055-.36 94.559-.32.357-4.33.356-8.9 0l-20.84-1.345-21.41-1.382c-8.1-.632-9.11-.55-11.68.933-1.54.891-6.16 3.467-10.25 5.723l-11.58 6.435-9.72 5.437-10.75 5.988-31.64 17.633-36.4 20.272-38.05 21.169c-11.32 6.248-10.85 5.136-6.06 14.422l8.71 17.176c2.54 5.077 4.94 9.222 5.35 9.215s5.08-3.229 10.39-7.16c35.3-26.173 77.95-45.541 121.28-55.076 14.31-3.153 38.87-6.097 52.78-6.34 13.03-.228 35.59 1.604 50.18 4.077 32.97 5.587 70.55 19.807 111.98 42.381 68.68 37.424 116.7 87.313 142.14 147.661 10.03 23.814 16.38 47.777 19.85 74.964 1.51 11.838 1.43 11.718 4.82 7.763 16.53-19.315 30.05-54.574 34.7-90.489 2.75-21.215 3.27-55.396 1.12-73.159zM1770.94 57.941c-.35.009-11.97-3.468-25.82-7.717l-31.49-9.468-9.77-2.79c-14.2-4.334-44.04-10.367-50.68-10.251l-4.08.071-.15-8.894c-.36-20.333.06-62.269.62-63.2.63-1.065 1.25-.964 14.6 2.46 49.07 12.561 88.6 47.702 105.96 94.172 1.49 3.999 1.72 5.595.81 5.618zM1527.8-13.994c-.21-.209-.95-9.302-1.65-20.213l-1.81-22.925c-.6-3.501-.44-3.44-15.05-6.169l-11.74-2.267-22.18-4.441-10.45-2.073-9.53-18.164-10.11-18.707c-.32-.305-3.86 1.35-7.87 3.669l-12.25 7.047-18.61 10.667-18.19 10.433-34.73 19.872-34.31 19.635-45.49 26.029-45.48 26.039-33.9 19.419-32.66 18.681c-16.38 9.163-35.55 20.44-35.55 20.899.01.317 9.32 13.573 20.69 29.46l50.78 70.98 37.3 51.764c.52.582 96.52-53.779 98.76-55.915 1.02-.973 3.42 2.044-26.24-33.154l-25.39-30.988c-.01-.486 11.63-6.942 25.85-14.355l40.76-21.372 46.35-24.383 61.55-32.32 30.1-15.824 19.32.355 20.57.357c.98 0 1.29-1.302 1.4-5.838.07-3.202-.03-5.999-.24-6.198zm-95.92-151.814l-8.14-17.236-3.1-6.564-4.39-9.225-5.64-12.073c-1.74-3.833-3.6-7.298-4.13-7.711-.63-.485-3.15.507-7.23 2.855l-14.48 8.133-32.61 18.18-29.36 16.426-10.34 5.782-30.19 16.872-29.98 16.76-10.35 5.779-29.97 16.76-29.99 16.757-10.33 5.782-29.57 16.54-32.67 18.175-9.1 5.126c-.46.329-4.93 2.821-9.93 5.535-5.01 2.718-9.54 5.359-10.08 5.879-.75.712 1.38 4.635 8.97 16.489l19.83 31.105 10.53 16.259c.51.552 44.63-23.232 83.1-44.8l16.96-9.385 17.78-9.818 17.79-9.832 17.78-9.832 18.61-10.262 17.79-9.832 17.78-9.825 17.79-9.832 17.78-9.832 18.61-10.261 36.81-20.341c17.17-9.419 20.25-11.31 20.44-12.525.1-.677-2.95-7.88-6.77-16.008zm-257.8 354.579l-44.69-62.359c-.61-.124-5.92 2.615-11.8 6.088l-14.81 8.652-42.85 24.977c-32.65 19.083-38.9 22.45-39.84 21.511-2.74-2.735-33.1-49.252-32.762-50.179.213-.571 25.502-17.212 56.212-36.977l55.81-36.629c-.01-.392-2.78-4.685-6.16-9.549l-29.64-43.193-24.98-35.827c-1.45-1.43-1.59-1.411-3.9.574-11.28 9.708-39.486 24.972-64.036 34.656-27.899 11.001-56.641 19.579-97.626 29.12l-19.13 4.511c-1.832.461-9.691 2.269-17.47 4.029-70.182 15.838-109.064 28.26-142.577 45.538-19.422 10.02-36.78 21.998-48.779 33.67l-5.485 5.333 9.088 15.569 19.954 34.411 7.089 12.292 18.943 32.771 18.936 32.779 4.859 8.494c1.362 2.425 2.96 4.581 3.551 4.794.595.219 7.848-3.811 16.131-8.963l44.721-27.808c16.317-10.158 30.129-18.296 30.683-18.093 1.207.435 46.567 61.485 46.588 62.7.008.456-3.618 2.579-8.061 4.726l-13.868 6.708-17.393 8.41-18.636 9.02-15.321 7.446-15.528 7.543c-3.984 1.934-7.214 3.918-7.182 4.414s6.032 4.922 13.326 9.835l53.411 36.351 100.158 68.096c16.066 10.875 26.8 17.721 27.752 17.704 1.496-.026 23.374-13.205 38.214-23.026 59.248-39.204 128.398-92.684 172.568-133.455 22.53-20.804 48.76-50.009 48.22-53.679-.07-.465-19.73-28.811-43.69-62.984zm-146-720.37c-.41.007-.99 1.041-1.28 2.295-2.22 9.442-20.02 49.854-29.325 66.568-23.729 42.615-51.829 69.766-89.628 86.602-23.412 10.42-56.925 17.278-87.101 17.811-53.455.95-109.348-33.462-165.346-101.802-17.487-21.331-36.867-49.301-51.712-74.616-2.976-5.071-5.688-9.212-6.026-9.206-1.097.019-1.549 7.393-1.307 21.244.13 7.446-.047 13.54-.392 13.546s-3.162-3.02-6.265-6.717c-20.817-24.854-36.868-49.172-57.39-86.935L519.14-626.99c-22.177-40.631-43.369-70.911-73.542-105.065-15.194-17.2-43.993-44.976-56.376-54.387-62.39-47.388-138.136-70.016-229.204-68.473-68.413 1.159-138.771 15.787-200.957 41.78-26.427 11.04-42.488 19.75-59.068 32.02-22.503 16.655-35.259 24.43-56.701 34.548-13.298 6.272-34.349 13.281-45.463 15.134-1.945.32-3.536.909-3.529 1.306.016.922 1.74 1.202 13.405 2.173 14.384 1.191 33.665 4.15 40.027 6.135 4.44 1.383 5.631 2.104 5.654 3.412.025 1.449-1.142 1.896-9.539 3.654-5.261 1.103-12.193 2.666-15.389 3.482-34.9 8.828-62.498 30.128-93.373 72.053-4.839 6.574-21.378 32.168-25.318 39.182l-14.733 26.958c-2.292 4.474-4.437 8.507-4.766 8.968s-7.147 14.389-15.15 30.949c-22.887 47.33-38.92 76.046-60.882 109.001-20.784 31.186-48.654 65.582-70.014 86.399-10.756 10.486-26.605 24.244-32.811 28.485-2.486 1.702-4.519 3.402-4.512 3.786.06 3.463 29.876-2.051 54.942-10.163l37.728-12.779c5.902-2.109 11.128-3.706 11.61-3.556.974.304-10.013 8.018-29.219 20.515-72.92 47.442-140.029 81.702-207.368 105.837-24.23 8.685-61.617 19.494-83.513 24.14-26.427 5.614-48.787 9.002-77.688 11.779-13.712 1.32-59.212 2.114-73.026 1.278-36.855-2.223-72.01-7.248-103.836-14.833-20.008-4.77-29.294-7.319-49.719-13.655-18.02-5.587-46.89-15.776-56.96-20.094-2.9-1.246-5.43-2.266-5.62-2.262-.85.015-31.58-12.918-47.45-19.971l-8.95-3.868c-.12.002-8.51-3.809-18.63-8.46l-73.99-33.783-14.22-6.292c-5.06-2.245-9.37-3.898-9.59-3.672-.49.512 1.73 3.124 10.92 12.843 126.16 133.347 254.434 294.816 350.681 441.438 25.703 39.15 55.573 87.465 68.667 111.063 2.785 5.02 5.72 9.52 6.512 9.996 4.418 2.627 32.067 5.349 51.024 5.018 9.262-.162 9.958-.292 10.911-1.987 27.169-48.203 116.33-148.012 200.089-223.985C-488.452 3.414-428.338-41.404-379.961-67.564c59.059-31.938 130.116-81.404 207.113-144.188C-108.411-264.293-35.823-329.36 23.148-387.43c25.297-24.917 32.508-31.516 40.535-37.082 15.069-10.456 26.392-12.065 39.867-5.679 19.784 9.375 45.234 39.278 70.779 83.157 5.984 10.285 23.859 44.183 28.757 54.534l6.046 12.721 10.954 23.674 5.3 12.086c.003.182 1.011 2.4 2.243 4.944 2.271 4.714 20.624 48.21 23.747 56.286l6.941 17.601 6.578 16.855 10.73 28.04c.33.507 1.013.397 1.832-.289 2.709-2.272 14.036-18.721 30.187-43.812 16.863-26.202 23.294-35.005 31.274-42.825 34.295-33.586 90.84-57.968 162.958-70.271 3.319-.568 6.031-1.291 6.025-1.608s-3.704-2.329-8.222-4.476l-51.04-23.557c-.162.003-5.838-2.508-12.614-5.574s-12.633-5.573-13.011-5.567-5.291-1.923-10.917-4.29c-43.265-18.193-75.94-47.689-85.535-77.201-1.11-3.434-1.645-7.585-1.75-13.623-.129-7.747.087-9.142 1.967-12.868 2.591-5.137 5.641-8.175 10.5-10.458 4.39-2.062 8.672-2.265 18.356-.857 41.862 6.076 88.694 29.37 143.225 71.241 28.076 21.561 48.685 39.721 84.823 74.745l29.876 28.948c4.417 4.268 7.143 6.297 8.463 6.277 2.518-.037 22.787 4.616 33.714 7.738 27.872 7.971 46.589 14.006 68.236 22.015 17.131 6.332 22.076 7.232 38.441 6.983 14.167-.22 22.198-1.231 38.335-4.842 10.897-2.432 17.635-4.272 29.511-8.061 12.628-4.023 37.246-13.477 47.324-18.174l10.32-4.722c17.748-8.041 43.881-22.172 56.872-30.759 6.279-4.141 6.537-4.435 6.025-6.881-1.312-6.291-1.836-19.308-.96-23.861 1.442-7.514 6.023-16.052 11.775-21.953 8.521-8.742 19.574-14.644 35.383-18.881 4.682-1.253 9.102-2.826 9.832-3.501 1.69-1.545 6.52-11.765 8.62-18.251 7.63-23.528 10.82-47.067 13.47-99.258.76-15.136.16-52.85-.84-52.833zM908.859 454.777c-.581-.402-3.138-1.593-5.685-2.639-19.51-8.013-52.759-25.692-72.073-38.33-71.969-47.074-130.795-110.85-180.433-195.626-8.95-15.281-29.817-55.167-29.85-57.05-.003-.173-.941-2.263-2.087-4.644-1.139-2.38-3.911-8.582-6.156-13.779s-4.555-9.918-5.133-10.493c-.831-.829-3.033-.841-10.572-.051l-22.038 2.096-23.346 2.069-23.355 2.072-22.512 2.044-30.439 2.669c-11.234.955-20.72 2.005-21.076 2.332s13.476 23.025 30.735 50.434l31.395 50.362c.005.287-7.578 1.854-16.848 3.488-18.514 3.26-51.095 10.102-69.277 14.546l-14.969 3.583c-14.092 3.12-52.513 14.108-69.806 19.954-16.323 5.512-32.763 13.058-32.729 15.016.014.83 21.522 23.668 48.489 51.491 22.133 22.84 21.416 21.802 15.918 22.925-6.453 1.318-27.817 8.957-42.382 15.164-19.302 8.22-42.97 23.098-54.388 34.186-10.199 9.916-18.598 22.41-20.381 30.345-.282 1.254-1.013 2.297-1.621 2.307-1.353.024-10.091-8.68-14.284-14.238-19.441-25.73-34.242-79.207-33.448-120.818.14-7.428.633-15.141 1.102-17.141.461-2.004.652-3.82.422-4.043-.227-.218-3.696 3.148-7.703 7.489-33.936 36.709-65.904 82.352-72.702 103.786-1.552 4.876-1.617 6.005-.696 11.391l2.029 12.376c11.513 73.04 56.524 120.655 133.797 141.567 22.268 6.027 40.345 8.946 71.606 11.574 5.498.458 9.759.478 10.17.042.395-.409 1.424-3.55 2.286-6.979 8.816-34.998 20.439-54.798 43.232-73.62 45.496-37.584 102.157-54.327 151.716-44.833 23.193 4.444 47.496 16.012 67.144 31.967 7.028 5.705 17.314 15.625 24.651 23.786l4.242 4.71 9.621 1.031c18.882 2.013 28.929 4.093 38.962 8.058 3.23 1.277 6.52 2.31 7.31 2.296 1.232-.021 20.914-4.19 29.801-6.314 9.65-2.302 11.676-2.884 12.033-3.488.555-.925-47.641-44.73-91.208-82.896-63.43-55.566-110.458-93.567-136.81-110.549-4.644-2.998-8.561-5.712-8.695-6.034s9.247-1.022 20.853-1.546l44.46-2.126 32.55-1.298 9.185-.13 12.286 12.363 31.021 31.065 27.71 27.655 88.43 86.8c22.134 21.183 22.809 21.741 26.05 21.685 6.312-.11 34.724-5.917 44.648-9.126 32.88-10.629 57.954-23.134 66.993-33.404 3.195-3.628 3.458-4.399 1.855-5.529zM817.033 12.518c-.435.008-4.693-1.549-9.457-3.458l-19.172-7.62-74.869-30.779-14.925-6.465-15.5-6.87c-3.322-1.532-6.148-2.685-6.267-2.575l-8.304 8.258C648.72-17.255 624.159-5.525 592.934-.885 581.911.756 554.921.978 541.157-.46c-30.832-3.223-65.08-11.58-103.58-25.291l-13.236-4.685c-3.071-1.064-2.943-2.204.785-7.03 3.936-5.093 8.663-9.544 16.562-15.628 26.223-20.179 79.72-43.748 125.776-55.418 3.315-.834 6.018-1.857 6.011-2.266-.035-2.022-14.985-13.18-33.423-24.942-21.193-13.521-61.126-35.992-88.193-49.627l-9.742-4.904-9.819 8.676c-8.187 7.234-39.162 35.859-52.962 48.957l-19.316 17.851C293.375-53.555 246.903-17.352 194.401 14.256c-48.549 29.236-83.3 57.951-134.204 110.897-11.729 12.204-27.065 28.81-34.082 36.894-21.553 24.862-44.104 52.713-44.074 54.424.018 1.056 37.667 32.87 39.297 33.21.579.118 2.299-1.769 3.816-4.203 9.029-14.447 39.399-40.84 77.816-67.647 33.048-23.054 85.382-56.164 121.76-77.021l15.706-9.13 17.777-10.254 12.818-7.25c21.751-12.379 26.595-14.753 27.719-13.608.598.614 7.337 10.42 14.967 21.793l13.876 20.681-2.906 4.072c-2.874 4.028-10.501 10.85-17.747 15.875-5.094 3.543-18.425 10.812-23.906 13.049a202.37 202.37 0 0 0-7.875 3.412c-1.859.873-11.221 4.386-20.811 7.805-27.173 9.692-48.49 18.694-69.223 29.225C96.259 221.615 47.7 282.931 30.785 371.35c-1.401 7.338-1.913 10.541-3.851 24.273-2.572 18.26-1.901 38.132 1.852 54.648 10.892 47.934 48.004 85.996 107.515 110.281 7.818 3.186 31.551 10.557 32.121 9.977.372-.381-13.693-20.813-21.18-30.761-1.196-1.589-5.231-5.463-8.959-8.605-13.454-11.343-28.049-29.642-34.754-43.56-4.295-8.934-5.38-11.471-7.312-17.163-4.402-12.896-5.254-18.408-5.524-35.582-.204-13.438.03-17.45 1.411-24.021 4.897-23.318 14.839-44.672 31.473-67.584 8.408-11.586 25.968-29.784 37.953-39.323 53.495-42.605 129.314-67.06 236.623-76.324l18.762-1.587c21.211-1.744 31.636-2.78 32.297-3.2.414-.264-2.265-3.459-5.955-7.105-19.806-19.562-34.878-50.095-40.966-82.989-1.495-8.084-1.18-32.397.506-38.909 2.107-8.14 5.309-15.401 6.801-15.427.736-.013 5.312.853 10.166 1.923l12.192 2.681c20.322 4.423 53.035 8.086 82.731 9.262 56.482 2.232 118.927-6.205 179.495-24.266 20.782-6.194 56.201-19.284 70.316-25.98 2.518-1.192 4.749-2.18 4.955-2.183.561-.01 10.478-4.768 20.83-9.997 15.45-7.802 27.589-14.919 27.567-16.158-.011-.641-.378-1.162-.817-1.154zM713.177 648.277c-2.744-26.095-5.149-40.052-9.371-54.456l-2.026-6.998c-.382-1.361-1.537-4.683-2.56-7.38-1.03-2.693-1.871-5.039-1.874-5.204-.023-1.354-4.263 2.022-15.585 12.393l-13.217 12.109.072 5.084c.1 6.676-1.635 20.037-3.658 28.155-13.159 52.942-60.619 90.016-133.073 103.946-13.117 2.525-39.433 3.446-49.248 1.73-23.758-4.146-42.299-11.575-60.458-24.197l-5.821-4.044-10.488 2.833-16.3 4.502-37.818 10.695-18.49 5.191-43.01 12.133-23.687 6.643-18.282 5.13-15.374 4.364-14.603 4.08c-8.132 2.212-11.11 3.395-10.29 4.093.226.185 9.138 5.503 19.809 11.806l28.903 17.097c5.224 3.089 9.504 5.949 9.511 6.357.007.402-.337 1.384-.762 2.181s-3.139 8.199-6.027 16.437l-7.557 21.238-13.243 37.476-5.061 14.154-6.389 17.909-6.733 19.15-7.045 19.983-22.433 63.273c-2.785 7.78-4.872 14.31-4.645 14.54 1.099 1.04 18.07-4.45 77.144-24.97l90.627-32.4c1.221-.676 2.05-3.084 3.41-9.868l3.232-16.037 2.255-11.215 1.43-7.058 1.88-9.554c2.362-12.244 1.861-11.556 9.663-13.313 24.269-5.458 93.706-24.727 102.209-28.36 2.128-.908 1.964 2.454-.494 10.206-5.885 18.575-17.468 36.446-37.59 57.99-9.857 10.551-10.074 10.14 3.267 6.291 58.116-16.748 92.879-29.892 130.417-49.293 15.439-7.981 22.874-12.419 37.867-22.611 44.596-30.308 73.019-66.064 86.452-108.757 7.549-23.989 11.94-45.543 14.435-70.893 1.021-10.38 1.441-44.911.629-52.561zM546.08 769.033c-1.412 5.164-4.14 8.858-9.833 13.31-13.29 10.384-39.588 21.445-80.634 33.918l-18.276 5.6c-7.874 2.528-34.012 9.001-35.579 8.805-2.267-.274-5.719-6.342-5.786-10.163-.178-10.231 11.046-18.685 34.206-25.785l17.45-5.339c20.249-6.194 51.855-18.357 81.714-31.445 8.28-3.633 12.712-4.048 15.584-1.468 2.26 2.034 2.706 6.878 1.154 12.567zm-170.144-86.69c-10.213-10.809-18.997-33.922-23.908-62.88-.753-4.444-1.556-8.256-1.789-8.474-.227-.223-2.971.028-6.095.555-3.114.524-9.048 1.414-13.171 1.979-28.742 3.929-55.527 8.573-69.111 11.987l-8.94 2.212c-27.901 6.838-54.881 14.974-88.824 26.793-20.025 6.967-23.35 8.193-48.823 17.974-20.865 8.008-59.345 23.705-86.247 35.174-63.909 27.256-112.943 56.318-154.994 91.88-12.168 10.294-41.595 40.972-49.973 52.119-9.447 12.56-19.554 28.362-25.146 39.335-4.805 9.443-11.279 25.999-12.127 31.025l-.52 3.095 20.271 19.634c11.145 10.799 27.077 25.658 35.407 33.011 12.465 11.016 15.319 13.181 16.153 12.231.556-.627 4.074-5.294 7.811-10.37 18.267-24.754 38.967-45.671 57.957-58.556 21.553-14.624 40.633-18.128 57.471-10.565 19.541 8.782 24.193 24.989 13.486 47.011-9.058 18.627-33.411 45.557-58.356 64.507-3.672 2.8-6.794 5.4-6.932 5.79-.412 1.15 10.735 6.07 21.419 9.44 19.478 6.14 45.321 10.41 72.762 12.01l19.651 1.36c10.225.88 66.962-.11 78.444-1.37l20.817-2c6.615-.56 12.345-1.35 12.723-1.74.584-.6 3.608-10.71 6.154-20.56.689-2.67 7.888-28.589 17.437-62.79l5.261-19.334c.628-2.493 13.981-52.224 15.794-58.829 1.644-5.999 9.268-36.553 11.68-46.775l2.495-10.625-3.617-4.485c-8.962-11.107-25.965-19.366-51.481-25.015-12.26-2.714-35.891-6.208-48.654-7.194-3.108-.243-5.872-.779-6.143-1.189-1.363-2.104 11.043-17.875 20.773-26.422 36.999-32.482 105.285-55.212 205.711-68.471l47.625-5.768c1.897-.033 1.062-1.993-2.45-5.71zm-126.887-85.062c-.574-.145-2.932-.631-5.236-1.08l-28.496-5.942c-9.492-2.025-26.583-3.135-60.012-3.882-12.805-.29-15.041-.159-16.271.973-3.712 3.417-40.222 23.064-64.31 34.606l-15.74 7.564-42.661 19.909c-33.503 15.522-68.802 33.031-82.617 40.994-55.544 31.998-88.325 66.085-131.177 136.373-15.083 24.739-19.399 32.205-18.616 32.191.182-.003 4.947-5.397 10.592-11.979 27.816-32.463 62.404-62.776 106.178-93.059 46.058-31.877 87.282-54.611 158.117-87.211 5.239-2.411 45.758-19.264 55.138-22.936 19.111-7.478 52.132-19.284 70.552-25.21l13.287-4.392c3.482-1.317 36.485-11.07 44.662-13.198 7.092-1.852 9.235-3.058 6.611-3.721zm-36.155-712.016c-3.474-7.914-11.417-24.658-16.752-35.295l-10.43-20.924c-11.706-23.575-87.368-166.356-88.322-166.66-.55-.176-4.771.009-9.379.417-31.605 2.786-65.273 18.902-107.639 51.505-33.536 25.81-68.436 59.576-124.124 120.077-35.859 38.955-42.251 45.1-73.411 70.511-45.71 37.28-138.933 105.567-219.145 160.534-10.103 6.922-18.351 12.989-18.332 13.485.025.672 40.554 48.378 44.242 52.075.343.346 11.775-5.125 25.398-12.156l30.986-15.768 13.664-6.623c13.502-6.59 18.091-8.703 30.136-13.839 6.545-2.795 12.232-4.89 12.627-4.654 1.631.961 6.34 18.098 11.866 43.196l9.68 47.007 2.75 14.018 2.764 14.021c3.367 16.492 4.222 22.342 3.38 23.056-1.058.896-21.123 9.255-37.382 15.559l-17.833 6.99c-22.053 8.795-80.958 29.873-102.09 36.525-13.324 4.2-13.434 4.259-12.908 6.762.843 4.02 1.508 10.383 2.653 25.476 1.939 25.404.166 58.088-5.146 94.939-.847 5.856-1.348 10.832-1.118 11.051.632.6 40.397-8.802 72.923-17.25 90.604-23.515 163.199-55.696 219.909-97.476 34.379-25.326 67.509-58.547 107.703-107.994 32.013-39.38 63.385-82.99 113.971-158.404 35.485-52.906 42.531-62.574 54.725-75.08 14.007-14.378 22.955-21.49 63.266-50.302 13.736-9.815 23.806-18.041 23.612-19.297-.046-.303-1.051-2.774-2.243-5.481zm-88.068-3.588c-2.413 18.818-8.016 34.397-17.878 49.715-5.142 7.974-21.198 24.545-28.733 29.643-24.373 16.494-52.01 23.422-79.228 19.852-24.034-3.149-44.432-12.494-62.007-28.414-15.905-14.41-27.225-32.769-32.719-53.073-4.559-16.86-5.215-32.251-2.071-49.006 5.71-30.518 22.999-56.375 49.269-73.696 9.964-6.565 24.185-12.388 37.926-15.518 11.226-2.562 29.933-3.041 41.481-1.068 48.017 8.217 84.696 44.447 93.068 91.942 1.473 8.358 1.878 21.897.892 29.623zm-14.077 684.541C32.282 529.66-15.098 470.181-28.265 391.68c-1.933-11.503-3.877-31.562-4.066-42.006-.404-21.767 2.34-51.841 6.948-76.239 1.209-6.395 2.067-11.758 1.899-11.924-.158-.163-6.11 5.286-13.223 12.112-56.802 54.48-117.981 92.881-175.44 110.114-4.793 1.441-9.931 2.885-11.414 3.215s-2.888.914-3.12 1.303 1.97 2.812 4.888 5.385c11.652 10.273 31.154 29.597 37.258 36.919 19.602 23.515 28.206 42.327 28.556 62.404.359 20.542-8.127 38.285-27.164 56.772-13.905 13.502-18.267 16.056-33.694 19.725-9.902 2.351-30.593 3.502-40.383 2.241-36.906-4.761-65.553-30.81-75.798-68.926-1.585-5.901-1.949-9.562-2.159-21.588-.223-13.174-.053-15.22 1.882-22.743 1.166-4.548 3.373-11.001 4.902-14.337s2.769-6.345 2.764-6.673c-.017-.925-5.537 4.709-18.79 19.165-41.542 45.314-78.511 93.847-103.78 136.223-11.359 19.065-24.71 44.972-23.859 46.295.263.397 4.515 2.565 9.453 4.805 65.26 29.664 119.209 76.133 158.796 136.802l7.773 12.218c.004.183 1.215 2.282 2.695 4.663 9.345 15.065 24.236 46.266 33.308 69.8.827 2.147 1.78 3.899 2.124 3.893s1.438-2.348 2.435-5.212c3.019-8.662 12.745-35.019 13.911-37.69.6-1.378 2.159-5.318 3.48-8.752 15.505-40.595 37.711-78.724 60.429-103.788 35.792-39.494 85.89-64.348 148.538-73.706 6.058-.906 7.704-1.431 7.686-2.464-.058-3.335-18.888-52.636-25.188-65.954l-5.653-12.239c-8.158-17.827-26.239-52.886-32.49-62.987-1.473-2.381-2.685-4.498-2.689-4.697-.015-.85-16.269-26.17-22.577-35.166-8.009-11.428-14.109-18.898-21.805-26.701-4.709-4.777-5.348-5.758-4.352-6.728 3.37-3.297 56.892-37.971 57.789-37.443.566.334 1.494 2.597 6.041 14.761 22.671 60.636 51.382 117.962 76.022 151.782 17.504 24.025 34.853 40.351 51.028 48.02 9.158 4.344 9.455 4.319 18.42-1.473 15.158-9.803 38.323-22.217 47.116-25.25 2.037-.704 3.823-1.664 3.98-2.14.151-.468-5.906-3.732-13.463-7.253zM73.127-144.577c-4.011-18.936-17.059-35.455-34.15-43.23-10.547-4.799-18.375-6.229-30.139-5.507-15.434.941-27.234 6.012-38.412 16.512-19.745 18.55-24.583 47.976-11.891 72.355 7.798 14.98 22.92 26.59 40.157 30.848 7.484 1.848 22.778 1.605 30.055-.481 26.437-7.562 44.461-30.319 45.358-57.272.145-4.436-.249-9.791-.977-13.225zM-197.755 470.52c-2.403-8.454-6.329-14.81-13.18-21.373-12.368-11.854-27.971-15.954-44.034-11.585-8.919 2.428-15.737 6.402-21.993 12.819-9.066 9.301-13.319 19.977-13.11 32.916.346 21.765 15.663 40.226 37.231 44.867 7.155 1.54 14.214 1.302 21.708-.733 7.55-2.06 11.078-3.847 17.601-8.907 13.965-10.829 20.611-31.058 15.777-48.004z"/></mask><path d="M1901.67 195.108c-1.4-11.57-2.95-22.088-4.33-29.306l-2.13-11.139c-3.8-19.753-14.37-52.765-24.25-75.66-19.22-44.587-45.96-87.454-76.89-123.264-10.7-12.384-39.36-39.725-53.16-50.701-62.03-49.351-138.14-88.188-227.52-116.091-17.4-5.426-24.8-7.589-36.1-10.508l-11.74-3.128c-3.42-.997-29.42-6.752-33.33-7.373-1.73-.28-3.14-.323-3.13-.104 0 .382 1.52 3.782 5.41 12.105l12.38 26.683 9.12 19.701 9.12 19.708 9.21 19.905 11.96 25.732 7.08 15.263 15.74 5.725 21.19 7.612c3 1.035 10 3.59 15.55 5.664l10.08 3.774.08 4.543c.38 21.775.11 94.055-.36 94.559-.32.357-4.33.356-8.9 0l-20.84-1.345-21.41-1.382c-8.1-.632-9.11-.55-11.68.933-1.54.891-6.16 3.467-10.25 5.723l-11.58 6.435-9.72 5.437-10.75 5.988-31.64 17.633-36.4 20.272-38.05 21.169c-11.32 6.248-10.85 5.136-6.06 14.422l8.71 17.176c2.54 5.077 4.94 9.222 5.35 9.215s5.08-3.229 10.39-7.16c35.3-26.173 77.95-45.541 121.28-55.076 14.31-3.153 38.87-6.097 52.78-6.34 13.03-.228 35.59 1.604 50.18 4.077 32.97 5.587 70.55 19.807 111.98 42.381 68.68 37.424 116.7 87.313 142.14 147.661 10.03 23.814 16.38 47.777 19.85 74.964 1.51 11.838 1.43 11.718 4.82 7.763 16.53-19.315 30.05-54.574 34.7-90.489 2.75-21.215 3.27-55.396 1.12-73.159zM1770.94 57.941c-.35.009-11.97-3.468-25.82-7.717l-31.49-9.468-9.77-2.79c-14.2-4.334-44.04-10.367-50.68-10.251l-4.08.071-.15-8.894c-.36-20.333.06-62.269.62-63.2.63-1.065 1.25-.964 14.6 2.46 49.07 12.561 88.6 47.702 105.96 94.172 1.49 3.999 1.72 5.595.81 5.618zM1527.8-13.994c-.21-.209-.95-9.302-1.65-20.213l-1.81-22.925c-.6-3.501-.44-3.44-15.05-6.169l-11.74-2.267-22.18-4.441-10.45-2.073-9.53-18.164-10.11-18.707c-.32-.305-3.86 1.35-7.87 3.669l-12.25 7.047-18.61 10.667-18.19 10.433-34.73 19.872-34.31 19.635-45.49 26.029-45.48 26.039-33.9 19.419-32.66 18.681c-16.38 9.163-35.55 20.44-35.55 20.899.01.317 9.32 13.573 20.69 29.46l50.78 70.98 37.3 51.764c.52.582 96.52-53.779 98.76-55.915 1.02-.973 3.42 2.044-26.24-33.154l-25.39-30.988c-.01-.486 11.63-6.942 25.85-14.355l40.76-21.372 46.35-24.383 61.55-32.32 30.1-15.824 19.32.355 20.57.357c.98 0 1.29-1.302 1.4-5.838.07-3.202-.03-5.999-.24-6.198zm-95.92-151.814l-8.14-17.236-3.1-6.564-4.39-9.225-5.64-12.073c-1.74-3.833-3.6-7.298-4.13-7.711-.63-.485-3.15.507-7.23 2.855l-14.48 8.133-32.61 18.18-29.36 16.426-10.34 5.782-30.19 16.872-29.98 16.76-10.35 5.779-29.97 16.76-29.99 16.757-10.33 5.782-29.57 16.54-32.67 18.175-9.1 5.126c-.46.329-4.93 2.821-9.93 5.535-5.01 2.718-9.54 5.359-10.08 5.879-.75.712 1.38 4.635 8.97 16.489l19.83 31.105 10.53 16.259c.51.552 44.63-23.232 83.1-44.8l16.96-9.385 17.78-9.818 17.79-9.832 17.78-9.832 18.61-10.262 17.79-9.832 17.78-9.825 17.79-9.832 17.78-9.832 18.61-10.261 36.81-20.341c17.17-9.419 20.25-11.31 20.44-12.525.1-.677-2.95-7.88-6.77-16.008zm-257.8 354.579l-44.69-62.359c-.61-.124-5.92 2.615-11.8 6.088l-14.81 8.652-42.85 24.977c-32.65 19.083-38.9 22.45-39.84 21.511-2.74-2.735-33.1-49.252-32.762-50.179.213-.571 25.502-17.212 56.212-36.977l55.81-36.629c-.01-.392-2.78-4.685-6.16-9.549l-29.64-43.193-24.98-35.827c-1.45-1.43-1.59-1.411-3.9.574-11.28 9.708-39.486 24.972-64.036 34.656-27.899 11.001-56.641 19.579-97.626 29.12l-19.13 4.511c-1.832.461-9.691 2.269-17.47 4.029-70.182 15.838-109.064 28.26-142.577 45.538-19.422 10.02-36.78 21.998-48.779 33.67l-5.485 5.333 9.088 15.569 19.954 34.411 7.089 12.292 18.943 32.771 18.936 32.779 4.859 8.494c1.362 2.425 2.96 4.581 3.551 4.794.595.219 7.848-3.811 16.131-8.963l44.721-27.808c16.317-10.158 30.129-18.296 30.683-18.093 1.207.435 46.567 61.485 46.588 62.7.008.456-3.618 2.579-8.061 4.726l-13.868 6.708-17.393 8.41-18.636 9.02-15.321 7.446-15.528 7.543c-3.984 1.934-7.214 3.918-7.182 4.414s6.032 4.922 13.326 9.835l53.411 36.351 100.158 68.096c16.066 10.875 26.8 17.721 27.752 17.704 1.496-.026 23.374-13.205 38.214-23.026 59.248-39.204 128.398-92.684 172.568-133.455 22.53-20.804 48.76-50.009 48.22-53.679-.07-.465-19.73-28.811-43.69-62.984zm-146-720.37c-.41.007-.99 1.041-1.28 2.295-2.22 9.442-20.02 49.854-29.325 66.568-23.729 42.615-51.829 69.766-89.628 86.602-23.412 10.42-56.925 17.278-87.101 17.811-53.455.95-109.348-33.462-165.346-101.802-17.487-21.331-36.867-49.301-51.712-74.616-2.976-5.071-5.688-9.212-6.026-9.206-1.097.019-1.549 7.393-1.307 21.244.13 7.446-.047 13.54-.392 13.546s-3.162-3.02-6.265-6.717c-20.817-24.854-36.868-49.172-57.39-86.935L519.14-626.99c-22.177-40.631-43.369-70.911-73.542-105.065-15.194-17.2-43.993-44.976-56.376-54.387-62.39-47.388-138.136-70.016-229.204-68.473-68.413 1.159-138.771 15.787-200.957 41.78-26.427 11.04-42.488 19.75-59.068 32.02-22.503 16.655-35.259 24.43-56.701 34.548-13.298 6.272-34.349 13.281-45.463 15.134-1.945.32-3.536.909-3.529 1.306.016.922 1.74 1.202 13.405 2.173 14.384 1.191 33.665 4.15 40.027 6.135 4.44 1.383 5.631 2.104 5.654 3.412.025 1.449-1.142 1.896-9.539 3.654-5.261 1.103-12.193 2.666-15.389 3.482-34.9 8.828-62.498 30.128-93.373 72.053-4.839 6.574-21.378 32.168-25.318 39.182l-14.733 26.958c-2.292 4.474-4.437 8.507-4.766 8.968s-7.147 14.389-15.15 30.949c-22.887 47.33-38.92 76.046-60.882 109.001-20.784 31.186-48.654 65.582-70.014 86.399-10.756 10.486-26.605 24.244-32.811 28.485-2.486 1.702-4.519 3.402-4.512 3.786.06 3.463 29.876-2.051 54.942-10.163l37.728-12.779c5.902-2.109 11.128-3.706 11.61-3.556.974.304-10.013 8.018-29.219 20.515-72.92 47.442-140.029 81.702-207.368 105.837-24.23 8.685-61.617 19.494-83.513 24.14-26.427 5.614-48.787 9.002-77.688 11.779-13.712 1.32-59.212 2.114-73.026 1.278-36.855-2.223-72.01-7.248-103.836-14.833-20.008-4.77-29.294-7.319-49.719-13.655-18.02-5.587-46.89-15.776-56.96-20.094-2.9-1.246-5.43-2.266-5.62-2.262-.85.015-31.58-12.918-47.45-19.971l-8.95-3.868c-.12.002-8.51-3.809-18.63-8.46l-73.99-33.783-14.22-6.292c-5.06-2.245-9.37-3.898-9.59-3.672-.49.512 1.73 3.124 10.92 12.843 126.16 133.347 254.434 294.816 350.681 441.438 25.703 39.15 55.573 87.465 68.667 111.063 2.785 5.02 5.72 9.52 6.512 9.996 4.418 2.627 32.067 5.349 51.024 5.018 9.262-.162 9.958-.292 10.911-1.987 27.169-48.203 116.33-148.012 200.089-223.985C-488.452 3.414-428.338-41.404-379.961-67.564c59.059-31.938 130.116-81.404 207.113-144.188C-108.411-264.293-35.823-329.36 23.148-387.43c25.297-24.917 32.508-31.516 40.535-37.082 15.069-10.456 26.392-12.065 39.867-5.679 19.784 9.375 45.234 39.278 70.779 83.157 5.984 10.285 23.859 44.183 28.757 54.534l6.046 12.721 10.954 23.674 5.3 12.086c.003.182 1.011 2.4 2.243 4.944 2.271 4.714 20.624 48.21 23.747 56.286l6.941 17.601 6.578 16.855 10.73 28.04c.33.507 1.013.397 1.832-.289 2.709-2.272 14.036-18.721 30.187-43.812 16.863-26.202 23.294-35.005 31.274-42.825 34.295-33.586 90.84-57.968 162.958-70.271 3.319-.568 6.031-1.291 6.025-1.608s-3.704-2.329-8.222-4.476l-51.04-23.557c-.162.003-5.838-2.508-12.614-5.574s-12.633-5.573-13.011-5.567-5.291-1.923-10.917-4.29c-43.265-18.193-75.94-47.689-85.535-77.201-1.11-3.434-1.645-7.585-1.75-13.623-.129-7.747.087-9.142 1.967-12.868 2.591-5.137 5.641-8.175 10.5-10.458 4.39-2.062 8.672-2.265 18.356-.857 41.862 6.076 88.694 29.37 143.225 71.241 28.076 21.561 48.685 39.721 84.823 74.745l29.876 28.948c4.417 4.268 7.143 6.297 8.463 6.277 2.518-.037 22.787 4.616 33.714 7.738 27.872 7.971 46.589 14.006 68.236 22.015 17.131 6.332 22.076 7.232 38.441 6.983 14.167-.22 22.198-1.231 38.335-4.842 10.897-2.432 17.635-4.272 29.511-8.061 12.628-4.023 37.246-13.477 47.324-18.174l10.32-4.722c17.748-8.041 43.881-22.172 56.872-30.759 6.279-4.141 6.537-4.435 6.025-6.881-1.312-6.291-1.836-19.308-.96-23.861 1.442-7.514 6.023-16.052 11.775-21.953 8.521-8.742 19.574-14.644 35.383-18.881 4.682-1.253 9.102-2.826 9.832-3.501 1.69-1.545 6.52-11.765 8.62-18.251 7.63-23.528 10.82-47.067 13.47-99.258.76-15.136.16-52.85-.84-52.833zM908.859 454.777c-.581-.402-3.138-1.593-5.685-2.639-19.51-8.013-52.759-25.692-72.073-38.33-71.969-47.074-130.795-110.85-180.433-195.626-8.95-15.281-29.817-55.167-29.85-57.05-.003-.173-.941-2.263-2.087-4.644-1.139-2.38-3.911-8.582-6.156-13.779s-4.555-9.918-5.133-10.493c-.831-.829-3.033-.841-10.572-.051l-22.038 2.096-23.346 2.069-23.355 2.072-22.512 2.044-30.439 2.669c-11.234.955-20.72 2.005-21.076 2.332s13.476 23.025 30.735 50.434l31.395 50.362c.005.287-7.578 1.854-16.848 3.488-18.514 3.26-51.095 10.102-69.277 14.546l-14.969 3.583c-14.092 3.12-52.513 14.108-69.806 19.954-16.323 5.512-32.763 13.058-32.729 15.016.014.83 21.522 23.668 48.489 51.491 22.133 22.84 21.416 21.802 15.918 22.925-6.453 1.318-27.817 8.957-42.382 15.164-19.302 8.22-42.97 23.098-54.388 34.186-10.199 9.916-18.598 22.41-20.381 30.345-.282 1.254-1.013 2.297-1.621 2.307-1.353.024-10.091-8.68-14.284-14.238-19.441-25.73-34.242-79.207-33.448-120.818.14-7.428.633-15.141 1.102-17.141.461-2.004.652-3.82.422-4.043-.227-.218-3.696 3.148-7.703 7.489-33.936 36.709-65.904 82.352-72.702 103.786-1.552 4.876-1.617 6.005-.696 11.391l2.029 12.376c11.513 73.04 56.524 120.655 133.797 141.567 22.268 6.027 40.345 8.946 71.606 11.574 5.498.458 9.759.478 10.17.042.395-.409 1.424-3.55 2.286-6.979 8.816-34.998 20.439-54.798 43.232-73.62 45.496-37.584 102.157-54.327 151.716-44.833 23.193 4.444 47.496 16.012 67.144 31.967 7.028 5.705 17.314 15.625 24.651 23.786l4.242 4.71 9.621 1.031c18.882 2.013 28.929 4.093 38.962 8.058 3.23 1.277 6.52 2.31 7.31 2.296 1.232-.021 20.914-4.19 29.801-6.314 9.65-2.302 11.676-2.884 12.033-3.488.555-.925-47.641-44.73-91.208-82.896-63.43-55.566-110.458-93.567-136.81-110.549-4.644-2.998-8.561-5.712-8.695-6.034s9.247-1.022 20.853-1.546l44.46-2.126 32.55-1.298 9.185-.13 12.286 12.363 31.021 31.065 27.71 27.655 88.43 86.8c22.134 21.183 22.809 21.741 26.05 21.685 6.312-.11 34.724-5.917 44.648-9.126 32.88-10.629 57.954-23.134 66.993-33.404 3.195-3.628 3.458-4.399 1.855-5.529zM817.033 12.518c-.435.008-4.693-1.549-9.457-3.458l-19.172-7.62-74.869-30.779-14.925-6.465-15.5-6.87c-3.322-1.532-6.148-2.685-6.267-2.575l-8.304 8.258C648.72-17.255 624.159-5.525 592.934-.885 581.911.756 554.921.978 541.157-.46c-30.832-3.223-65.08-11.58-103.58-25.291l-13.236-4.685c-3.071-1.064-2.943-2.204.785-7.03 3.936-5.093 8.663-9.544 16.562-15.628 26.223-20.179 79.72-43.748 125.776-55.418 3.315-.834 6.018-1.857 6.011-2.266-.035-2.022-14.985-13.18-33.423-24.942-21.193-13.521-61.126-35.992-88.193-49.627l-9.742-4.904-9.819 8.676c-8.187 7.234-39.162 35.859-52.962 48.957l-19.316 17.851C293.375-53.555 246.903-17.352 194.401 14.256c-48.549 29.236-83.3 57.951-134.204 110.897-11.729 12.204-27.065 28.81-34.082 36.894-21.553 24.862-44.104 52.713-44.074 54.424.018 1.056 37.667 32.87 39.297 33.21.579.118 2.299-1.769 3.816-4.203 9.029-14.447 39.399-40.84 77.816-67.647 33.048-23.054 85.382-56.164 121.76-77.021l15.706-9.13 17.777-10.254 12.818-7.25c21.751-12.379 26.595-14.753 27.719-13.608.598.614 7.337 10.42 14.967 21.793l13.876 20.681-2.906 4.072c-2.874 4.028-10.501 10.85-17.747 15.875-5.094 3.543-18.425 10.812-23.906 13.049a202.37 202.37 0 0 0-7.875 3.412c-1.859.873-11.221 4.386-20.811 7.805-27.173 9.692-48.49 18.694-69.223 29.225C96.259 221.615 47.7 282.931 30.785 371.35c-1.401 7.338-1.913 10.541-3.851 24.273-2.572 18.26-1.901 38.132 1.852 54.648 10.892 47.934 48.004 85.996 107.515 110.281 7.818 3.186 31.551 10.557 32.121 9.977.372-.381-13.693-20.813-21.18-30.761-1.196-1.589-5.231-5.463-8.959-8.605-13.454-11.343-28.049-29.642-34.754-43.56-4.295-8.934-5.38-11.471-7.312-17.163-4.402-12.896-5.254-18.408-5.524-35.582-.204-13.438.03-17.45 1.411-24.021 4.897-23.318 14.839-44.672 31.473-67.584 8.408-11.586 25.968-29.784 37.953-39.323 53.495-42.605 129.314-67.06 236.623-76.324l18.762-1.587c21.211-1.744 31.636-2.78 32.297-3.2.414-.264-2.265-3.459-5.955-7.105-19.806-19.562-34.878-50.095-40.966-82.989-1.495-8.084-1.18-32.397.506-38.909 2.107-8.14 5.309-15.401 6.801-15.427.736-.013 5.312.853 10.166 1.923l12.192 2.681c20.322 4.423 53.035 8.086 82.731 9.262 56.482 2.232 118.927-6.205 179.495-24.266 20.782-6.194 56.201-19.284 70.316-25.98 2.518-1.192 4.749-2.18 4.955-2.183.561-.01 10.478-4.768 20.83-9.997 15.45-7.802 27.589-14.919 27.567-16.158-.011-.641-.378-1.162-.817-1.154zM713.177 648.277c-2.744-26.095-5.149-40.052-9.371-54.456l-2.026-6.998c-.382-1.361-1.537-4.683-2.56-7.38-1.03-2.693-1.871-5.039-1.874-5.204-.023-1.354-4.263 2.022-15.585 12.393l-13.217 12.109.072 5.084c.1 6.676-1.635 20.037-3.658 28.155-13.159 52.942-60.619 90.016-133.073 103.946-13.117 2.525-39.433 3.446-49.248 1.73-23.758-4.146-42.299-11.575-60.458-24.197l-5.821-4.044-10.488 2.833-16.3 4.502-37.818 10.695-18.49 5.191-43.01 12.133-23.687 6.643-18.282 5.13-15.374 4.364-14.603 4.08c-8.132 2.212-11.11 3.395-10.29 4.093.226.185 9.138 5.503 19.809 11.806l28.903 17.097c5.224 3.089 9.504 5.949 9.511 6.357.007.402-.337 1.384-.762 2.181s-3.139 8.199-6.027 16.437l-7.557 21.238-13.243 37.476-5.061 14.154-6.389 17.909-6.733 19.15-7.045 19.983-22.433 63.273c-2.785 7.78-4.872 14.31-4.645 14.54 1.099 1.04 18.07-4.45 77.144-24.97l90.627-32.4c1.221-.676 2.05-3.084 3.41-9.868l3.232-16.037 2.255-11.215 1.43-7.058 1.88-9.554c2.362-12.244 1.861-11.556 9.663-13.313 24.269-5.458 93.706-24.727 102.209-28.36 2.128-.908 1.964 2.454-.494 10.206-5.885 18.575-17.468 36.446-37.59 57.99-9.857 10.551-10.074 10.14 3.267 6.291 58.116-16.748 92.879-29.892 130.417-49.293 15.439-7.981 22.874-12.419 37.867-22.611 44.596-30.308 73.019-66.064 86.452-108.757 7.549-23.989 11.94-45.543 14.435-70.893 1.021-10.38 1.441-44.911.629-52.561zM546.08 769.033c-1.412 5.164-4.14 8.858-9.833 13.31-13.29 10.384-39.588 21.445-80.634 33.918l-18.276 5.6c-7.874 2.528-34.012 9.001-35.579 8.805-2.267-.274-5.719-6.342-5.786-10.163-.178-10.231 11.046-18.685 34.206-25.785l17.45-5.339c20.249-6.194 51.855-18.357 81.714-31.445 8.28-3.633 12.712-4.048 15.584-1.468 2.26 2.034 2.706 6.878 1.154 12.567zm-170.144-86.69c-10.213-10.809-18.997-33.922-23.908-62.88-.753-4.444-1.556-8.256-1.789-8.474-.227-.223-2.971.028-6.095.555-3.114.524-9.048 1.414-13.171 1.979-28.742 3.929-55.527 8.573-69.111 11.987l-8.94 2.212c-27.901 6.838-54.881 14.974-88.824 26.793-20.025 6.967-23.35 8.193-48.823 17.974-20.865 8.008-59.345 23.705-86.247 35.174-63.909 27.256-112.943 56.318-154.994 91.88-12.168 10.294-41.595 40.972-49.973 52.119-9.447 12.56-19.554 28.362-25.146 39.335-4.805 9.443-11.279 25.999-12.127 31.025l-.52 3.095 20.271 19.634c11.145 10.799 27.077 25.658 35.407 33.011 12.465 11.016 15.319 13.181 16.153 12.231.556-.627 4.074-5.294 7.811-10.37 18.267-24.754 38.967-45.671 57.957-58.556 21.553-14.624 40.633-18.128 57.471-10.565 19.541 8.782 24.193 24.989 13.486 47.011-9.058 18.627-33.411 45.557-58.356 64.507-3.672 2.8-6.794 5.4-6.932 5.79-.412 1.15 10.735 6.07 21.419 9.44 19.478 6.14 45.321 10.41 72.762 12.01l19.651 1.36c10.225.88 66.962-.11 78.444-1.37l20.817-2c6.615-.56 12.345-1.35 12.723-1.74.584-.6 3.608-10.71 6.154-20.56.689-2.67 7.888-28.589 17.437-62.79l5.261-19.334c.628-2.493 13.981-52.224 15.794-58.829 1.644-5.999 9.268-36.553 11.68-46.775l2.495-10.625-3.617-4.485c-8.962-11.107-25.965-19.366-51.481-25.015-12.26-2.714-35.891-6.208-48.654-7.194-3.108-.243-5.872-.779-6.143-1.189-1.363-2.104 11.043-17.875 20.773-26.422 36.999-32.482 105.285-55.212 205.711-68.471l47.625-5.768c1.897-.033 1.062-1.993-2.45-5.71zm-126.887-85.062c-.574-.145-2.932-.631-5.236-1.08l-28.496-5.942c-9.492-2.025-26.583-3.135-60.012-3.882-12.805-.29-15.041-.159-16.271.973-3.712 3.417-40.222 23.064-64.31 34.606l-15.74 7.564-42.661 19.909c-33.503 15.522-68.802 33.031-82.617 40.994-55.544 31.998-88.325 66.085-131.177 136.373-15.083 24.739-19.399 32.205-18.616 32.191.182-.003 4.947-5.397 10.592-11.979 27.816-32.463 62.404-62.776 106.178-93.059 46.058-31.877 87.282-54.611 158.117-87.211 5.239-2.411 45.758-19.264 55.138-22.936 19.111-7.478 52.132-19.284 70.552-25.21l13.287-4.392c3.482-1.317 36.485-11.07 44.662-13.198 7.092-1.852 9.235-3.058 6.611-3.721zm-36.155-712.016c-3.474-7.914-11.417-24.658-16.752-35.295l-10.43-20.924c-11.706-23.575-87.368-166.356-88.322-166.66-.55-.176-4.771.009-9.379.417-31.605 2.786-65.273 18.902-107.639 51.505-33.536 25.81-68.436 59.576-124.124 120.077-35.859 38.955-42.251 45.1-73.411 70.511-45.71 37.28-138.933 105.567-219.145 160.534-10.103 6.922-18.351 12.989-18.332 13.485.025.672 40.554 48.378 44.242 52.075.343.346 11.775-5.125 25.398-12.156l30.986-15.768 13.664-6.623c13.502-6.59 18.091-8.703 30.136-13.839 6.545-2.795 12.232-4.89 12.627-4.654 1.631.961 6.34 18.098 11.866 43.196l9.68 47.007 2.75 14.018 2.764 14.021c3.367 16.492 4.222 22.342 3.38 23.056-1.058.896-21.123 9.255-37.382 15.559l-17.833 6.99c-22.053 8.795-80.958 29.873-102.09 36.525-13.324 4.2-13.434 4.259-12.908 6.762.843 4.02 1.508 10.383 2.653 25.476 1.939 25.404.166 58.088-5.146 94.939-.847 5.856-1.348 10.832-1.118 11.051.632.6 40.397-8.802 72.923-17.25 90.604-23.515 163.199-55.696 219.909-97.476 34.379-25.326 67.509-58.547 107.703-107.994 32.013-39.38 63.385-82.99 113.971-158.404 35.485-52.906 42.531-62.574 54.725-75.08 14.007-14.378 22.955-21.49 63.266-50.302 13.736-9.815 23.806-18.041 23.612-19.297-.046-.303-1.051-2.774-2.243-5.481zm-88.068-3.588c-2.413 18.818-8.016 34.397-17.878 49.715-5.142 7.974-21.198 24.545-28.733 29.643-24.373 16.494-52.01 23.422-79.228 19.852-24.034-3.149-44.432-12.494-62.007-28.414-15.905-14.41-27.225-32.769-32.719-53.073-4.559-16.86-5.215-32.251-2.071-49.006 5.71-30.518 22.999-56.375 49.269-73.696 9.964-6.565 24.185-12.388 37.926-15.518 11.226-2.562 29.933-3.041 41.481-1.068 48.017 8.217 84.696 44.447 93.068 91.942 1.473 8.358 1.878 21.897.892 29.623zm-14.077 684.541C32.282 529.66-15.098 470.181-28.265 391.68c-1.933-11.503-3.877-31.562-4.066-42.006-.404-21.767 2.34-51.841 6.948-76.239 1.209-6.395 2.067-11.758 1.899-11.924-.158-.163-6.11 5.286-13.223 12.112-56.802 54.48-117.981 92.881-175.44 110.114-4.793 1.441-9.931 2.885-11.414 3.215s-2.888.914-3.12 1.303 1.97 2.812 4.888 5.385c11.652 10.273 31.154 29.597 37.258 36.919 19.602 23.515 28.206 42.327 28.556 62.404.359 20.542-8.127 38.285-27.164 56.772-13.905 13.502-18.267 16.056-33.694 19.725-9.902 2.351-30.593 3.502-40.383 2.241-36.906-4.761-65.553-30.81-75.798-68.926-1.585-5.901-1.949-9.562-2.159-21.588-.223-13.174-.053-15.22 1.882-22.743 1.166-4.548 3.373-11.001 4.902-14.337s2.769-6.345 2.764-6.673c-.017-.925-5.537 4.709-18.79 19.165-41.542 45.314-78.511 93.847-103.78 136.223-11.359 19.065-24.71 44.972-23.859 46.295.263.397 4.515 2.565 9.453 4.805 65.26 29.664 119.209 76.133 158.796 136.802l7.773 12.218c.004.183 1.215 2.282 2.695 4.663 9.345 15.065 24.236 46.266 33.308 69.8.827 2.147 1.78 3.899 2.124 3.893s1.438-2.348 2.435-5.212c3.019-8.662 12.745-35.019 13.911-37.69.6-1.378 2.159-5.318 3.48-8.752 15.505-40.595 37.711-78.724 60.429-103.788 35.792-39.494 85.89-64.348 148.538-73.706 6.058-.906 7.704-1.431 7.686-2.464-.058-3.335-18.888-52.636-25.188-65.954l-5.653-12.239c-8.158-17.827-26.239-52.886-32.49-62.987-1.473-2.381-2.685-4.498-2.689-4.697-.015-.85-16.269-26.17-22.577-35.166-8.009-11.428-14.109-18.898-21.805-26.701-4.709-4.777-5.348-5.758-4.352-6.728 3.37-3.297 56.892-37.971 57.789-37.443.566.334 1.494 2.597 6.041 14.761 22.671 60.636 51.382 117.962 76.022 151.782 17.504 24.025 34.853 40.351 51.028 48.02 9.158 4.344 9.455 4.319 18.42-1.473 15.158-9.803 38.323-22.217 47.116-25.25 2.037-.704 3.823-1.664 3.98-2.14.151-.468-5.906-3.732-13.463-7.253zM73.127-144.577c-4.011-18.936-17.059-35.455-34.15-43.23-10.547-4.799-18.375-6.229-30.139-5.507-15.434.941-27.234 6.012-38.412 16.512-19.745 18.55-24.583 47.976-11.891 72.355 7.798 14.98 22.92 26.59 40.157 30.848 7.484 1.848 22.778 1.605 30.055-.481 26.437-7.562 44.461-30.319 45.358-57.272.145-4.436-.249-9.791-.977-13.225zM-197.755 470.52c-2.403-8.454-6.329-14.81-13.18-21.373-12.368-11.854-27.971-15.954-44.034-11.585-8.919 2.428-15.737 6.402-21.993 12.819-9.066 9.301-13.319 19.977-13.11 32.916.346 21.765 15.663 40.226 37.231 44.867 7.155 1.54 14.214 1.302 21.708-.733 7.55-2.06 11.078-3.847 17.601-8.907 13.965-10.829 20.611-31.058 15.777-48.004z" stroke="#fff" stroke-width="2" mask="url(#A)"/></svg>