<svg xmlns="http://www.w3.org/2000/svg" width="90" height="134" fill="#cecece" xmlns:v="https://vecta.io/nano"><path d="M27.634 59.081l.403 1.518 1.17 3.197c.736 1.913 2.547 2.921 4.211 4.065 1.499 1.028 1.5 1.142-.132 1.822l-8.061 3.234c-1.623.717-3.136 1.65-4.631 2.572-.319.195-.529.765-.503 1.145.106 1.388 1.25 2.293 2.221 3.171 6.008 5.422 11.246 11.367 15.586 17.977 3.698 5.629 8.611 10.312 14.406 14.241 1.43.97 1.455 2.912-.062 3.803s-3.206 1.555-4.754 2.407c-5.72 3.171-10.913 6.988-16.115 10.792l-4.858 3.643c-.32.239-.718.385-1.081.574l-.222-.164c.12-.322.218-.652.367-.957 1.569-3.278 3.241-6.519 4.692-9.839 1.342-3.071 1.174-6.287.619-9.496-.198-1.147-.274-2.311-.488-3.455-.595-3.179-2.071-6.054-3.837-8.824-.591-.926-1.138-1.876-1.928-2.772a4.7 4.7 0 0 0 .144.637l.934 2.497c.048.132-.049.305-.079.46-.192-.051-.475-.045-.56-.159-2.495-3.408-6.506-4.984-10.222-6.907-1.334-.69-2.712-1.315-4.074-1.956a8.57 8.57 0 0 1-4.312-4.446c-.033-.084-.084-.161-.15-.226s-.147-.118-.236-.154l-.191 1.648-.303.038-.294-.615c-.407-.879-.662-1.858-1.246-2.622-2.654-3.433-4-7.166-4.046-11.389-.036-3.521.55-6.818 2.614-9.858 1.875-2.75 4.651-4.543 7.698-6.098 1.913-.974 3.747-2.073 5.62-3.109a1.66 1.66 0 0 1 .376-.103l-.177-.239h-1.299a6.64 6.64 0 0 1 .541-.512c1.914-1.376 3.956-2.63 5.728-4.145 3.514-3.004 3.67-7.274.529-10.609-1.081-1.148-2.276-2.202-3.918-2.709-.07-.021-.11-.12-.265-.306.318-.082.562-.213.794-.195 1.778.134 3.566.23 5.321.5.415.065.89.698 1.033 1.149.423 1.332.794 1.628 2.277 1.606.287 0 .74.206.847.426 1.019 2.068 2.093 4.124 2.911 6.258.529 1.365.202 2.805-.529 4.122a1.53 1.53 0 0 0-.224.468c-.38 2.611-2.342 4.284-4.244 6.033-1 .921-1.86 1.994-2.633 3.086-1.045 1.474-1.963 3.02-2.89 4.56-.413.69-.185.973.688 1.038 2.117.155 3.2-.494 4.234-2.553l1.795-3.558a6.11 6.11 0 0 1 .492-.702l.312-.009zm32.12 40.784c-1.985-.957-4.045-.502-6.086-.387-.243.014-.636-.253-.741-.478-.294-.623-.455-1.296-.701-1.939l-1.795-4.543a.76.76 0 0 0-.603-.336l-5.366.923c-.614.105-.562.495-.404.844l1.412 2.869c.831 1.593.83 1.572-.782 2.597-1.303.828-1.13.772-1.974-.323-2.424-3.142-4.721-6.373-7.314-9.395-1.72-2.006-3.879-3.706-5.821-5.56-1.512-1.44-3.087-2.836-4.438-4.4-.646-.745-.919-1.793-1.191-2.739-.086-.299.284-.918.622-1.069l10.188-4.408c.638-.275 1.032.128 1.216.508.968 1.992 2.805 3.348 4.439 4.796 1.756 1.554 3.849 2.799 5.847 4.113 1.953 1.284 4.049 2.398 5.938 3.751 1.686 1.208 2.739 2.921 3.829 4.591 1.526 2.337 2.17 4.942 3.011 7.49.318.957.609 1.931.912 2.897l-.196.199zm-20.663-19.88c.02-2.645-2.19-4.792-4.956-4.815s-5.038 2.107-5.067 4.724 2.203 4.782 4.967 4.82 5.036-2.098 5.057-4.729zM35.63 56.102c.581 2.374 1.141 4.602 3.198 6.483l.781-2.024a29.54 29.54 0 0 0 .728-3.168c.275-1.725-.086-3.348-1.351-4.711-.417-.451-.492-.819-.208-1.37l2.631-5.349.304-.096c.311.478.721.922.926 1.435 1.073 2.785 2.35 5.545 2.404 8.543.04 2.261-.139 4.529-.332 6.785-.053.605-.042.856.68.823 1.915-.087 3.717-.471 5.276-1.541a5.38 5.38 0 0 1 .566-.269c.189.776.458 1.473.515 2.186.225 2.771.957 5.451 1.94 8.054.808 2.138 2.694 3.495 4.878 4.517.718.352 1.51.564 2.325.624a6.45 6.45 0 0 0 2.405-.279 4.05 4.05 0 0 0 2.282-1.633c.407-.573 1.138-.957 1.852-1.315-.954 2.264-1.794 4.519-4.434 5.726-1.499.685-2.944.889-4.526.478l-3.612-.956c-3.162-.875-4.865-3.086-6.14-5.619-.699-1.392-1.171-2.869-1.84-4.279a6.32 6.32 0 0 0-1.323-1.839c-.603-.57-1.04.212-1.531.397-.181.068-.363.546-.273.729 1.962 3.99 4.431 7.692 7.826 10.836.529.493.692.806.124 1.389-1.136 1.171-1.103 1.209-2.397.17-3.653-2.932-6.942-6.135-9.706-9.804-1.852-2.457-4.102-4.663-6.166-6.988-.04-.044-.085-.082-.132-.127-1.868-2.04-1.905-2.058-.505-4.377.614-1.018 1.402-1.949 2.137-2.904.138-.193.394-.305.697-.523zm19.029 15.634c.32-.035.654-.138.959-.092 1.748.263 3.355-.239 4.965-.709.325-.107.615-.285.845-.518.123-.12.175-.495.079-.574-1.58-1.281-2.239-3.049-3.148-4.871l-.965.837-1.93 1.746c-.48.429-.857.318-1.028-.239l-1.889-6.313c-.15-.512-.239-1.037-.386-1.686l-3.511 1.831a10.51 10.51 0 0 1-1.01.393c-.098-.338-.255-.672-.284-1.015l-.351-4.59c-.061-.622.132-.992.761-1.296l4.157-2.169c4.202-2.213 7.679-5.393 10.076-9.217.177-.282.419-.532.713-.899 1.298 1.528 2.096 3.086 2.141 4.902.007.226-.265.496-.484.683l-7.488 6.475c-.367.325-.576.913-.617 1.397a14.51 14.51 0 0 0 .132 3.278c3.301-3.009 5.614-6.779 9.459-9.415.124.239.299.445.344.674.313 1.563.164 2.971-1.191 4.218-3.6 3.329-2.392 9.398 2.169 11.191.229.09.529.092.701.228.265.202.626.484.632.739.071 3.155-1.269 5.72-4.019 7.695-1.835 1.315-4.561 1.483-6.454.262-1.23-.795-2.36-1.718-3.535-2.584l.156-.362z"/><path d="M56.619 48.851l-1.875-3.489c-.31-.64-.542-.837-1.264-.337-1.971 1.358-1.997 1.328-.759 3.238.317.49.59 1.01.967 1.459.449.535.201.794-.331 1.052l-5.536 2.728c-.529.268-.863.132-1.199-.258-1.598-1.848-2.551-3.966-3.06-6.236-.706-3.15-1.771-6.199-2.987-9.206l-.098-.239c-.629-1.189-.626-1.186.706-1.913l2.318-1.303c.598-.393.926-.259 1.271.259l2.862 4.138 1.778-1.135c.124-.097.061-.518-.057-.723l-2.096-3.421c-.28-.426-.201-.649.218-.905l5.049-3.128c.445-.282.769-.279 1.137.086l4.325 4.248 2.949 3.318a26.38 26.38 0 0 1 1.938 2.798.97.97 0 0 1 .088.469.98.98 0 0 1-.148.456l-5.717 7.392-.482.652zm32.185 36.037c-.172-.257-.302-.551-.529-.764-.851-.813-1.656-1.689-2.634-2.355-.409-.279-1.323-.286-1.805-.065-.703.322-.834 1.125-.455 1.734.546.841 1.179 1.634 1.889 2.368.46.491 1.119.827 1.588 1.315.157.163.146.668-.017.843l-2.367 2.311c-.423.428-.807.257-1.261.076-4.135-1.656-6.852-4.592-8.576-8.222-1.842-3.876-3.44-7.855-4.969-11.836-.43-1.114-.291-2.412-.368-3.629.008-.108.046-.212.108-.304s.149-.169.251-.224c1.093-.385 2.207-.717 3.358-1.086.838 3.914 1.058 8.098 4.042 11.411l.341-.063c.168-.653.265-1.329.529-1.954a12.62 12.62 0 0 1 1.131-2.126c.122-.187.605-.34.848-.277l9.287 2.524c.333.096.738.586.748.901.057 2.101.106 4.207-.033 6.301-.07 1.046-.542 2.068-.833 3.103l-.273.018zM60.2 94.496l2.149.258c2.473.335 3.941-.907 4.08-2.63.037-.452.183-.91.132-1.353-.085-.837-.057-1.816-1.058-2.225-1.262-.515-2.621-.956-3.916-.045l-2.489 1.948c-.479.4-.737.417-1.016-.178l-2.092-4.185c-.389-.686-.983-1.285-1.529-1.891l-2.002-2.062c6.439.265 12.111-.427 14.918-6.514.603.9 1.168 1.674 1.63 2.486.111.197-.036.607-.209.827-1.248 1.577-3.076 2.477-4.94 3.302-1.294.572-2.646 1.04-3.969 1.566-.397.157-.769.359-1.252.579.468.691.86 1.329 1.334 1.913.091.112.606.11.755-.012 1.999-1.622 4.469-2.502 6.819-3.567.728-.329 1.508-.559 2.269-.825.542-.188.802-.01.896.515.827 4.625 3.904 7.459 8.714 8.913.623.189 1.229.429 1.84.652a2.75 2.75 0 0 1 .365.227c-.303.193-.488.38-.717.446-4.276 1.228-7.332 3.826-9.801 7.095a4.23 4.23 0 0 0-.288.439c-.733 1.26-.836 1.39-2.132.548-2.796-1.817-5.474-3.78-8.194-5.691-.091-.066-.122-.22-.296-.536zM30.431 19.622l1.163-4.424c1.225-3.317 3.093-6.314 5.821-8.833 2.313-2.132 5.041-3.766 7.938-5.116C46.738.611 48.358.321 49.909.081c1.191-.184 2.446.013 3.668-.057 1.932-.11 3.521.641 5.077 1.511.132.077.201.253.3.384-.168.096-.327.258-.504.277-5.443.566-8.864 3.572-11.246 7.731-1.397 2.439-2.006 5.088-1.479 7.82.21 1.088.851 2.119 1.375 3.142a14.45 14.45 0 0 0 1.285 1.98c.32.434.265.66-.235.942-1.564.886-1.273.879-2.064-.453-.995-1.674-1.925-3.373-2.987-5.006-.558-.856-.529-1.732-.478-2.63.038-.631-.19-.882-.9-.852a31.88 31.88 0 0 1-2.638 0c-.633-.025-1.011.154-1.152.744a5.11 5.11 0 0 1-.453 1.204c-.156.293-.362.668-.654.779-2.01.77-4.049 1.479-6.077 2.208l-.315-.183zM43.949 5.846c-1.51.973-2.911 1.829-3.675 3.366-.728 1.467-.759 1.518 1.016 1.529a2.65 2.65 0 0 0 1.002-.187c.246-.106.438-.292.539-.521.429-1.236.814-2.486 1.203-3.733.026-.091-.034-.203-.083-.454zm32.898 66.422l-.479-1.508-1.921-6.319c-.213-.659-.087-1.196.225-1.793a6.93 6.93 0 0 0-1.297-8.112c-1.004-.972-2.249-1.569-3.705-1.667-1.08-.073-1.408-.755-1.994-1.573l4.366-.352a21.34 21.34 0 0 1 3.66.256c.835.13 1.768.347 2.401.811a47.26 47.26 0 0 1 4.27 3.587c1.404 1.306 1.742 3.117 2.486 4.731l1.244 2.989-3.488-2.206-.302.23.284.98.708 2.383c.144.654.517 1.053 1.228 1.076 1.865.049 2.487 1.136 2.94 2.557.561 1.764 1.323 3.476 2.04 5.341-.352-.021-.599.013-.804-.057l-9.484-3.296c-.566-.201-.88-.081-1.133.385l-.951 1.631-.295-.073zm2.661-7.695c.109-.426.189-.548.155-.634l-2.183-5.318c-.099-.227-.521-.338-.892-.562l1.961 5.515c.12.319.517.552.959.998zm-33.237-38.41l3.068-2.187 2.674 4.286c.071.12-.191.506-.397.635l-6.643 4.03c-.569.346-.771 0-.994-.381l-5.517-9.292-1.985-3.283c-.286-.434-.234-.74.232-.881 1.253-.378 1.447-1.337 1.57-2.293.101-.784.507-1.106 1.343-1.076a6.12 6.12 0 0 0 .662-.056c1.232-.093 1.279-.031 1.306 1.056a3.1 3.1 0 0 0 .278 1.309l3.969 7.612c.086.167.249.302.434.521zm-3.569 7.076l-3.006 1.622c-.132.061-.623-.274-.77-.514l-3.963-6.666-3.657-6.136c-.356-.577-.295-.858.397-1.076a10.31 10.31 0 0 0 1.809-.717c.708-.387 1.035-.154 1.372.422l4.416 7.407 3.402 5.658zm25.987 37.932c1.547 3.577 2.778 7.174 4.631 10.499 1.863 3.348 4.27 6.456 7.608 8.858l-.197.239-3.219-1.722c-3.69-1.98-5.323-5.293-6.893-8.659-.775-1.663-1.778-3.252-2.401-4.957-.332-.905-.124-1.989-.057-2.989.029-.413.329-.812.529-1.27zM63.007 93.56c-1.221.016-2.326-.982-2.354-2.122s1.045-2.188 2.249-2.221c1.248-.035 2.408 1.009 2.411 2.169.001 1.139-1.081 2.16-2.306 2.175zM37.123 80.018c0 1.523-1.527 2.898-3.191 2.87s-3.083-1.334-3.108-2.87c-.026-1.554 1.437-2.899 3.143-2.898s3.156 1.339 3.156 2.898z"/></svg>