<svg width="90" height="134" viewBox="0 0 90 134" fill="none" xmlns="http://www.w3.org/2000/svg">
<path d="M27.6336 59.0808C27.7659 59.5877 27.8651 60.103 28.0371 60.5992C28.4063 61.6752 28.7992 62.7357 29.2067 63.7962C29.9423 65.7092 31.7536 66.7171 33.418 67.8613C34.917 68.8895 34.9184 69.0031 33.2857 69.6834C30.6158 70.7941 27.8612 71.7553 25.2243 72.9175C23.6009 73.6348 22.0887 74.5674 20.5936 75.4892C20.2748 75.6841 20.0644 76.2544 20.0908 76.6346C20.1967 78.0227 21.3411 78.9278 22.3123 79.8053C28.3203 85.2274 33.5583 91.1719 37.8979 97.7824C41.5958 103.411 46.5084 108.094 52.3034 112.023C53.7336 112.993 53.7587 114.935 52.2412 115.826C50.7236 116.718 49.0354 117.381 47.4874 118.233C41.7678 121.404 36.5748 125.221 31.3726 129.025C29.7359 130.22 28.1443 131.465 26.5143 132.668C26.1941 132.907 25.7959 133.053 25.4334 133.242L25.2111 133.078C25.3315 132.756 25.4294 132.426 25.5776 132.121C27.1467 128.843 28.8191 125.602 30.2691 122.282C31.6107 119.211 31.4427 115.995 30.8883 112.786C30.6899 111.639 30.6145 110.475 30.4001 109.331C29.8047 106.152 28.3295 103.277 26.5632 100.507C25.9718 99.5806 25.4254 98.6313 24.6356 97.7346C24.6687 97.9496 24.7169 98.1624 24.7798 98.3718C25.0867 99.2088 25.4188 100.033 25.7138 100.869C25.7615 101.001 25.6649 101.174 25.6345 101.329C25.4426 101.278 25.1595 101.284 25.0748 101.17C22.5795 97.7621 18.5693 96.1863 14.8529 94.2626C13.5192 93.5727 12.1406 92.9474 10.7792 92.3066C8.71122 91.3238 7.31936 89.8065 6.46731 87.8601C6.43476 87.7764 6.38373 87.6995 6.31732 87.6342C6.25091 87.5688 6.1705 87.5163 6.08098 87.4799L5.89045 89.1275L5.58747 89.1657L5.29375 88.5512C4.88625 87.6724 4.63223 86.6932 4.04743 85.9292C1.39338 82.4966 0.0478265 78.7628 0.0015194 74.5399C-0.0342032 71.0189 0.551912 67.7214 2.61588 64.6822C4.49066 61.9323 7.26644 60.1389 10.3134 58.5846C12.2266 57.6102 14.0603 56.5114 15.9338 55.476C16.0537 55.4274 16.1799 55.3928 16.3095 55.3732L16.1323 55.1341H14.833C15.0027 54.9545 15.1833 54.7836 15.3741 54.6224C17.2886 53.2462 19.3301 51.992 21.1017 50.4772C24.6157 47.4727 24.7718 43.2032 21.6309 39.8686C20.5499 38.7208 19.3552 37.6663 17.7133 37.1594C17.6432 37.1379 17.6035 37.0398 17.4487 36.8533C17.7662 36.7708 18.011 36.6405 18.2425 36.6584C20.0207 36.7923 21.8082 36.888 23.5639 37.1582C23.9793 37.2228 24.4543 37.8564 24.5972 38.3072C25.0206 39.6391 25.391 39.9356 26.8742 39.9129C27.1613 39.9129 27.6138 40.1185 27.7209 40.3385C28.7397 42.4069 29.814 44.4621 30.6317 46.5963C31.1609 47.9617 30.8341 49.4012 30.1024 50.7187C30.0006 50.8627 29.9251 51.0205 29.8788 51.1862C29.4991 53.7974 27.537 55.47 25.6345 57.2192C24.6342 58.1398 23.7742 59.2135 23.0016 60.3051C21.9564 61.7792 21.0382 63.3252 20.112 64.8651C19.6992 65.555 19.9268 65.8383 20.8 65.9029C22.9169 66.0583 24.0005 65.4091 25.0338 63.3503C25.6331 62.1642 26.2245 60.9734 26.8292 59.7921C26.9755 59.5484 27.1399 59.3139 27.3214 59.0903L27.6336 59.0808Z" fill="#CECECE"/>
<path d="M59.754 99.8645C57.7694 98.908 55.7094 99.3623 53.6679 99.4771C53.4245 99.4915 53.0316 99.2237 52.927 98.9989C52.6333 98.376 52.4719 97.7028 52.2258 97.0596C51.6437 95.54 51.0549 94.0204 50.4304 92.5163C50.3616 92.3525 50.007 92.1517 49.8271 92.1804C48.033 92.4637 46.2548 92.7949 44.4608 93.1034C43.8469 93.2086 43.8985 93.5983 44.0572 93.9475C44.4978 94.9159 44.9741 95.8724 45.4689 96.8169C46.2998 98.4095 46.2985 98.3891 44.687 99.4137C43.3838 100.242 43.5571 100.186 42.713 99.0909C40.2892 95.9489 37.9923 92.7184 35.3991 89.6959C33.6792 87.6897 31.5199 85.9895 29.5777 84.1363C28.0654 82.6968 26.491 81.3004 25.1401 79.7365C24.4945 78.9917 24.2206 77.9431 23.9494 76.9974C23.8634 76.6985 24.2338 76.0792 24.5712 75.9285C27.945 74.4209 31.3572 72.9814 34.7588 71.5203C35.3965 71.2454 35.7908 71.6483 35.9747 72.0285C36.9431 74.0204 38.7795 75.3762 40.4135 76.824C42.1692 78.3783 44.2623 79.6229 46.2601 80.9369C48.213 82.221 50.3087 83.3353 52.198 84.6875C53.8836 85.8951 54.9368 87.6084 56.027 89.2786C57.5525 91.616 58.1968 94.2201 59.0382 96.7691C59.3558 97.7256 59.6469 98.7 59.9498 99.666L59.754 99.8645ZM39.0905 79.9852C39.1103 77.3405 36.9008 75.1932 34.1343 75.1705C31.3678 75.1478 29.0961 77.2772 29.067 79.8943C29.0379 82.5115 31.2699 84.6768 34.0337 84.7138C36.7976 84.7509 39.0693 82.6155 39.0905 79.9852Z" fill="#CECECE"/>
<path d="M35.6301 56.1015C36.2109 58.476 36.7706 60.7034 38.8279 62.5841C39.1389 61.7914 39.4352 61.19 39.6085 60.5599C39.9096 59.5155 40.1525 58.458 40.3362 57.3916C40.6114 55.6663 40.2502 54.0439 38.9854 52.6809C38.5686 52.2301 38.4932 51.8619 38.7777 51.3107C39.6932 49.5436 40.5373 47.7466 41.4092 45.9616L41.7135 45.866C42.0244 46.3442 42.4346 46.7878 42.6397 47.3007C43.7127 50.0852 44.9894 52.8459 45.0437 55.8433C45.0834 58.1041 44.9047 60.3722 44.7116 62.6283C44.6587 63.2333 44.6692 63.4844 45.3916 63.4509C47.3061 63.3636 49.1081 62.9798 50.668 61.9097C50.8504 61.8096 51.0395 61.7197 51.2343 61.6407C51.4235 62.4167 51.692 63.1137 51.7489 63.8263C51.9738 66.5977 52.7055 69.277 53.6885 71.8799C54.4969 74.0176 56.3823 75.3746 58.5666 76.3969C59.285 76.7488 60.0768 76.9612 60.8914 77.0205C61.7059 77.0798 62.5251 76.9846 63.2966 76.7412C64.2981 76.4459 65.0007 75.921 65.5788 75.108C65.9863 74.5353 66.7167 74.1515 67.4311 73.7928C66.4772 76.0573 65.6371 78.3122 62.9976 79.5186C61.4985 80.2037 60.0538 80.4081 58.4714 79.9968C57.2661 79.6824 56.0594 79.3703 54.8594 79.0403C51.6973 78.1651 49.9945 75.9545 48.7191 73.421C48.0205 72.0293 47.5482 70.5516 46.8787 69.1419C46.5592 68.4642 46.1115 67.842 45.5557 67.3031C44.9524 66.7328 44.5158 67.5147 44.0249 67.7C43.8436 67.7682 43.6624 68.2464 43.7524 68.4294C45.7145 72.4191 48.1833 76.1219 51.5782 79.2651C52.1075 79.7577 52.2702 80.0709 51.7026 80.6544C50.5661 81.8249 50.5992 81.8632 49.3052 80.8242C45.6523 77.8926 42.3631 74.6895 39.5993 71.0202C37.747 68.5633 35.4978 66.3574 33.4338 64.0319C33.3941 63.9877 33.3492 63.9494 33.3015 63.9052C31.4334 61.8655 31.3963 61.8476 32.7961 59.5281C33.41 58.5106 34.1986 57.5793 34.9329 56.624C35.0705 56.4315 35.3271 56.3191 35.6301 56.1015Z" fill="#CECECE"/>
<path d="M54.6585 71.7359C54.9787 71.7012 55.3121 71.5984 55.6177 71.6439C57.3655 71.9069 58.973 71.4047 60.5832 70.9349C60.9078 70.8278 61.1982 70.6499 61.4286 70.4172C61.5517 70.2976 61.6033 69.9222 61.508 69.8433C59.9283 68.5628 59.2694 66.7945 58.3604 64.9724C57.99 65.2952 57.6883 65.5511 57.3959 65.8093C56.7503 66.3892 56.1139 66.9774 55.4656 67.5549C54.9853 67.9841 54.6083 67.8729 54.4376 67.3158C53.7919 65.2155 53.1621 63.1112 52.5482 61.003C52.3987 60.4913 52.3088 59.9664 52.1619 59.3172C50.9037 59.976 49.7804 60.5714 48.6505 61.1477C48.3223 61.2955 47.9853 61.4269 47.641 61.541C47.5431 61.2026 47.3857 60.8691 47.3566 60.5259C47.2243 58.9968 47.1541 57.464 47.006 55.936C46.9451 55.3143 47.1383 54.9437 47.7667 54.64C49.1758 53.9561 50.5451 53.2053 51.9238 52.4712C56.1259 50.2587 59.603 47.0781 62.0002 43.2542C62.1775 42.9721 62.4196 42.7222 62.7133 42.3552C64.0112 43.8831 64.809 45.441 64.854 47.2571C64.8606 47.4831 64.5894 47.7533 64.3698 47.9398C61.8732 50.0919 59.3422 52.2261 56.8813 54.4152C56.5148 54.7404 56.3057 55.3286 56.2647 55.8117C56.1847 56.9057 56.229 58.0042 56.397 59.09C59.6981 56.0807 62.0108 52.3109 65.8556 49.6746C65.9799 49.9138 66.1546 50.1194 66.1996 50.349C66.5131 51.9116 66.3636 53.32 65.0088 54.567C61.4088 57.8956 62.6167 63.9645 67.1773 65.7579C67.4062 65.8476 67.7065 65.85 67.8785 65.9863C68.1432 66.1883 68.5043 66.4705 68.511 66.7251C68.5815 69.8799 67.2417 72.4449 64.4915 74.42C62.6564 75.7352 59.9309 75.9026 58.0376 74.6819C56.8072 73.8868 55.6773 72.9638 54.5024 72.0982L54.6585 71.7359Z" fill="#CECECE"/>
<path d="M56.6191 48.8508C55.9033 47.5356 55.2788 46.4595 54.7443 45.362C54.4347 44.7223 54.2019 44.5251 53.4808 45.0248C51.5094 46.383 51.4843 46.3531 52.7214 48.2625C53.0389 48.7527 53.3114 49.2728 53.6885 49.7211C54.137 50.2556 53.8896 50.515 53.3577 50.7733C51.5055 51.6724 49.6532 52.5739 47.8221 53.5016C47.2928 53.7695 46.9594 53.6332 46.6234 53.2434C45.0251 51.395 44.0725 49.2776 43.5631 47.0071C42.8566 43.8567 41.7916 40.8079 40.5757 37.801C40.5439 37.7209 40.5175 37.6372 40.4778 37.5619C39.8493 36.3734 39.852 36.3758 41.1843 35.6489C41.9636 35.2245 42.772 34.8287 43.5023 34.3457C44.1003 33.9524 44.4284 34.0863 44.7737 34.6051C45.6853 35.9586 46.626 37.2929 47.6355 38.7431C48.2706 38.351 48.8832 38.0258 49.4137 37.6085C49.5381 37.5117 49.4746 37.0908 49.3568 36.8852C48.686 35.7314 48.0007 34.5836 47.2611 33.4645C46.9806 33.0389 47.06 32.8153 47.4794 32.5595C49.1703 31.5277 50.8585 30.4911 52.5282 29.4318C52.9727 29.1496 53.2969 29.1532 53.6647 29.5179C55.1029 30.937 56.5847 32.3204 57.9898 33.7658C59.0257 34.8299 60.0114 35.9406 60.9389 37.0836C61.6484 37.9791 62.2958 38.9134 62.8772 39.8813C62.9455 40.0296 62.9757 40.1899 62.9653 40.3502C62.955 40.5106 62.9045 40.6667 62.8176 40.8067C60.9375 43.2816 59.0099 45.7362 57.1007 48.1992C56.979 48.3558 56.8638 48.5184 56.6191 48.8508Z" fill="#CECECE"/>
<path d="M88.8039 84.888C88.6319 84.631 88.5022 84.3368 88.2746 84.124C87.4239 83.311 86.6182 82.4346 85.6404 81.7687C85.2316 81.4901 84.3174 81.4829 83.8358 81.7041C83.1332 82.0257 83.0022 82.8292 83.3806 83.4378C83.9266 84.2792 84.5592 85.0722 85.27 85.8062C85.7304 86.2976 86.3893 86.6336 86.8576 87.1214C87.0151 87.284 87.0032 87.7897 86.8404 87.9643C86.0942 88.7666 85.2528 89.4935 84.4735 90.2754C84.0501 90.7034 83.6664 90.5325 83.2126 90.3519C79.078 88.696 76.3605 85.7596 74.6365 82.1298C72.7948 78.2536 71.1966 74.2747 69.6671 70.2933C69.2371 69.179 69.376 67.8818 69.2993 66.6647C69.3078 66.5569 69.345 66.4526 69.4077 66.3606C69.4703 66.2686 69.5566 66.1917 69.6592 66.1362C70.752 65.7512 71.866 65.4188 73.0171 65.0506C73.8546 68.965 74.0755 73.1484 77.059 76.4614L77.4004 76.398C77.5684 75.7452 77.665 75.0685 77.9296 74.4444C78.2353 73.7066 78.6139 72.9951 79.0608 72.3187C79.1826 72.1321 79.6655 71.9791 79.9089 72.0413C83.0155 72.8483 86.1167 73.6781 89.1955 74.5652C89.5289 74.6608 89.9338 75.151 89.943 75.4667C89.9999 77.5674 90.0489 79.674 89.9099 81.7675C89.8398 82.8137 89.3675 83.8359 89.0764 84.8701L88.8039 84.888Z" fill="#CECECE"/>
<path d="M60.2001 94.4957C61.0641 94.5985 61.7084 94.6679 62.3488 94.754C64.8216 95.0887 66.2902 93.8465 66.4291 92.1236C66.4661 91.6717 66.6117 91.2138 66.5614 90.7702C66.4767 89.9333 66.5045 88.9541 65.503 88.5452C64.2408 88.0299 62.882 87.5887 61.5867 88.4998C60.7241 89.1107 59.9024 89.7731 59.098 90.4474C58.6191 90.8479 58.3611 90.8647 58.0819 90.2692C57.4204 88.8596 56.7588 87.4488 55.9901 86.0846C55.6012 85.3984 55.0071 84.7994 54.4607 84.1932C53.8613 83.5272 53.2091 82.8996 52.4589 82.1308C58.8982 82.3962 64.5702 81.704 67.3764 75.6171C67.9797 76.5174 68.5447 77.291 69.0064 78.1028C69.1176 78.3001 68.9707 78.7102 68.7974 78.9302C67.5497 80.5072 65.7213 81.4074 63.8571 82.2324C62.5631 82.8039 61.2109 83.2726 59.8879 83.7986C59.491 83.9553 59.1192 84.1573 58.6363 84.3773C59.1046 85.0684 59.4963 85.7068 59.9699 86.2903C60.0612 86.4027 60.5759 86.4003 60.7254 86.2783C62.7245 84.6559 65.1947 83.7759 67.5444 82.7118C68.2721 82.383 69.0527 82.1523 69.8135 81.8869C70.3559 81.6992 70.6153 81.8773 70.7092 82.4022C71.5361 87.0268 74.6136 89.8615 79.4229 91.3154C80.046 91.5043 80.652 91.7446 81.2633 91.967C81.3916 92.0336 81.5137 92.1096 81.6284 92.1942C81.3254 92.3867 81.1402 92.5744 80.9113 92.6401C76.6352 93.868 73.5789 96.466 71.1101 99.7348C71.0046 99.8759 70.9083 100.022 70.8217 100.174C70.0887 101.434 69.9855 101.564 68.6902 100.722C65.8946 98.9051 63.2167 96.9419 60.4965 95.0313C60.4052 94.9656 60.3748 94.8113 60.2001 94.4957Z" fill="#CECECE"/>
<path d="M30.4309 19.622C30.8106 18.1454 31.066 16.633 31.5939 15.1983C32.819 11.8817 34.6872 8.88428 37.4153 6.36514C39.728 4.23338 42.4562 2.59899 45.3537 1.24916C46.7376 0.610706 48.3584 0.32137 49.909 0.0810535C51.0997 -0.103069 52.3553 0.0942051 53.5765 0.0236646C55.5082 -0.0863309 57.0972 0.664508 58.6531 1.53491C58.7854 1.61143 58.8542 1.78837 58.9534 1.9187C58.7854 2.01434 58.6266 2.17695 58.4493 2.19608C53.0063 2.7616 49.5848 5.76854 47.2033 9.92685C45.8062 12.3659 45.1976 15.0153 45.7241 17.7473C45.9345 18.8353 46.5749 19.8659 47.0988 20.8893C47.4693 21.5785 47.8988 22.2405 48.3835 22.8692C48.7037 23.3033 48.6481 23.5292 48.148 23.8114C46.5841 24.6973 46.8752 24.6902 46.084 23.3582C45.0891 21.6844 44.159 19.9855 43.0966 18.3523C42.5382 17.4962 42.5673 16.6198 42.6189 15.7219C42.6573 15.0907 42.4284 14.8396 41.7192 14.8695C40.8407 14.9065 39.9583 14.9053 39.0811 14.8695C38.4486 14.8444 38.0702 15.0237 37.9287 15.6131C37.8303 16.029 37.6784 16.4331 37.4762 16.8171C37.3201 17.11 37.1137 17.4854 36.8226 17.5966C34.8129 18.3666 32.774 19.0756 30.7458 19.8049L30.4309 19.622ZM43.9486 5.84625C42.439 6.81947 41.0379 7.67552 40.2731 9.21187C39.5455 10.6789 39.5137 10.7303 41.2893 10.7411C41.634 10.7439 41.9754 10.6803 42.2908 10.5545C42.5366 10.4483 42.7289 10.2621 42.8293 10.0333C43.258 8.797 43.643 7.54759 44.032 6.30058C44.0584 6.20971 43.9976 6.09733 43.9486 5.84625Z" fill="#CECECE"/>
<path d="M76.8474 72.2684C76.6873 71.7663 76.5206 71.2653 76.3684 70.7608C75.7307 68.6541 75.1247 66.5391 74.4473 64.442C74.2343 63.7832 74.36 63.2464 74.6723 62.6486C76.076 59.9979 75.5243 56.6156 73.3757 54.5364C72.3715 53.5644 71.1265 52.9678 69.6711 52.8698C68.5915 52.7968 68.2633 52.1153 67.6772 51.2963C69.2649 51.1612 70.6515 50.9687 72.0433 50.9448C73.2694 50.9253 74.4948 51.011 75.7029 51.2007C76.5378 51.331 77.4705 51.5474 78.1043 52.0113C79.6052 53.129 81.031 54.3267 82.3738 55.5981C83.7776 56.9037 84.1163 58.7151 84.8598 60.3291C85.2978 61.2856 85.6656 62.26 86.1035 63.3181L82.6159 61.1122L82.3143 61.3418C82.4095 61.6694 82.4995 61.9958 82.5987 62.3222C82.8382 63.1161 83.1279 63.9004 83.3066 64.705C83.4508 65.359 83.8239 65.7584 84.5344 65.7811C86.3999 65.8301 87.0217 66.9169 87.4742 68.3385C88.0352 70.102 88.7973 71.8141 89.5144 73.6792C89.1624 73.6577 88.915 73.6924 88.7099 73.6218C85.5439 72.5338 82.3791 71.4434 79.2262 70.3256C78.66 70.1247 78.3464 70.2443 78.0937 70.7105C77.7947 71.2629 77.4613 71.7985 77.1424 72.3413L76.8474 72.2684ZM79.508 64.5735C79.6165 64.1479 79.6972 64.0259 79.6628 63.9398C78.951 62.162 78.2445 60.3805 77.4798 58.6218C77.3806 58.3946 76.9585 58.2834 76.5881 58.0599C77.288 60.0517 77.8847 61.8248 78.5488 63.5752C78.6692 63.8944 79.0661 64.1276 79.508 64.5735Z" fill="#CECECE"/>
<path d="M46.2706 26.1631L49.3388 23.9763C50.2808 25.4649 51.1765 26.8458 52.0127 28.2626C52.0841 28.3821 51.8222 28.7683 51.6158 28.8975C49.4129 30.2557 47.1862 31.584 44.9727 32.9278C44.4038 33.2734 44.2013 32.9278 43.9791 32.5464C42.1427 29.4474 40.3036 26.35 38.4619 23.2542C37.8083 22.1554 37.1838 21.0423 36.4773 19.9711C36.1915 19.5371 36.2431 19.231 36.7089 19.0899C37.9618 18.7121 38.1563 17.7532 38.2793 16.7968C38.3799 16.0124 38.7861 15.6908 39.6222 15.7207C39.8438 15.7139 40.0647 15.6952 40.2838 15.6645C41.5155 15.5713 41.5632 15.6334 41.5896 16.7202C41.5853 17.169 41.6797 17.614 41.8675 18.0294C43.1641 20.5784 44.503 23.1095 45.8366 25.6418C45.9226 25.8092 46.0854 25.9443 46.2706 26.1631Z" fill="#CECECE"/>
<path d="M42.702 33.2394C41.678 33.8073 40.7174 34.3776 39.696 34.8618C39.5637 34.9228 39.0729 34.5881 38.926 34.3477C37.5831 32.1371 36.2799 29.9061 34.9634 27.6822C33.7515 25.6342 32.5608 23.5742 31.3065 21.5464C30.9506 20.9689 31.0115 20.688 31.7034 20.4704C32.3316 20.2872 32.9376 20.0468 33.512 19.753C34.2199 19.3656 34.5467 19.5988 34.8841 20.1751C36.3394 22.6523 37.8226 25.1165 39.3004 27.5818C40.4131 29.4434 41.5364 31.3025 42.702 33.2394Z" fill="#CECECE"/>
<path d="M68.6893 71.1705C70.236 74.7477 71.4677 78.3441 73.32 81.6691C75.1829 85.0167 77.5895 88.1253 80.9276 90.5273L80.7305 90.7664C79.6579 90.1949 78.5849 89.621 77.5115 89.0447C73.8214 87.0648 72.1888 83.7518 70.6183 80.3862C69.843 78.7231 68.8401 77.1341 68.217 75.4292C67.8849 74.5241 68.0926 73.4397 68.1601 72.4402C68.1892 72.0277 68.4895 71.6284 68.6893 71.1705Z" fill="#CECECE"/>
<path d="M63.0074 93.5599C61.7862 93.5754 60.6815 92.5783 60.6537 91.4377C60.6259 90.2971 61.6989 89.2497 62.9029 89.2163C64.1505 89.1816 65.3109 90.2254 65.3135 91.3851C65.3148 92.5245 64.2326 93.5456 63.0074 93.5599Z" fill="#CECECE"/>
<path d="M37.123 80.0175C37.123 81.5407 35.5961 82.9156 33.9317 82.887C32.2673 82.8583 30.849 81.5527 30.8239 80.0175C30.7974 78.4632 32.2607 77.1182 33.9674 77.1194C35.6742 77.1206 37.123 78.4584 37.123 80.0175Z" fill="#CECECE"/>
</svg>
