<svg xmlns="http://www.w3.org/2000/svg" width="564" height="931" fill="none" xmlns:v="https://vecta.io/nano"><path fill-rule="evenodd" d="M319.992.263l-8.702 1.132-3.31.574c-5.87 1.021-15.702 3.983-22.534 6.789-13.305 5.463-26.139 13.161-36.905 22.137-3.723 3.104-11.969 11.452-15.291 15.481-14.937 18.117-26.833 40.459-35.559 66.787-1.697 5.124-2.376 7.306-3.299 10.636l-.987 3.463c-.313 1.007-2.152 8.677-2.356 9.833-.092.51-.112.927-.047.927.113 0 1.128-.433 3.613-1.542l7.967-3.527 5.882-2.599 5.884-2.599 5.943-2.626 7.683-3.41 4.557-2.018 1.777-4.63 2.364-6.237c.322-.884 1.115-2.944 1.758-4.576l1.17-2.968h1.346c6.451 0 27.857.455 28.004.595.104.099.083 1.285-.046 2.637l-.506 6.167-.52 6.333c-.229 2.396-.21 2.696.216 3.463l1.642 3.067 1.846 3.463 1.56 2.906 1.718 3.216 5.059 9.461 5.816 10.884 6.073 11.379c1.792 3.386 1.465 3.241 4.24 1.872l5.132-2.491c1.517-.726 2.757-1.418 2.757-1.539s-.93-1.521-2.067-3.112c-7.569-10.591-13.085-23.324-15.685-36.207-.86-4.253-1.605-11.542-1.605-15.663 0-3.862.659-10.532 1.467-14.841 1.825-9.737 6.231-20.792 13.131-32.946 11.439-20.148 26.463-34.114 44.468-41.335 7.105-2.85 14.235-4.605 22.305-5.492 3.514-.386 3.478-.365 2.324-1.388-5.635-4.995-16.008-9.182-26.621-10.745-6.269-.923-16.39-1.255-21.662-.711zm-41.301 38.011c.001.102-1.089 3.525-2.419 7.606l-2.967 9.276-.877 2.881c-1.357 4.184-3.298 12.99-3.298 14.955v1.21h-2.635c-6.024-.001-18.442-.34-18.715-.511-.312-.194-.279-.375.804-4.312 3.974-14.468 14.586-25.995 28.439-30.894 1.192-.421 1.666-.481 1.668-.211zm-22.562 71.639c-.063.06-2.76.233-5.995.385s-6.296.339-6.799.416c-1.04.159-1.021.113-1.905 4.427l-.732 3.463-1.43 6.548-.668 3.085-5.429 2.728-5.593 2.897c-.092.093.38 1.15 1.046 2.35l2.024 3.664 3.063 5.566 2.996 5.442 5.706 10.389 5.638 10.265 7.474 13.605 7.477 13.605 5.576 10.141 5.364 9.77c2.629 4.9 5.87 10.636 6.006 10.636.094 0 4.068-2.688 8.832-5.975l21.285-14.673 15.524-10.78c.175-.15-15.429-28.865-16.05-29.539-.283-.307.623-1-9.955 7.6l-9.309 7.36c-.144 0-1.996-3.479-4.118-7.73l-6.119-12.183-6.982-13.852-9.254-18.397-4.531-8.998.205-5.72.212-6.091c.005-.288-.379-.387-1.722-.442-.948-.04-1.777-.023-1.837.038zm-45.459 27.624l-5.147 2.321-1.96.884-2.755 1.253-3.605 1.607c-1.144.496-2.18 1.029-2.305 1.185-.147.185.134.934.808 2.157l2.334 4.329 5.216 9.753 4.713 8.781 1.659 3.092 4.841 9.027 4.809 8.967 1.658 3.094 4.809 8.965 4.808 8.967 1.659 3.091 4.746 8.844 5.214 9.77 1.471 2.721c.095.137.81 1.473 1.588 2.969s1.538 2.853 1.689 3.016c.207.226 1.38-.386 4.93-2.571l9.315-5.713 4.87-3.036c.166-.147-6.65-13.337-12.839-24.842l-2.692-5.071-2.816-5.318-2.82-5.318-2.82-5.318-2.943-5.566-2.82-5.318-2.818-5.318-2.82-5.318-2.82-5.319-2.943-5.565-5.834-11.007c-2.701-5.132-3.245-6.056-3.604-6.117-.2-.034-2.349.831-4.776 1.922zm103.684 78.186l-18.7 12.913c-.04.182.744 1.768 1.742 3.526l2.486 4.431 7.176 12.821c5.483 9.768 6.448 11.637 6.165 11.912-.824.796-14.758 9.548-15.031 9.443-.168-.066-4.966-7.642-10.661-16.839l-10.56-16.718c-.116 0-1.402.798-2.86 1.775l-12.946 8.554-10.74 7.214c-.431.422-.426.462.15 1.156 2.817 3.392 7.192 11.825 9.933 19.146 3.114 8.32 5.506 16.877 8.12 29.065l1.237 5.689a420.38 420.38 0 0 1 1.103 5.195c4.328 20.868 7.806 32.448 12.75 42.463 2.867 5.804 6.325 11.007 9.72 14.621l1.551 1.652 4.658-2.611 10.295-5.732 3.677-2.036 9.804-5.441 9.806-5.439 2.541-1.395c.725-.391 1.372-.853 1.438-1.027s-1.088-2.344-2.571-4.824l-8.005-13.389c-2.924-4.885-5.263-9.018-5.2-9.181.135-.355 18.451-13.474 18.811-13.474.135 0 .745 1.085 1.358 2.412l1.915 4.142 2.401 5.195 2.575 5.566 2.126 4.576 2.154 4.638c.552 1.19 1.123 2.157 1.27 2.15s1.489-1.761 2.982-3.896l11.042-15.631 20.686-29.312c3.304-4.702 5.387-7.846 5.387-8.128 0-.443-3.79-6.991-6.622-11.437-11.305-17.751-26.787-38.508-38.634-51.799-6.045-6.78-14.559-14.702-15.649-14.56-.138.018-8.635 5.694-18.88 12.614zm-214.109 39.518c0 .121.303.298.673.391 2.785.706 14.662 6.187 19.564 9.029 12.499 7.248 20.395 15.711 25.186 26.993 2.965 6.988 4.823 16.949 4.825 25.889.005 15.837-10.476 32.213-31.006 48.445-6.408 5.069-14.792 10.664-22.366 14.93-1.517.855-2.758 1.637-2.758 1.737 0 .325 2.182.497 6.285.497 2.206 0 4.01.084 4.01.186s-.911.921-2.022 1.821c-7.469 6.037-14.754 10.665-26.044 16.548l-7.23 3.775c-12.148 6.358-21.226 12.478-31.498 21.238-5.173 4.411-13.548 12.797-16.399 16.416C7.107 461.369.014 483.686 0 510.666c-.01 20.268 3.958 41.182 11.335 59.734 3.133 7.884 5.63 12.686 9.178 17.66 4.816 6.751 7.053 10.569 9.939 16.972 1.789 3.971 3.756 10.242 4.247 13.543.085.578.251 1.052.368 1.052.273 0 .365-.509.713-3.959.427-4.254 1.403-9.949 2.024-11.823.433-1.308.652-1.657 1.04-1.657.429 0 .555.348 1.033 2.844.299 1.564.727 3.625.952 4.576 2.434 10.382 8.6 18.666 20.858 28.027 1.922 1.467 9.417 6.498 11.474 7.701l7.908 4.503c1.313.702 2.496 1.358 2.631 1.458s4.225 2.191 9.088 4.647c13.9 7.023 22.322 11.92 31.969 18.595 9.129 6.317 19.172 14.749 25.227 21.183 3.05 3.24 7.043 8.005 8.267 9.865.491.745.984 1.356 1.098 1.356 1.026 0-.453-8.859-2.726-16.325l-3.59-11.24c-.594-1.759-1.04-3.315-.993-3.457.095-.287 2.323 3.007 5.925 8.76 13.674 21.842 23.474 41.895 30.274 61.964 2.447 7.221 5.455 18.35 6.718 24.859 1.526 7.856 2.414 14.496 3.087 23.07.32 4.068.32 17.548.001 21.635-.849 10.904-2.519 21.29-4.93 30.677-1.516 5.901-2.319 8.638-4.301 14.655-1.748 5.307-4.915 13.806-6.246 16.765-.384.854-.699 1.598-.699 1.655 0 .251-3.989 9.284-6.16 13.95l-1.192 2.63c0 .036-1.172 2.5-2.602 5.475l-10.388 21.737-1.937 4.181c-.691 1.485-1.203 2.753-1.137 2.819.149.15.934-.495 3.86-3.166 40.146-36.676 88.632-73.833 132.555-101.581 11.728-7.41 26.192-16.007 33.249-19.763 1.501-.799 2.849-1.645 2.994-1.877.801-1.295 1.75-9.47 1.75-15.086 0-2.744-.035-2.951-.532-3.242-14.136-8.296-43.236-35.219-65.304-60.419-16.163-18.456-29.126-36.492-36.624-50.955-9.154-17.657-23.437-38.958-41.634-62.087-15.228-19.356-34.124-41.191-51.018-58.957-7.249-7.621-9.166-9.791-10.773-12.197-3.019-4.517-3.437-7.879-1.476-11.837 2.879-5.811 11.867-13.194 24.995-20.533 3.077-1.719 13.209-6.838 16.3-8.235l3.799-1.725 7.068-3.122 3.607-1.507c.054 0 .716-.287 1.476-.639 1.408-.648 14.385-5.859 16.793-6.742l5.249-1.965 5.026-1.861 8.36-3.033c.152-.095.123-.298-.076-.544-.659-.814-5.472-4.254-12.82-9.167-7.673-5.13-10.247-7.08-12.522-9.484-9.77-10.331-16.699-27.204-19.97-48.627-.151-.986-.351-1.793-.445-1.793s-.709 1.085-1.368 2.412l-7.241 14.995c0 .048-.773 1.716-1.716 3.707s-1.716 3.713-1.716 3.825-.597 1.557-1.327 3.211c-5.612 12.72-14.517 22.245-23.307 24.934-1.023.311-2.255.448-4.044.448-2.295-.002-2.707-.073-3.801-.649-1.508-.794-2.392-1.713-3.043-3.164-.588-1.311-.626-2.58-.159-5.441 2.016-12.367 9.157-26.117 21.84-42.051 6.531-8.204 12.016-14.214 22.576-24.736l8.728-8.699c1.287-1.286 1.902-2.083 1.903-2.474.002-.746 1.485-6.725 2.466-9.945 2.505-8.214 4.389-13.726 6.873-20.096 1.964-5.041 2.256-6.501 2.267-11.349.008-4.197-.25-6.581-1.236-11.379-.664-3.24-1.174-5.245-2.235-8.782-1.126-3.761-3.799-11.101-5.138-14.11l-1.345-3.081c-2.29-5.298-6.34-13.111-8.816-17.003-1.194-1.881-1.28-1.959-2.007-1.82-1.87.356-5.728.444-7.072.161-2.218-.466-4.723-1.867-6.441-3.601-2.545-2.569-4.236-5.873-5.409-10.577-.347-1.393-.79-2.711-.986-2.931-.449-.509-3.451-1.991-5.361-2.647-6.929-2.38-13.884-3.448-29.328-4.502-4.479-.304-15.652-.321-15.652-.024zm291.522 40.409c-.122.17-.488.921-.811 1.67-2.474 5.737-7.882 15.493-11.725 21.148-14.314 21.072-33.507 38.165-58.872 52.428-4.572 2.572-16.493 8.546-17.051 8.546-.051 0-.675.267-1.386.594s-2.562 1.114-4.113 1.752-2.961 1.298-3.134 1.466c-.25.242-.265.894-.07 3.131l.507 6.538.492 6.925.493 6.928.489 6.678.633 9.029c.225 3.332.487 6.147.582 6.254s6.889-3.872 15.096-8.842l15.078-9.038c.085 0 .51 2.254.946 5.008a403.78 403.78 0 0 0 3.95 20.593l.984 4.452c.851 4.19 3.907 15.626 5.549 20.778 1.548 4.863 3.698 9.771 4.278 9.771.246 0 7.121-6.252 15.501-14.095 6.879-6.437 6.568-6.23 6.872-4.596.357 1.918 2.509 8.285 4.272 12.631 2.335 5.759 6.619 12.846 9.844 16.285 2.884 3.072 6.541 5.624 8.882 6.193.37.09.675.312.675.492 0 .401-2.623 2.944-4.291 4.157-7.721 5.625-23.636 9.732-35.956 9.282-2.199-.08-4.481-.266-5.071-.415s-1.128-.213-1.195-.146.913 1.111 2.178 2.32c10.697 10.241 24.05 19.945 30.363 22.069 1.436.485 1.77.51 3.37.265l3.676-.537c21.692-3.032 36.027-16.117 42.62-38.895 1.9-6.564 2.858-11.903 3.798-21.148.164-1.626.192-2.888.065-3.012-.119-.119-1.044-.44-2.055-.713-10.32-2.792-16.124-6.337-21.581-13.185-10.896-13.669-15.562-30.537-12.494-45.166 1.436-6.846 4.988-13.984 9.815-19.721 1.726-2.052 4.717-5.047 7.172-7.178l1.417-1.232.355-2.844c.694-5.582 1.362-8.547 2.588-11.498.395-.95.718-1.919.718-2.153 0-.365-1.133-6.216-1.716-8.859-.632-2.87-.794-3.473-.971-3.582-.271-.169-13.494 13.879-25.023 26.585-16.785 18.499-28.283 32.231-33.449 39.948-.912 1.36-1.736 2.506-1.832 2.544s-.255-2.744-.35-6.184l-.4-13.179-.216-9.647.009-2.721 3.725-3.575 9.361-9.027 8.334-8.064 26.165-25.742c6.388-6.446 6.557-6.643 6.557-7.603 0-1.87-1.573-10.315-2.472-13.271-2.978-9.793-6.552-17.284-9.547-20.014-1.058-.965-1.285-1.047-1.628-.578zm-131.46 24.91c0 .129-.483 1.382-1.073 2.783l-2.356 5.639-9.503 22.015-1.992 4.387-2.115 4.555c-.471.976-.827 1.807-.795 1.843l2.403 2.502c5.743 5.972 9.09 13.307 10.303 22.579.429 3.273.355 11.268-.142 15.337-1.114 9.115-3.766 19.215-8.026 30.547l-1.456 3.896c-.331.904-.668.86-2.078-.269-1.488-1.192-2.782-2.615-4.543-4.986-5.841-7.871-12.545-23.837-15.763-37.538-.23-.986-.519-1.792-.64-1.792-.599 0-3.981 4.37-7.56 9.77-4.114 6.207-10.976 17.918-15.154 25.864l-1.503 2.86 2.519 2.953c2.1 2.462 10.418 11.784 14.226 15.939l5.187 5.813c17.785 20.055 28.267 34.006 37.357 49.719 8.408 14.53 16.733 24.971 32.151 40.321 3.554 3.537 8.393 8.165 10.751 10.285 7.252 6.512 15.384 13.335 15.891 13.335.313 0 9.93-10.986 10.039-11.467.038-.171-.512-.69-1.225-1.152-4.232-2.749-11.892-11.88-19.633-23.397-6.657-9.907-16.193-25.578-22.182-36.46l-2.623-4.699-2.945-5.318-2.081-3.834c-3.554-6.506-4.232-7.953-3.887-8.28.185-.174 3.124-2.119 6.532-4.32l6.197-4.003 1.191.882c1.178.872 3.159 3.166 4.61 5.338 1.023 1.527 3.107 5.513 3.741 7.148.285.737.721 1.794.97 2.35s1.241 3.346 2.204 6.204c2.73 8.098 5.286 14.458 8.298 20.653 12.908 26.553 30.817 41.252 56.917 46.719 2.166.453 3.112.621 7.169 1.266 5.395.856 11.284.76 16.195-.266 14.253-2.978 25.718-13.773 33.218-31.273.984-2.299 3.29-9.29 3.121-9.462-.111-.112-6.235 3.948-9.22 6.114-.477.346-1.645 1.521-2.595 2.609-3.429 3.926-8.924 8.154-13.081 10.068-2.668 1.226-3.425 1.534-5.121 2.077-3.842 1.237-5.479 1.461-10.567 1.452-3.981-.009-5.168-.099-7.107-.542-6.881-1.571-13.154-4.626-19.854-9.671-3.388-2.55-8.687-7.845-11.45-11.444-12.342-16.064-19.193-38.646-21.382-70.476l-.373-5.565c-.407-6.291-.66-9.384-.781-9.582-.076-.124-1.036.653-2.135 1.727-5.896 5.765-15.017 10.071-24.791 11.704-2.402.401-9.601.182-11.521-.351-2.4-.666-4.534-1.652-4.534-2.094 0-.218.28-1.569.622-3.001l.857-3.597c1.415-5.996 2.669-15.666 3.171-24.455.953-16.717-1.223-35.255-6.259-53.287-1.727-6.187-5.421-16.745-7.331-20.96-.34-.752-.621-1.418-.621-1.479 0-.166-1.358-3.128-2.853-6.221-2.231-4.616-4.276-8.248-4.643-8.248-.19 0-.346.106-.346.236zm187.758 34.046c-7.743.678-11.889 1.318-16.177 2.494l-2.083.564c-.405.106-1.395.431-2.199.72s-1.502.528-1.551.528c-.401 0 .577 1.273 3.59 4.68l3.518 3.977 1.506.005c1.978.005 5.926.588 8.32 1.229 15.612 4.171 26.347 18.419 30.098 39.95.68 3.898.817 11.697.258 14.595-1.351 7.015-3.647 12.468-7.479 17.781l-1.228 1.703.785 3.121 1.249 4.851 2.972 11.256 1.442 5.503 3.371 12.801 1.845 7.05 1.425 5.441 1.213 4.576 1.133 4.346c.613 2.42.948 3.308 1.159 3.069.056-.066 1.677-2.678 3.599-5.806l5.213-8.472c.942-1.531 1.811-2.784 1.932-2.784s.408.107.642.237 2.412.972 4.837 1.87l6.251 2.348 11.031 4.116 4.166 1.572 5.271 1.985 5.637 2.093 5.882 2.19 18.624 6.971c2.289.865 4.214 1.517 4.282 1.451.315-.32-1.225-5.375-6.996-22.977l-9.128-27.009c-.194-.365-.903-.623-2.905-1.061l-4.733-1.04-3.31-.726-2.083-.46-2.82-.606c-3.614-.763-3.413-.611-3.893-2.931-1.491-7.216-6.839-27.881-7.871-30.418-.258-.635.737-.569 3.02.199 5.471 1.839 10.704 5.362 16.981 11.433 3.074 2.974 2.951 3.036 1.88-.935-4.66-17.299-8.373-27.663-13.925-38.881-2.284-4.614-3.56-6.839-6.501-11.332-8.746-13.365-19.189-21.968-31.764-26.167a99.21 99.21 0 0 0-20.922-4.642c-3.069-.356-13.294-.659-15.564-.458zm34.901 50.114c1.522.445 2.602 1.272 3.891 2.981 3.007 3.99 6.147 11.836 9.629 24.057l1.564 5.442c.708 2.345 2.49 10.12 2.424 10.583-.093.67-1.908 1.661-3.04 1.661-3.031 0-5.477-3.368-7.46-10.264l-1.491-5.196c-1.73-6.029-5.169-15.453-8.891-24.364-1.033-2.471-1.133-3.786-.354-4.623.614-.659 2.051-.766 3.728-.277zm-26.555 49.944c-3.254 2.969-10.145 5.451-18.747 6.756-1.32.2-2.453.418-2.519.486s-.007.88.133 1.808a160.02 160.02 0 0 1 .518 3.911c1.015 8.533 2.252 16.49 3.193 20.531l.609 2.659c1.881 8.299 4.151 16.332 7.476 26.446 1.96 5.967 2.306 6.958 5.071 14.553 2.264 6.221 6.714 17.699 9.972 25.726 7.742 19.069 16.096 33.742 26.411 46.38 2.986 3.657 11.92 12.531 15.178 15.07 3.671 2.863 8.299 5.938 11.52 7.651 2.772 1.472 7.642 3.475 9.126 3.752l.914.17 5.92-5.902c3.256-3.245 7.739-7.887 9.96-10.316 3.327-3.635 3.983-4.469 3.706-4.721-.183-.168-1.547-1.234-3.031-2.367-7.237-5.538-13.325-11.777-17.043-17.468-4.22-6.459-5.159-12.128-2.832-17.076 2.702-5.742 7.526-7.036 13.993-3.751 5.47 2.779 13.319 10.131 18.805 17.617.808 1.102 1.563 2.04 1.677 2.083.339.128 1.853-3.148 2.906-6.295 1.921-5.737 3.319-13.369 3.934-21.488l.506-5.813c.311-3.024.311-19.833-.002-23.24l-.483-6.176c-.133-1.962-.337-3.663-.451-3.777-.175-.176-3.152-1.124-6.057-1.929-.789-.218-8.427-2.484-18.507-5.489l-5.699-1.658-17.342-4.982c-1.768-.518-10.778-2.934-13.793-3.701l-3.134-.794-1.347 1.048c-3.336 2.597-5.87 7.59-7.675 15.118-.867 3.617-2.024 10.598-2.382 14.373-.088.919-.261 1.735-.384 1.813-.63.393-5.237-3.363-7.718-6.289-9.429-11.126-15.808-31.468-19.216-61.28l-1.462-14.135c0-.562-.585-.325-1.704.696zm-25.849 37.141a51.03 51.03 0 0 0-.347 1.545l-1.907 8.409c-.649 2.801-1.066 7.857-1.46 17.754-.152 3.791-.125 4.454.204 4.824.993 1.117 6.623 12.032 9.917 19.226l2.159 4.701 5.676 12.738c4.424 10.003 9.427 20.548 11.714 24.681 9.19 16.616 19.116 26.501 39.712 39.556 7.249 4.595 9.438 5.912 9.438 5.68 0-.054-1.573-1.493-3.493-3.199-9.471-8.406-18.27-18.807-27.013-31.928-9.203-13.806-15.723-26.133-25.012-47.281-.687-1.564-5.469-13.652-6.508-16.449-2.116-5.699-5.442-15.54-7.102-21.026l-1.232-3.958c-.372-1.038-3.09-10.863-3.678-13.296-.512-2.11-.858-2.751-1.068-1.977zm-211.067 7.027c-2.362.988-7.362 3.254-10.54 4.779l-6.251 2.981c-7.043 3.345-49.722 25.016-49.817 25.297-.055.162-.022 1.413.075 2.78.662 9.375 5.261 19.43 14.698 32.146 7.471 10.066 17.291 20.577 34.922 37.383 11.352 10.822 13.139 12.747 20.504 22.107 10.805 13.731 30.548 41.694 46.413 65.735 1.998 3.028 3.752 5.502 3.899 5.499.199-.004 14.538-11.761 15.652-12.834.104-.1-1.457-3.514-3.469-7.585l-4.51-9.259-1.891-4.081c-1.882-4.033-2.484-5.403-3.943-8.997-.794-1.953-1.385-3.648-1.313-3.764.293-.478 5.393-1.784 12.855-3.291l13.972-2.624 4.166-.742 4.167-.746c4.902-.912 6.639-1.135 6.846-.882.26.318 2.632 6.304 4.415 11.152l1.978 5.318c2.491 6.577 8.429 24.132 10.29 30.425 1.175 3.968 1.192 4.001 1.936 3.858 1.195-.229 3.083-.393 7.559-.654 7.534-.443 17.205.251 28.092 2.015 1.73.281 3.201.455 3.267.388.181-.184-2.398-12.01-4.732-21.687-6.496-26.956-15.652-48.623-27.733-65.635-7.323-10.313-16.991-20.297-31.428-32.457-11.498-9.685-24.252-19.202-46.326-34.574-15.486-10.783-18.313-12.92-21.954-16.596-4.186-4.223-6.246-6.91-14.571-18.998-2.836-4.119-5.22-7.144-5.593-7.093-.09.012-.827.297-1.635.636zm-1.518 26.065c5.561.812 10.146 2.552 14.632 5.552 2.335 1.564 7.16 6.405 8.631 8.663 4.759 7.304 6.668 15.525 5.47 23.568-1.057 7.102-3.93 13.095-8.736 18.218-4.35 4.636-9.846 7.894-15.888 9.416-5.017 1.263-9.579 1.378-14.525.36-9.009-1.849-16.578-7.103-21.572-14.973-1.893-2.985-3.544-7.227-4.4-11.313-.701-3.338-.746-8.881-.102-12.291 2.682-14.179 13.602-24.855 27.712-27.089 2.483-.393 6.495-.443 8.778-.111zm202.67 7.708c-11.233 23.051-29.094 36.776-52.412 40.27-3.417.513-9.368.985-12.462.987-6.449.007-15.342-.961-22.544-2.452-1.888-.391-3.472-.673-3.522-.624s1.534 1.837 3.519 3.979c15.842 17.105 26.899 35.423 31.706 52.53.402 1.427.803 2.956.893 3.397s.256.86.37.931.843-.569 1.62-1.42c3.103-3.398 8.927-9.074 11.127-10.844 7.066-5.684 12.682-8.135 18.63-8.135 6.086 0 11.297 2.605 16.674 8.339 3.927 4.188 4.661 5.493 5.668 10.081.645 2.945.879 9.079.455 11.972-1.601 10.906-9.464 19.256-20.806 22.093-1.756.439-2.842.528-6.405.528-3.903-.002-4.508-.063-6.726-.675-1.341-.369-3.241-1.056-4.221-1.526s-1.865-.853-1.962-.853c-.274 0 1.366 1.664 5.579 5.664 13.206 12.538 27.389 23.738 39.809 31.441 5.588 3.463 13.192 7.551 13.588 7.306.119-.076.783-1.324 1.472-2.775 9.123-19.175 23.165-34.913 41.338-46.324l3.659-2.239c.054 0 .682-.348 1.395-.774 4.51-2.69 13.828-6.939 20.845-9.504.64-.234 1.164-.507 1.164-.609s-.688-.438-1.531-.748c-2.55-.939-10.306-3.956-11.091-4.315-.405-.185-1.564-.667-2.574-1.076-11.943-4.802-23.121-11.576-30.427-18.434-11.512-10.805-18.614-25.771-21.062-44.374-.237-1.799-.384-2.289-.69-2.289-.988 0-15.687 5.322-19.664 7.119l-3.654 1.611c-5.322 2.324-15.799 7.498-18.823 9.297-.713.424-1.346.772-1.405.772-.252 0-7.835 4.683-10.532 6.505-3.426 2.313-5.67 4.081-8.021 6.32-1.439 1.37-1.733 1.554-2.015 1.254-.959-1.015-10.952-17.046-10.791-17.309.102-.166.777-.429 4.403-1.713 18.076-6.401 35.203-14.608 45.347-21.731 7.206-5.06 12.131-10.114 14.486-14.865 1.334-2.69 1.328-2.778-.341-5.463-2.825-4.54-6.382-11.465-7.235-14.085-.198-.607-.473-1.141-.613-1.19s-1.136 1.73-2.218 3.95zm-210.713 7.468c-5.629 1.09-10.589 4.869-12.98 9.891-1.476 3.099-1.94 5.41-1.787 8.898.199 4.576 1.64 8.097 4.692 11.462 5.392 5.944 14.082 7.529 21.368 3.896 4.477-2.232 7.994-6.651 9.344-11.734.586-2.207.593-6.738.013-8.904-2.103-7.869-8.75-13.325-16.728-13.73-1.313-.066-2.901.023-3.922.221zm180.775 83.408c-2.516.668-4.419 1.798-6.398 3.793-3.575 3.602-4.87 8.202-3.659 12.982.673 2.654 1.815 4.694 3.683 6.58 2.708 2.733 5.848 4.048 9.681 4.053 6.448.01 11.995-4.431 13.481-10.795.493-2.111.459-4.203-.105-6.433-.571-2.247-1.082-3.301-2.547-5.259-3.135-4.192-9.092-6.265-14.136-4.921z" fill="#fff"/></svg>