<svg width="564" height="931" viewBox="0 0 564 931" fill="none" xmlns="http://www.w3.org/2000/svg">
<path fill-rule="evenodd" clip-rule="evenodd" d="M319.992 0.262931C316.558 0.61764 313.435 1.0238 311.29 1.39509C310.145 1.59322 308.655 1.85146 307.98 1.96871C302.11 2.98981 292.278 5.9519 285.446 8.75743C272.141 14.2208 259.307 21.9188 248.541 30.8942C244.818 33.9983 236.572 42.3466 233.25 46.3753C218.313 64.4927 206.417 86.8341 197.691 113.162C195.994 118.286 195.315 120.468 194.392 123.798C193.976 125.295 193.532 126.853 193.405 127.261C193.092 128.268 191.253 135.938 191.049 137.094C190.957 137.604 190.937 138.021 191.002 138.021C191.115 138.021 192.13 137.588 194.615 136.479C196.919 135.45 197.814 135.054 202.582 132.952C205.277 131.763 207.926 130.594 208.464 130.353C209.004 130.112 211.651 128.943 214.348 127.754C217.043 126.566 219.718 125.384 220.291 125.128C222.578 124.109 223.593 123.658 227.974 121.718L232.531 119.7L234.308 115.07C235.285 112.524 236.349 109.717 236.672 108.833C236.994 107.949 237.787 105.889 238.43 104.257L239.6 101.289H240.946C247.397 101.289 268.803 101.744 268.95 101.884C269.054 101.983 269.033 103.169 268.904 104.521C268.776 105.872 268.547 108.648 268.398 110.688C268.248 112.729 268.014 115.579 267.878 117.021C267.649 119.417 267.668 119.717 268.094 120.484C268.35 120.946 269.089 122.326 269.736 123.551C270.383 124.775 271.213 126.334 271.582 127.014C271.95 127.694 272.653 129.002 273.142 129.92C273.632 130.839 274.405 132.286 274.86 133.136C276.282 135.79 278.955 140.789 279.919 142.597C280.428 143.55 283.043 148.447 285.735 153.481C288.427 158.515 291.159 163.635 291.808 164.86C293.6 168.246 293.273 168.101 296.048 166.732C297.354 166.088 299.662 164.968 301.18 164.241C302.697 163.515 303.937 162.823 303.937 162.702C303.937 162.582 303.007 161.181 301.87 159.59C294.301 148.999 288.785 136.266 286.185 123.383C285.325 119.13 284.58 111.841 284.58 107.72C284.58 103.858 285.239 97.1878 286.047 92.8786C287.872 83.1418 292.278 72.0863 299.178 59.9326C310.617 39.7842 325.641 25.8186 343.646 18.598C350.751 15.7483 357.881 13.993 365.951 13.1062C369.465 12.7201 369.429 12.7416 368.275 11.7181C362.64 6.72267 352.267 2.53589 341.654 0.973589C335.385 0.050451 325.264 -0.281502 319.992 0.262931ZM278.691 38.2743C278.692 38.3766 277.602 41.7992 276.272 45.8806C274.94 49.9619 273.606 54.1361 273.305 55.1565C273.006 56.1768 272.609 57.4732 272.428 58.0375C271.071 62.2215 269.13 71.0279 269.13 72.9929V74.2031L266.495 74.2025C260.471 74.2015 248.053 73.8629 247.78 73.692C247.468 73.4979 247.501 73.3166 248.584 69.3795C252.558 54.9118 263.17 43.3841 277.023 38.4851C278.215 38.0641 278.689 38.0039 278.691 38.2743ZM256.129 109.913C256.066 109.973 253.369 110.146 250.134 110.298C246.899 110.45 243.838 110.637 243.335 110.714C242.295 110.873 242.314 110.827 241.43 115.141C241.15 116.501 240.821 118.059 240.698 118.604C240.442 119.743 240.197 120.866 239.268 125.152L238.6 128.237L233.171 130.965C230.187 132.465 227.669 133.769 227.578 133.862C227.486 133.955 227.958 135.012 228.624 136.212C229.292 137.411 230.204 139.06 230.648 139.876C231.095 140.693 232.474 143.197 233.711 145.442C234.949 147.687 236.299 150.136 236.707 150.884C237.117 151.632 239.685 156.307 242.413 161.273C245.141 166.239 247.677 170.858 248.051 171.538C248.423 172.218 251.786 178.34 255.525 185.143C259.265 191.945 262.629 198.068 263.002 198.748C263.374 199.428 265.885 203.992 268.578 208.889C271.272 213.787 273.685 218.183 273.942 218.659C276.571 223.559 279.812 229.295 279.948 229.295C280.042 229.295 284.016 226.607 288.78 223.32C293.543 220.033 303.122 213.431 310.065 208.647C322.383 200.16 325.172 198.224 325.589 197.867C325.764 197.717 310.16 169.002 309.539 168.328C309.256 168.021 310.162 167.328 299.584 175.928C294.607 179.977 290.417 183.288 290.275 183.288C290.131 183.288 288.279 179.809 286.157 175.558C284.035 171.306 281.282 165.824 280.038 163.375C278.796 160.927 275.653 154.693 273.056 149.523C270.459 144.354 266.295 136.075 263.802 131.126L259.271 122.128L259.476 116.408C259.591 113.262 259.686 110.521 259.688 110.317C259.693 110.029 259.309 109.93 257.966 109.875C257.018 109.835 256.189 109.852 256.129 109.913ZM210.67 137.537C208.244 138.628 205.928 139.673 205.523 139.858C205.118 140.044 204.236 140.442 203.563 140.742C202.888 141.043 201.649 141.607 200.808 141.995C199.969 142.383 198.346 143.106 197.203 143.602C196.059 144.098 195.023 144.631 194.898 144.787C194.751 144.972 195.032 145.721 195.706 146.944C196.276 147.974 197.326 149.922 198.04 151.273C198.755 152.623 201.102 157.012 203.256 161.026C205.412 165.039 207.531 168.99 207.969 169.807C208.407 170.623 209.152 172.014 209.628 172.899C210.102 173.783 212.28 177.845 214.469 181.926C216.659 186.009 218.822 190.044 219.278 190.893C219.733 191.744 220.481 193.135 220.936 193.987C221.393 194.836 223.557 198.871 225.745 202.952C227.934 207.035 230.098 211.069 230.553 211.919C231.01 212.77 231.756 214.161 232.212 215.01C232.667 215.862 234.804 219.841 236.958 223.854C239.112 227.868 241.458 232.264 242.172 233.624C242.885 234.986 243.546 236.211 243.643 236.345C243.738 236.482 244.453 237.818 245.231 239.314C246.01 240.811 246.769 242.167 246.92 242.33C247.127 242.556 248.3 241.944 251.85 239.759C254.411 238.181 258.603 235.61 261.165 234.046C263.725 232.482 265.917 231.116 266.035 231.01C266.201 230.863 259.385 217.673 253.196 206.168C252.831 205.488 251.62 203.206 250.504 201.097C249.39 198.988 248.122 196.596 247.688 195.779C247.252 194.962 245.984 192.57 244.868 190.461C243.754 188.352 242.484 185.959 242.048 185.143C241.612 184.326 240.288 181.823 239.105 179.577C237.922 177.333 236.653 174.939 236.285 174.259C235.916 173.579 234.648 171.186 233.467 168.941C232.283 166.696 231.015 164.303 230.647 163.623C230.278 162.942 229.01 160.549 227.827 158.304C226.645 156.06 225.32 153.555 224.884 152.739C223.547 150.233 220.491 144.467 219.05 141.732C216.349 136.6 215.805 135.676 215.446 135.615C215.246 135.581 213.097 136.446 210.67 137.537ZM314.354 215.723C304.109 222.643 295.694 228.453 295.654 228.636C295.614 228.818 296.398 230.404 297.396 232.162C298.392 233.918 299.512 235.913 299.882 236.593C300.254 237.273 303.482 243.043 307.058 249.414C312.541 259.182 313.506 261.051 313.223 261.326C312.399 262.122 298.465 270.874 298.192 270.769C298.024 270.703 293.226 263.127 287.531 253.93C281.837 244.735 277.085 237.212 276.971 237.212C276.855 237.212 275.569 238.01 274.111 238.987C272.653 239.963 266.826 243.812 261.165 247.541C255.503 251.269 250.669 254.516 250.425 254.755C249.994 255.177 249.999 255.217 250.575 255.911C253.392 259.303 257.767 267.736 260.508 275.057C263.622 283.377 266.014 291.934 268.628 304.122C269.184 306.707 269.741 309.268 269.865 309.811C269.992 310.356 270.487 312.693 270.968 315.006C275.296 335.874 278.774 347.454 283.718 357.469C286.585 363.273 290.043 368.476 293.438 372.09L294.989 373.742L299.647 371.131C305.064 368.095 306.602 367.24 309.942 365.399C311.29 364.657 312.946 363.74 313.619 363.363C314.293 362.986 318.705 360.536 323.423 357.922C328.143 355.306 332.554 352.86 333.229 352.483C333.902 352.107 335.046 351.479 335.77 351.088C336.495 350.697 337.142 350.235 337.208 350.061C337.276 349.886 336.12 347.717 334.637 345.237C333.156 342.758 329.554 336.734 326.632 331.848C323.708 326.963 321.369 322.83 321.432 322.667C321.567 322.312 339.883 309.193 340.243 309.193C340.378 309.193 340.988 310.278 341.601 311.605C342.213 312.93 343.075 314.795 343.516 315.747C343.957 316.7 345.038 319.037 345.917 320.942C346.796 322.847 347.955 325.352 348.492 326.508C349.03 327.663 349.986 329.724 350.618 331.084C351.251 332.444 352.22 334.532 352.772 335.722C353.324 336.912 353.895 337.879 354.042 337.872C354.189 337.866 355.531 336.111 357.024 333.976C358.519 331.841 363.486 324.807 368.066 318.345C375.155 308.339 381.944 298.718 388.752 289.033C392.056 284.331 394.139 281.187 394.139 280.905C394.139 280.462 390.349 273.914 387.517 269.468C376.212 251.717 360.73 230.96 348.883 217.669C342.838 210.889 334.324 202.967 333.234 203.109C333.096 203.127 324.599 208.803 314.354 215.723ZM100.245 255.241C100.245 255.362 100.548 255.539 100.918 255.632C103.703 256.338 115.58 261.819 120.482 264.661C132.981 271.909 140.877 280.372 145.668 291.654C148.633 298.642 150.491 308.603 150.493 317.543C150.498 333.38 140.017 349.756 119.487 365.988C113.079 371.057 104.695 376.652 97.1205 380.918C95.6032 381.773 94.3628 382.555 94.3628 382.655C94.3628 382.98 96.5444 383.152 100.648 383.152C102.854 383.152 104.658 383.236 104.658 383.338C104.658 383.441 103.747 384.259 102.636 385.159C95.1673 391.196 87.882 395.824 76.5916 401.707C74.4342 402.829 71.1817 404.528 69.3617 405.482C57.2132 411.84 48.1355 417.96 37.8642 426.72C32.6913 431.131 24.316 439.517 21.4649 443.136C7.10711 461.369 0.0138608 483.686 2.03107e-05 510.666C-0.0103601 530.934 3.95841 551.848 11.3354 570.4C14.4685 578.284 16.965 583.086 20.5134 588.06C25.3298 594.811 27.5668 598.629 30.4526 605.032C32.2415 609.003 34.2085 615.274 34.6999 618.575C34.7847 619.153 34.9507 619.627 35.0684 619.627C35.3417 619.627 35.4334 619.118 35.7812 615.668C36.2085 611.414 37.1843 605.719 37.8053 603.845C38.2379 602.537 38.4576 602.188 38.8451 602.188C39.2742 602.188 39.4005 602.536 39.878 605.032C40.1773 606.596 40.6046 608.657 40.8295 609.608C43.2637 619.99 49.4296 628.274 61.6871 637.635C63.6092 639.102 71.1038 644.133 73.1609 645.336C77.7853 648.04 78.9808 648.72 81.069 649.839C82.3821 650.541 83.5655 651.197 83.7004 651.297C83.8354 651.396 87.9252 653.488 92.7884 655.944C106.688 662.967 115.11 667.864 124.757 674.539C133.886 680.856 143.929 689.288 149.984 695.722C153.034 698.962 157.027 703.727 158.251 705.587C158.742 706.332 159.235 706.943 159.349 706.943C160.375 706.943 158.896 698.084 156.623 690.618C155.52 686.996 154.095 682.535 153.033 679.378C152.439 677.619 151.993 676.063 152.04 675.921C152.135 675.634 154.363 678.928 157.965 684.681C171.639 706.523 181.439 726.576 188.239 746.645C190.686 753.866 193.694 764.995 194.957 771.504C196.483 779.36 197.371 786 198.044 794.574C198.364 798.642 198.364 812.122 198.045 816.209C197.196 827.113 195.526 837.499 193.115 846.886C191.599 852.787 190.796 855.524 188.814 861.541C187.066 866.848 183.899 875.347 182.568 878.306C182.184 879.16 181.869 879.904 181.869 879.961C181.869 880.212 177.88 889.245 175.709 893.911C175.053 895.321 174.517 896.504 174.517 896.541C174.517 896.577 173.345 899.041 171.915 902.016C166.314 913.663 162.442 921.767 161.527 923.753C161.152 924.568 160.28 926.45 159.59 927.934C158.899 929.419 158.387 930.687 158.453 930.753C158.602 930.903 159.387 930.258 162.313 927.587C202.459 890.911 250.945 853.754 294.868 826.006C306.596 818.596 321.06 809.999 328.117 806.243C329.618 805.444 330.966 804.598 331.111 804.366C331.912 803.071 332.861 794.896 332.861 789.28C332.861 786.536 332.826 786.329 332.329 786.038C318.193 777.742 289.093 750.819 267.025 725.619C250.862 707.163 237.899 689.127 230.401 674.664C221.247 657.007 206.964 635.706 188.767 612.577C173.539 593.221 154.643 571.386 137.749 553.62C130.5 545.999 128.583 543.829 126.976 541.423C123.957 536.906 123.539 533.544 125.5 529.586C128.379 523.775 137.367 516.392 150.495 509.053C153.572 507.334 163.704 502.215 166.795 500.818C168.143 500.209 169.852 499.433 170.594 499.093C173.264 497.87 174.202 497.457 177.662 495.971C179.594 495.142 181.217 494.464 181.269 494.464C181.323 494.464 181.985 494.177 182.745 493.825C184.153 493.177 197.13 487.966 199.538 487.083C200.269 486.817 202.63 485.933 204.787 485.118C206.945 484.305 209.206 483.468 209.813 483.257C213.389 482.013 217.965 480.353 218.173 480.224C218.325 480.129 218.296 479.926 218.097 479.68C217.438 478.866 212.625 475.426 205.277 470.513C197.604 465.383 195.03 463.433 192.755 461.029C182.985 450.698 176.056 433.825 172.785 412.402C172.634 411.416 172.434 410.609 172.34 410.609C172.247 410.609 171.631 411.694 170.972 413.021C169.214 416.556 163.731 427.912 163.731 428.016C163.731 428.064 162.958 429.732 162.015 431.723C161.071 433.714 160.299 435.436 160.299 435.548C160.299 435.661 159.702 437.105 158.972 438.759C153.36 451.479 144.455 461.004 135.665 463.693C134.642 464.004 133.41 464.141 131.621 464.141C129.326 464.139 128.914 464.068 127.82 463.492C126.312 462.698 125.428 461.779 124.777 460.328C124.189 459.017 124.151 457.748 124.618 454.887C126.634 442.52 133.775 428.77 146.458 412.836C152.989 404.632 158.474 398.622 169.034 388.1C172.79 384.357 176.717 380.444 177.762 379.401C179.049 378.115 179.664 377.318 179.665 376.927C179.667 376.181 181.15 370.202 182.131 366.982C184.636 358.768 186.52 353.256 189.004 346.886C190.968 341.845 191.26 340.385 191.271 335.537C191.279 331.34 191.021 328.956 190.035 324.158C189.371 320.918 188.861 318.913 187.8 315.376C186.674 311.615 184.001 304.275 182.662 301.266C182.394 300.659 181.788 299.273 181.317 298.185C179.027 292.887 174.977 285.074 172.501 281.182C171.307 279.301 171.221 279.223 170.494 279.362C168.624 279.718 164.766 279.806 163.422 279.523C161.204 279.057 158.699 277.656 156.981 275.922C154.436 273.353 152.745 270.049 151.572 265.345C151.225 263.952 150.782 262.634 150.586 262.414C150.137 261.905 147.135 260.423 145.225 259.767C138.296 257.387 131.341 256.319 115.897 255.265C111.418 254.961 100.245 254.944 100.245 255.241ZM391.767 295.65C391.645 295.82 391.279 296.571 390.956 297.32C388.482 303.057 383.074 312.813 379.231 318.468C364.917 339.54 345.724 356.633 320.359 370.896C315.787 373.468 303.866 379.442 303.308 379.442C303.257 379.442 302.633 379.709 301.922 380.036C301.211 380.361 299.36 381.15 297.809 381.788C296.259 382.427 294.848 383.086 294.675 383.254C294.425 383.496 294.41 384.148 294.605 386.385C294.74 387.94 294.967 390.882 295.112 392.923C295.256 394.965 295.477 398.08 295.604 399.848C295.73 401.618 295.951 404.734 296.097 406.776C296.242 408.815 296.462 411.82 296.586 413.454C296.711 415.087 296.996 419.149 297.219 422.483C297.444 425.815 297.706 428.63 297.801 428.737C297.896 428.844 304.69 424.865 312.897 419.895C321.105 414.923 327.89 410.857 327.975 410.857C328.06 410.857 328.485 413.111 328.921 415.865C329.791 421.365 331.649 431.05 332.871 436.458C333.302 438.363 333.745 440.367 333.855 440.91C334.706 445.1 337.762 456.536 339.404 461.688C340.952 466.551 343.102 471.459 343.682 471.459C343.928 471.459 350.803 465.207 359.183 457.364C366.062 450.927 365.751 451.134 366.055 452.768C366.412 454.686 368.564 461.053 370.327 465.399C372.662 471.158 376.946 478.245 380.171 481.684C383.055 484.756 386.712 487.308 389.053 487.877C389.423 487.967 389.728 488.189 389.728 488.369C389.728 488.77 387.105 491.313 385.437 492.526C377.716 498.151 361.801 502.258 349.481 501.808C347.282 501.728 345 501.542 344.41 501.393C343.819 501.246 343.282 501.18 343.215 501.247C343.149 501.313 344.128 502.358 345.393 503.567C356.09 513.808 369.443 523.512 375.756 525.636C377.192 526.121 377.526 526.146 379.126 525.901C380.103 525.752 381.757 525.512 382.802 525.364C404.494 522.332 418.829 509.247 425.422 486.469C427.322 479.905 428.28 474.566 429.22 465.321C429.384 463.695 429.412 462.433 429.285 462.309C429.166 462.19 428.241 461.869 427.23 461.596C416.91 458.804 411.106 455.259 405.649 448.411C394.753 434.742 390.087 417.874 393.155 403.245C394.591 396.399 398.143 389.261 402.97 383.524C404.696 381.472 407.687 378.477 410.142 376.346L411.559 375.114L411.914 372.27C412.608 366.688 413.276 363.723 414.502 360.772C414.897 359.822 415.22 358.853 415.22 358.619C415.22 358.254 414.087 352.403 413.504 349.76C412.872 346.89 412.71 346.287 412.533 346.178C412.262 346.009 399.039 360.057 387.51 372.763C370.725 391.262 359.227 404.994 354.061 412.711C353.149 414.071 352.325 415.217 352.229 415.255C352.132 415.294 351.974 412.511 351.879 409.071C351.784 405.632 351.604 399.701 351.479 395.892C351.357 392.082 351.26 387.742 351.263 386.245L351.272 383.524L354.997 379.949C357.045 377.986 361.258 373.922 364.358 370.922C367.457 367.922 371.207 364.292 372.692 362.858C381.302 354.533 393.157 342.871 398.857 337.116C405.245 330.67 405.414 330.473 405.414 329.513C405.414 327.643 403.841 319.198 402.942 316.242C399.964 306.449 396.39 298.958 393.395 296.228C392.337 295.263 392.11 295.181 391.767 295.65ZM260.307 320.56C260.307 320.689 259.824 321.942 259.234 323.343C258.644 324.743 257.584 327.281 256.878 328.982C254.179 335.475 249.395 346.557 247.375 350.997C246.972 351.881 246.075 353.855 245.383 355.384C244.691 356.914 243.738 358.964 243.268 359.939C242.797 360.915 242.441 361.746 242.473 361.782C242.508 361.818 243.589 362.945 244.876 364.284C250.619 370.256 253.966 377.591 255.179 386.863C255.608 390.136 255.534 398.131 255.037 402.2C253.923 411.315 251.271 421.415 247.011 432.747C246.347 434.515 245.691 436.27 245.555 436.643C245.224 437.547 244.887 437.503 243.477 436.374C241.989 435.182 240.695 433.759 238.934 431.388C233.093 423.517 226.389 407.551 223.171 393.85C222.941 392.864 222.652 392.058 222.531 392.058C221.932 392.058 218.55 396.428 214.971 401.828C210.857 408.035 203.995 419.746 199.817 427.692L198.314 430.552L200.833 433.505C202.933 435.967 211.251 445.289 215.059 449.444C215.619 450.057 217.953 452.672 220.246 455.257C238.031 475.312 248.513 489.263 257.603 504.976C266.011 519.506 274.336 529.947 289.754 545.297C293.308 548.834 298.147 553.462 300.505 555.582C307.757 562.094 315.889 568.917 316.396 568.917C316.709 568.917 326.326 557.931 326.435 557.45C326.473 557.279 325.923 556.76 325.21 556.298C320.978 553.549 313.318 544.418 305.577 532.901C298.92 522.994 289.384 507.323 283.395 496.441C283.057 495.831 281.877 493.715 280.772 491.742C279.666 489.77 278.341 487.376 277.827 486.424C277.313 485.471 276.376 483.746 275.746 482.59C272.192 476.084 271.514 474.637 271.859 474.31C272.044 474.136 274.983 472.191 278.391 469.99L284.588 465.987L285.779 466.869C286.957 467.741 288.938 470.035 290.389 472.207C291.412 473.734 293.496 477.72 294.13 479.355C294.415 480.092 294.851 481.149 295.1 481.705C295.349 482.26 296.341 485.051 297.304 487.909C300.034 496.007 302.59 502.367 305.602 508.562C318.51 535.115 336.419 549.814 362.519 555.281C364.685 555.734 365.631 555.902 369.688 556.547C375.083 557.403 380.972 557.307 385.883 556.281C400.136 553.303 411.601 542.508 419.101 525.008C420.085 522.709 422.391 515.718 422.222 515.546C422.111 515.434 415.987 519.494 413.002 521.66C412.525 522.006 411.357 523.181 410.407 524.269C406.978 528.195 401.483 532.423 397.326 534.337C394.658 535.563 393.901 535.871 392.205 536.414C388.363 537.651 386.726 537.875 381.638 537.866C377.657 537.857 376.47 537.767 374.531 537.324C367.65 535.753 361.377 532.698 354.677 527.653C351.289 525.103 345.99 519.808 343.227 516.209C330.885 500.145 324.034 477.563 321.845 445.733C321.71 443.761 321.542 441.258 321.472 440.168C321.065 433.877 320.812 430.784 320.691 430.586C320.615 430.462 319.655 431.239 318.556 432.313C312.66 438.078 303.539 442.384 293.765 444.017C291.363 444.418 284.164 444.199 282.244 443.666C279.844 443 277.71 442.014 277.71 441.572C277.71 441.354 277.99 440.003 278.332 438.571C278.675 437.136 279.059 435.517 279.189 434.974C280.604 428.978 281.858 419.308 282.36 410.519C283.313 393.802 281.137 375.264 276.101 357.232C274.374 351.045 270.68 340.487 268.77 336.272C268.43 335.52 268.149 334.854 268.149 334.793C268.149 334.627 266.791 331.665 265.296 328.572C263.065 323.956 261.02 320.324 260.653 320.324C260.463 320.324 260.307 320.43 260.307 320.56ZM448.065 354.606C440.322 355.284 436.176 355.924 431.888 357.1C431.145 357.305 430.208 357.557 429.805 357.664C429.4 357.77 428.41 358.095 427.606 358.384C426.803 358.675 426.104 358.912 426.055 358.912C425.654 358.912 426.632 360.185 429.645 363.592L433.163 367.569L434.669 367.574C436.647 367.579 440.595 368.162 442.989 368.803C458.601 372.974 469.336 387.222 473.087 408.753C473.767 412.651 473.904 420.45 473.345 423.348C471.994 430.363 469.698 435.816 465.866 441.129L464.638 442.832L465.423 445.953C465.856 447.669 466.418 449.852 466.672 450.804C468.072 456.05 468.807 458.833 469.644 462.06C470.158 464.032 470.805 466.509 471.086 467.563C472.727 473.736 473.073 475.044 474.457 480.364C475.077 482.744 475.907 485.917 476.302 487.414C476.696 488.91 477.338 491.358 477.727 492.855C478.118 494.351 478.663 496.412 478.94 497.431C479.215 498.452 479.725 500.407 480.073 501.777C480.686 504.197 481.021 505.085 481.232 504.846C481.288 504.78 482.909 502.168 484.831 499.04C486.755 495.91 489.101 492.099 490.044 490.568C490.986 489.037 491.855 487.784 491.976 487.784C492.095 487.784 492.384 487.891 492.618 488.021C492.851 488.151 495.03 488.993 497.455 489.891C499.882 490.791 502.695 491.846 503.706 492.239C505.374 492.884 508.088 493.898 514.737 496.355C516.017 496.829 517.892 497.536 518.903 497.927C519.915 498.32 522.287 499.213 524.174 499.912C526.06 500.611 528.598 501.554 529.811 502.005C531.024 502.457 533.672 503.443 535.693 504.195C543.601 507.14 550.336 509.661 554.317 511.166C556.606 512.031 558.531 512.683 558.599 512.617C558.914 512.297 557.374 507.242 551.603 489.64C546.544 474.213 542.9 463.432 542.475 462.631C542.281 462.266 541.572 462.008 539.57 461.57C538.112 461.252 535.982 460.783 534.837 460.53C533.69 460.278 532.202 459.951 531.527 459.804C530.852 459.657 529.915 459.449 529.444 459.344C528.972 459.238 527.704 458.965 526.624 458.738C523.01 457.975 523.211 458.127 522.731 455.807C521.24 448.591 515.892 427.926 514.86 425.389C514.602 424.754 515.597 424.82 517.88 425.588C523.351 427.427 528.584 430.95 534.861 437.021C537.935 439.995 537.812 440.057 536.741 436.086C532.081 418.787 528.368 408.423 522.816 397.205C520.532 392.591 519.256 390.366 516.315 385.873C507.569 372.508 497.126 363.905 484.551 359.706C477.485 357.346 471.124 355.934 463.629 355.064C460.56 354.708 450.335 354.405 448.065 354.606ZM482.966 404.72C484.488 405.165 485.568 405.992 486.857 407.701C489.864 411.691 493.004 419.537 496.486 431.758C497.223 434.342 497.926 436.792 498.05 437.2C498.758 439.545 500.54 447.32 500.474 447.783C500.381 448.453 498.566 449.444 497.434 449.444C494.403 449.444 491.957 446.076 489.974 439.18C489.426 437.275 488.756 434.936 488.483 433.984C486.753 427.955 483.314 418.531 479.592 409.62C478.559 407.149 478.459 405.834 479.238 404.997C479.852 404.338 481.289 404.231 482.966 404.72ZM456.411 454.664C453.157 457.633 446.266 460.115 437.664 461.42C436.344 461.62 435.211 461.838 435.145 461.906C435.078 461.972 435.138 462.786 435.278 463.714C435.417 464.639 435.65 466.401 435.796 467.625C436.811 476.158 438.048 484.115 438.989 488.156C439.116 488.699 439.389 489.896 439.598 490.815C441.479 499.114 443.749 507.147 447.074 517.261C449.034 523.228 449.38 524.219 452.145 531.814C454.409 538.035 458.859 549.513 462.117 557.54C469.859 576.609 478.213 591.282 488.528 603.92C491.514 607.577 500.448 616.451 503.706 618.99C507.377 621.853 512.005 624.928 515.226 626.641C517.998 628.113 522.868 630.116 524.352 630.393L525.266 630.563L531.186 624.661C534.442 621.416 538.925 616.774 541.146 614.345C544.473 610.71 545.129 609.876 544.852 609.624C544.669 609.456 543.305 608.39 541.821 607.257C534.584 601.719 528.496 595.48 524.778 589.789C520.558 583.33 519.619 577.661 521.946 572.713C524.648 566.971 529.472 565.677 535.939 568.962C541.409 571.741 549.258 579.093 554.744 586.579C555.552 587.681 556.307 588.619 556.421 588.662C556.76 588.79 558.274 585.514 559.327 582.367C561.248 576.63 562.646 568.998 563.261 560.879C563.407 558.974 563.633 556.359 563.767 555.066C564.078 552.042 564.078 535.233 563.765 531.826C563.633 530.39 563.417 527.612 563.282 525.65C563.149 523.688 562.945 521.987 562.831 521.873C562.656 521.697 559.679 520.749 556.774 519.944C555.985 519.726 548.347 517.46 538.267 514.455C534.842 513.434 533.921 513.168 532.568 512.797C531.833 512.598 517.173 508.386 515.226 507.815C513.458 507.297 504.448 504.881 501.433 504.114L498.299 503.32L496.952 504.368C493.616 506.965 491.082 511.958 489.277 519.486C488.41 523.103 487.253 530.084 486.895 533.859C486.807 534.778 486.634 535.594 486.511 535.672C485.881 536.065 481.274 532.309 478.793 529.383C469.364 518.257 462.985 497.915 459.577 468.103C459.039 463.394 458.115 454.465 458.115 453.968C458.115 453.406 457.53 453.643 456.411 454.664ZM430.562 491.805C430.516 491.974 430.36 492.67 430.215 493.35C429.898 494.829 429.171 498.038 428.308 501.759C427.659 504.56 427.242 509.616 426.848 519.513C426.696 523.304 426.723 523.967 427.052 524.337C428.045 525.454 433.675 536.369 436.969 543.563C437.529 544.788 438.502 546.904 439.128 548.264C439.752 549.623 442.308 555.357 444.804 561.002C449.228 571.005 454.231 581.55 456.518 585.683C465.708 602.299 475.634 612.184 496.23 625.239C503.479 629.834 505.668 631.151 505.668 630.919C505.668 630.865 504.095 629.426 502.175 627.72C492.704 619.314 483.905 608.913 475.162 595.792C465.959 581.986 459.439 569.659 450.15 548.511C449.463 546.947 444.681 534.859 443.642 532.062C441.526 526.363 438.2 516.522 436.54 511.036C435.983 509.199 435.429 507.419 435.308 507.078C434.936 506.04 432.218 496.215 431.63 493.782C431.118 491.672 430.772 491.031 430.562 491.805ZM219.495 498.832C217.133 499.82 212.133 502.086 208.955 503.611C207.338 504.386 204.524 505.728 202.704 506.592C195.661 509.937 152.982 531.608 152.887 531.889C152.832 532.051 152.865 533.302 152.962 534.669C153.624 544.044 158.223 554.099 167.66 566.815C175.131 576.881 184.951 587.392 202.582 604.198C213.934 615.02 215.721 616.945 223.086 626.305C233.891 640.036 253.634 667.999 269.499 692.04C271.497 695.068 273.251 697.542 273.398 697.539C273.597 697.535 287.936 685.778 289.05 684.705C289.154 684.605 287.593 681.191 285.581 677.12C283.569 673.048 281.54 668.882 281.071 667.861C280.602 666.84 279.751 665.005 279.18 663.78C277.298 659.747 276.696 658.377 275.237 654.783C274.443 652.83 273.852 651.135 273.924 651.019C274.217 650.541 279.317 649.235 286.779 647.728C289.386 647.202 292.332 646.649 300.751 645.104C301.491 644.969 303.366 644.635 304.917 644.362C306.468 644.09 308.342 643.754 309.084 643.616C313.986 642.704 315.723 642.481 315.93 642.734C316.19 643.052 318.562 649.038 320.345 653.886C321.048 655.79 321.937 658.183 322.323 659.204C324.814 665.781 330.752 683.336 332.613 689.629C333.788 693.597 333.805 693.63 334.549 693.487C335.744 693.258 337.632 693.094 342.108 692.833C349.642 692.39 359.313 693.084 370.2 694.848C371.93 695.129 373.401 695.303 373.467 695.236C373.648 695.052 371.069 683.226 368.735 673.549C362.239 646.593 353.083 624.926 341.002 607.914C333.679 597.601 324.011 587.617 309.574 575.457C298.076 565.772 285.322 556.255 263.248 540.883C247.762 530.1 244.935 527.963 241.294 524.287C237.108 520.064 235.048 517.377 226.723 505.289C223.887 501.17 221.503 498.145 221.13 498.196C221.04 498.208 220.303 498.493 219.495 498.832ZM217.977 524.897C223.538 525.709 228.123 527.449 232.609 530.449C234.944 532.013 239.769 536.854 241.24 539.112C245.999 546.416 247.908 554.637 246.71 562.68C245.653 569.782 242.78 575.775 237.974 580.898C233.624 585.534 228.128 588.792 222.086 590.314C217.069 591.577 212.507 591.692 207.561 590.674C198.552 588.825 190.983 583.571 185.989 575.701C184.096 572.716 182.445 568.474 181.589 564.388C180.888 561.05 180.843 555.507 181.487 552.097C184.169 537.918 195.089 527.242 209.199 525.008C211.682 524.615 215.694 524.565 217.977 524.897ZM420.647 532.605C409.414 555.656 391.553 569.381 368.235 572.875C364.818 573.388 358.867 573.86 355.773 573.862C349.324 573.869 340.431 572.901 333.229 571.41C331.341 571.019 329.757 570.737 329.707 570.786C329.658 570.832 331.241 572.623 333.226 574.765C349.068 591.87 360.125 610.188 364.932 627.295C365.334 628.722 365.735 630.251 365.825 630.692C365.915 631.134 366.081 631.552 366.195 631.623C366.309 631.694 367.038 631.054 367.815 630.203C370.918 626.805 376.742 621.129 378.942 619.359C386.008 613.675 391.624 611.224 397.572 611.224C403.658 611.224 408.869 613.829 414.246 619.563C418.173 623.751 418.907 625.056 419.914 629.644C420.559 632.589 420.793 638.723 420.369 641.616C418.768 652.522 410.905 660.872 399.563 663.709C397.807 664.148 396.721 664.237 393.158 664.237C389.255 664.235 388.65 664.174 386.432 663.562C385.091 663.193 383.191 662.506 382.211 662.036C381.23 661.567 380.346 661.183 380.249 661.183C379.975 661.183 381.615 662.847 385.828 666.847C399.034 679.385 413.217 690.585 425.637 698.288C431.225 701.751 438.829 705.839 439.225 705.594C439.344 705.518 440.008 704.27 440.697 702.819C449.82 683.644 463.862 667.906 482.035 656.495C483.995 655.263 485.642 654.256 485.694 654.256C485.748 654.256 486.376 653.908 487.089 653.482C491.599 650.792 500.917 646.543 507.934 643.978C508.574 643.744 509.098 643.471 509.098 643.369C509.098 643.268 508.41 642.931 507.567 642.621C505.017 641.682 497.261 638.665 496.476 638.306C496.071 638.121 494.912 637.639 493.902 637.23C481.959 632.428 470.781 625.654 463.475 618.796C451.963 607.991 444.861 593.025 442.413 574.422C442.176 572.623 442.029 572.133 441.723 572.133C440.735 572.133 426.036 577.455 422.059 579.252C421.466 579.521 419.822 580.246 418.405 580.863C413.083 583.187 402.606 588.361 399.582 590.16C398.869 590.584 398.236 590.932 398.177 590.932C397.925 590.932 390.342 595.615 387.645 597.437C384.219 599.75 381.975 601.518 379.624 603.757C378.185 605.127 377.891 605.311 377.609 605.011C376.65 603.996 366.657 587.965 366.818 587.702C366.92 587.536 367.595 587.273 371.221 585.989C389.297 579.588 406.424 571.381 416.568 564.258C423.774 559.198 428.699 554.144 431.054 549.393C432.388 546.703 432.382 546.615 430.713 543.93C427.888 539.39 424.331 532.465 423.478 529.845C423.28 529.238 423.005 528.704 422.865 528.655C422.727 528.608 421.729 530.385 420.647 532.605ZM209.934 540.073C204.305 541.163 199.345 544.942 196.954 549.964C195.478 553.063 195.014 555.374 195.167 558.862C195.366 563.438 196.807 566.959 199.859 570.324C205.251 576.268 213.941 577.853 221.227 574.22C225.704 571.988 229.221 567.569 230.571 562.486C231.157 560.279 231.164 555.748 230.584 553.582C228.481 545.713 221.834 540.257 213.856 539.852C212.543 539.786 210.955 539.875 209.934 540.073ZM390.709 623.481C388.193 624.149 386.29 625.279 384.311 627.274C380.736 630.876 379.441 635.476 380.652 640.256C381.325 642.91 382.467 644.95 384.335 646.836C387.043 649.569 390.183 650.884 394.016 650.889C400.464 650.899 406.011 646.458 407.497 640.094C407.99 637.983 407.956 635.891 407.392 633.661C406.821 631.414 406.31 630.36 404.845 628.402C401.71 624.21 395.753 622.137 390.709 623.481Z" fill="white"/>
</svg>
