<svg width="1903" height="1051" viewBox="0 0 1903 1051" fill="none" xmlns="http://www.w3.org/2000/svg">
<mask id="path-1-inside-1_15_6" fill="white">
<path fill-rule="evenodd" clip-rule="evenodd" d="M1901.67 195.108C1900.27 183.538 1898.72 173.02 1897.34 165.802C1896.6 161.949 1895.64 156.935 1895.21 154.663C1891.41 134.91 1880.84 101.898 1870.96 79.0026C1851.74 34.4151 1825 -8.45098 1794.07 -44.2615C1783.37 -56.6451 1754.71 -83.9866 1740.91 -94.9623C1678.88 -144.313 1602.77 -183.15 1513.39 -211.053C1495.99 -216.479 1488.59 -218.642 1477.29 -221.561C1472.22 -222.877 1466.93 -224.284 1465.55 -224.689C1462.13 -225.686 1436.13 -231.441 1432.22 -232.062C1430.49 -232.342 1429.08 -232.385 1429.09 -232.166C1429.09 -231.784 1430.61 -228.384 1434.5 -220.061C1438.11 -212.345 1439.5 -209.348 1446.88 -193.378C1451.05 -184.351 1455.15 -175.479 1456 -173.677C1456.84 -171.868 1460.94 -163.003 1465.12 -153.969C1469.29 -144.943 1473.43 -135.983 1474.33 -134.064C1477.91 -126.405 1479.49 -123.005 1486.29 -108.332L1493.37 -93.0694L1509.11 -87.3441C1517.76 -84.1964 1527.29 -80.7703 1530.3 -79.7322C1533.3 -78.6974 1540.3 -76.1421 1545.85 -74.0679L1555.93 -70.2935L1556.01 -65.7503C1556.39 -43.9757 1556.12 28.3043 1555.65 28.8088C1555.33 29.1656 1551.32 29.1646 1546.75 28.8088C1542.18 28.4563 1532.8 27.847 1525.91 27.4642C1519.01 27.0782 1509.37 26.4562 1504.5 26.0821C1496.4 25.4503 1495.39 25.5321 1492.82 27.0152C1491.28 27.9065 1486.66 30.4822 1482.57 32.7382C1478.47 34.9942 1473.26 37.8876 1470.99 39.1732C1468.71 40.4554 1464.34 42.9053 1461.27 44.61C1458.2 46.318 1453.36 49.0124 1450.52 50.5983C1441.64 55.5544 1424.93 64.8714 1418.88 68.2317C1415.69 70.0059 1399.32 79.121 1382.48 88.504C1365.65 97.8871 1348.53 107.41 1344.43 109.673C1333.11 115.921 1333.58 114.809 1338.37 124.095C1340.62 128.465 1344.53 136.19 1347.08 141.271C1349.62 146.348 1352.02 150.493 1352.43 150.486C1352.84 150.479 1357.51 147.257 1362.82 143.326C1398.12 117.153 1440.77 97.7848 1484.1 88.2498C1498.41 85.0965 1522.97 82.1523 1536.88 81.9096C1549.91 81.682 1572.47 83.5135 1587.06 85.9869C1620.03 91.5734 1657.61 105.794 1699.04 128.368C1767.72 165.792 1815.74 215.681 1841.18 276.029C1851.21 299.843 1857.56 323.806 1861.03 350.993C1862.54 362.831 1862.46 362.711 1865.85 358.756C1882.38 339.441 1895.9 304.182 1900.55 268.267C1903.3 247.052 1903.82 212.871 1901.67 195.108ZM1770.94 57.9408C1770.59 57.9502 1758.97 54.4727 1745.12 50.2239C1731.26 45.9683 1717.1 41.7115 1713.63 40.7556C1710.17 39.8065 1705.77 38.5429 1703.86 37.9652C1689.66 33.6313 1659.82 27.5985 1653.18 27.7142L1649.1 27.7855L1648.95 18.8914C1648.59 -1.44194 1649.01 -43.3772 1649.57 -44.3088C1650.2 -45.3733 1650.82 -45.2726 1664.17 -41.8491C1713.24 -29.2877 1752.77 5.8527 1770.13 52.3231C1771.62 56.3218 1771.85 57.9181 1770.94 57.9408ZM1527.8 -13.9939C1527.59 -14.203 1526.85 -23.2962 1526.15 -34.2066C1525.44 -45.117 1524.63 -55.4379 1524.34 -57.1312C1523.74 -60.6322 1523.9 -60.5709 1509.29 -63.3005C1504.68 -64.1655 1499.4 -65.1842 1497.55 -65.5673C1493.69 -66.3643 1489.89 -67.1251 1475.37 -70.0083L1464.92 -72.0813L1455.39 -90.2455C1450.15 -100.229 1445.6 -108.652 1445.28 -108.953C1444.96 -109.258 1441.42 -107.603 1437.41 -105.284C1433.4 -102.959 1427.89 -99.7833 1425.16 -98.2366C1422.43 -96.6797 1414.06 -91.8775 1406.55 -87.5699C1399.05 -83.2589 1390.86 -78.5579 1388.36 -77.1367C1385.86 -75.7087 1370.23 -66.7654 1353.63 -57.2648C1337.03 -47.7642 1321.59 -38.9321 1319.32 -37.6297C1317.04 -36.334 1296.58 -24.6219 1273.83 -11.6006C1251.09 1.42398 1230.63 13.1395 1228.35 14.4386C1226.08 15.7343 1210.82 24.4787 1194.45 33.8571C1178.08 43.2389 1163.38 51.6426 1161.79 52.5381C1145.41 61.7006 1126.24 72.9782 1126.24 73.4372C1126.25 73.7545 1135.56 87.0099 1146.93 102.897C1158.31 118.78 1181.16 150.724 1197.71 173.877C1227.08 214.955 1233.78 224.255 1235.01 225.641C1235.53 226.223 1331.53 171.862 1333.77 169.726C1334.79 168.753 1337.19 171.77 1307.53 136.572C1293.57 120.011 1282.15 106.064 1282.14 105.584C1282.13 105.098 1293.77 98.6421 1307.99 91.2292C1322.22 83.8161 1340.56 74.2007 1348.75 69.8575C1356.94 65.521 1377.8 54.545 1395.1 45.4746C1412.39 36.4042 1440.09 21.8614 1456.65 13.155L1486.75 -2.66889L1506.07 -2.31386C1516.7 -2.11103 1525.96 -1.95194 1526.64 -1.9572C1527.62 -1.95729 1527.93 -3.25922 1528.04 -7.79558C1528.11 -10.9978 1528.01 -13.795 1527.8 -13.9939ZM1431.88 -165.808C1428.05 -173.932 1424.39 -181.688 1423.74 -183.044C1423.09 -184.4 1421.69 -187.354 1420.64 -189.608C1419.59 -191.868 1417.61 -196.017 1416.25 -198.833C1414.89 -201.642 1412.36 -207.078 1410.61 -210.906C1408.87 -214.739 1407.01 -218.204 1406.48 -218.617C1405.85 -219.102 1403.33 -218.11 1399.25 -215.762C1395.8 -213.778 1389.29 -210.119 1384.77 -207.629C1380.26 -205.136 1365.58 -196.956 1352.16 -189.449C1338.74 -181.935 1325.53 -174.55 1322.8 -173.023C1320.07 -171.497 1315.42 -168.9 1312.46 -167.241C1309.5 -165.589 1295.92 -157.999 1282.27 -150.369C1268.62 -142.737 1255.13 -135.198 1252.29 -133.609C1249.44 -132.023 1244.79 -129.416 1241.94 -127.83C1239.11 -126.238 1225.61 -118.696 1211.97 -111.07C1198.31 -103.441 1184.83 -95.8989 1181.98 -94.313C1179.14 -92.7203 1174.49 -90.1203 1171.65 -88.5311C1168.8 -86.9451 1155.49 -79.4976 1142.08 -71.9906C1128.65 -64.4836 1113.95 -56.306 1109.41 -53.8158C1104.85 -51.3289 1100.75 -49.0256 1100.31 -48.6903C1099.85 -48.3616 1095.38 -45.8695 1090.38 -43.1553C1085.37 -40.4377 1080.84 -37.7959 1080.3 -37.2766C1079.55 -36.5646 1081.68 -32.6413 1089.27 -20.7875C1094.75 -12.2361 1103.67 1.76197 1109.1 10.3175C1114.53 18.8663 1119.27 26.1847 1119.63 26.5767C1120.14 27.1284 1164.26 3.34476 1202.73 -18.2232C1205 -19.4953 1212.63 -23.7173 1219.69 -27.6085C1226.74 -31.4929 1234.74 -35.9138 1237.47 -37.4268C1240.2 -38.9466 1248.2 -43.3675 1255.26 -47.2587C1262.31 -51.1431 1270.31 -55.5708 1273.04 -57.0905C1275.77 -58.6103 1284.14 -63.2268 1291.65 -67.3522C1299.16 -71.4774 1307.16 -75.9018 1309.44 -77.184C1311.71 -78.4696 1319.71 -82.8905 1327.22 -87.0091C1334.73 -91.1378 1342.73 -95.5587 1345.01 -96.8409C1347.28 -98.1266 1355.29 -102.548 1362.79 -106.673C1370.3 -110.795 1378.68 -115.415 1381.4 -116.934C1389.78 -121.595 1409.07 -132.25 1418.21 -137.275C1435.38 -146.694 1438.46 -148.585 1438.65 -149.8C1438.75 -150.477 1435.7 -157.68 1431.88 -165.808ZM1174.08 188.771C1150.12 154.598 1130.01 126.536 1129.39 126.412C1128.78 126.288 1123.47 129.027 1117.59 132.5C1111.73 135.965 1105.06 139.863 1102.78 141.152C1100.51 142.448 1081.23 153.683 1059.93 166.129C1027.28 185.212 1021.03 188.579 1020.09 187.64C1017.35 184.905 986.99 138.388 987.328 137.461C987.541 136.89 1012.83 120.249 1043.54 100.484C1074.24 80.7229 1099.35 64.24 1099.35 63.8552C1099.34 63.4636 1096.57 59.1699 1093.19 54.3061C1089.81 49.4423 1076.47 30.0009 1063.55 11.1126C1050.63 -7.77917 1039.39 -23.9044 1038.57 -24.714C1037.12 -26.1439 1036.98 -26.1247 1034.67 -24.1396C1023.39 -14.4313 995.184 0.83275 970.634 10.5159C942.735 21.517 913.993 30.095 873.008 39.6363C864.315 41.6653 855.703 43.6962 853.878 44.1468C852.046 44.6075 844.187 46.416 836.408 48.1758C766.226 64.0138 727.344 76.4356 693.831 93.7134C674.409 103.733 657.051 115.711 645.052 127.383L639.567 132.716L648.655 148.285C659.222 166.39 662.198 171.531 668.609 182.696C671.193 187.203 674.386 192.738 675.698 194.988C677.01 197.24 685.54 211.988 694.641 227.759C703.749 243.537 712.265 258.282 713.577 260.538C714.886 262.787 717.073 266.612 718.436 269.032C719.798 271.457 721.396 273.613 721.987 273.826C722.582 274.045 729.835 270.015 738.118 264.863C746.399 259.718 766.52 247.205 782.839 237.055C799.156 226.897 812.968 218.759 813.522 218.962C814.729 219.397 860.089 280.447 860.11 281.662C860.118 282.118 856.492 284.241 852.049 286.388C847.613 288.532 841.368 291.551 838.181 293.096C834.99 294.641 827.166 298.427 820.788 301.506C814.409 304.586 806.022 308.645 802.152 310.526C798.285 312.41 791.385 315.758 786.831 317.972C782.278 320.188 775.288 323.582 771.303 325.515C767.319 327.449 764.089 329.433 764.121 329.929C764.15 330.424 770.153 334.851 777.447 339.764C784.742 344.685 808.777 361.036 830.858 376.115C865.05 399.453 897.924 421.802 931.016 444.211C947.082 455.086 957.816 461.932 958.768 461.915C960.264 461.889 982.142 448.71 996.982 438.889C1056.23 399.685 1125.38 346.205 1169.55 305.434C1192.08 284.63 1218.31 255.425 1217.77 251.755C1217.7 251.29 1198.04 222.944 1174.08 188.771ZM1028.08 -531.599C1027.67 -531.592 1027.09 -530.558 1026.8 -529.304C1024.58 -519.862 1006.78 -479.45 997.475 -462.736C973.746 -420.121 945.646 -392.97 907.847 -376.134C884.435 -365.714 850.922 -358.856 820.746 -358.323C767.291 -357.373 711.398 -391.785 655.4 -460.125C637.913 -481.456 618.533 -509.426 603.688 -534.741C600.712 -539.812 598 -543.953 597.662 -543.947C596.565 -543.928 596.113 -536.554 596.355 -522.703C596.485 -515.257 596.308 -509.163 595.963 -509.157C595.616 -509.151 592.801 -512.177 589.698 -515.874C568.881 -540.728 552.83 -565.046 532.308 -602.809C528.393 -610.025 522.467 -620.903 519.14 -626.99C496.963 -667.621 475.771 -697.901 445.598 -732.055C430.404 -749.255 401.605 -777.031 389.222 -786.442C326.832 -833.83 251.086 -856.458 160.018 -854.915C91.6054 -853.756 21.2466 -839.128 -40.9386 -813.135C-67.3655 -802.095 -83.4268 -793.385 -100.007 -781.115C-122.51 -764.46 -135.266 -756.685 -156.708 -746.567C-170.006 -740.295 -191.057 -733.286 -202.171 -731.433C-204.116 -731.113 -205.707 -730.524 -205.7 -730.127C-205.684 -729.205 -203.96 -728.925 -192.295 -727.954C-177.911 -726.763 -158.63 -723.804 -152.268 -721.819C-147.828 -720.436 -146.637 -719.715 -146.614 -718.407C-146.589 -716.958 -147.756 -716.511 -156.153 -714.753C-161.414 -713.65 -168.346 -712.087 -171.542 -711.271C-206.442 -702.443 -234.04 -681.143 -264.915 -639.218C-269.754 -632.644 -286.293 -607.05 -290.233 -600.036C-299.087 -584.268 -301.312 -580.192 -304.966 -573.078C-307.258 -568.604 -309.403 -564.571 -309.732 -564.11C-310.059 -563.649 -316.879 -549.721 -324.882 -533.161C-347.769 -485.831 -363.802 -457.115 -385.764 -424.16C-406.548 -392.974 -434.418 -358.578 -455.778 -337.761C-466.534 -327.275 -482.383 -313.517 -488.589 -309.276C-491.075 -307.574 -493.108 -305.874 -493.101 -305.49C-493.041 -302.027 -463.225 -307.541 -438.159 -315.653C-425.998 -319.589 -411.025 -324.662 -400.431 -328.432C-394.529 -330.541 -389.303 -332.138 -388.821 -331.988C-387.847 -331.684 -398.834 -323.97 -418.04 -311.473C-490.96 -264.031 -558.069 -229.771 -625.408 -205.636C-649.638 -196.951 -687.025 -186.142 -708.921 -181.496C-735.348 -175.882 -757.708 -172.494 -786.609 -169.717C-800.321 -168.397 -845.821 -167.603 -859.635 -168.439C-896.49 -170.662 -931.645 -175.687 -963.471 -183.272C-983.479 -188.042 -992.765 -190.591 -1013.19 -196.927C-1031.21 -202.514 -1060.08 -212.703 -1070.15 -217.021C-1073.05 -218.267 -1075.58 -219.287 -1075.77 -219.283C-1076.62 -219.268 -1107.35 -232.201 -1123.22 -239.254C-1128.02 -241.385 -1132.05 -243.124 -1132.17 -243.122C-1132.29 -243.12 -1140.68 -246.931 -1150.8 -251.582C-1190.45 -269.802 -1218.03 -282.394 -1224.79 -285.365C-1227.56 -286.583 -1233.96 -289.415 -1239.01 -291.657C-1244.07 -293.902 -1248.38 -295.555 -1248.6 -295.329C-1249.09 -294.817 -1246.87 -292.205 -1237.68 -282.486C-1111.52 -149.139 -983.246 12.3301 -886.999 158.952C-861.296 198.102 -831.426 246.417 -818.332 270.015C-815.547 275.035 -812.612 279.535 -811.82 280.011C-807.402 282.638 -779.753 285.36 -760.796 285.029C-751.534 284.867 -750.838 284.737 -749.885 283.042C-722.716 234.839 -633.555 135.03 -549.796 59.0572C-488.452 3.41374 -428.338 -41.4037 -379.961 -67.5643C-320.902 -99.5027 -249.845 -148.968 -172.848 -211.752C-108.411 -264.293 -35.8233 -329.36 23.1482 -387.43C48.4448 -412.347 55.6564 -418.946 63.6829 -424.512C78.7516 -434.968 90.0749 -436.577 103.55 -430.191C123.334 -420.816 148.784 -390.913 174.329 -347.034C180.313 -336.749 198.188 -302.851 203.086 -292.5C205.221 -287.986 207.941 -282.263 209.132 -279.779C213.418 -270.838 214.867 -267.697 220.086 -256.105C222.998 -249.633 225.383 -244.195 225.386 -244.019C225.389 -243.837 226.397 -241.619 227.629 -239.075C229.9 -234.361 248.253 -190.865 251.376 -182.789C252.317 -180.338 255.439 -172.421 258.317 -165.188C261.189 -157.952 264.147 -150.369 264.895 -148.333C269.305 -136.336 275.178 -120.988 275.625 -120.293C275.955 -119.786 276.638 -119.896 277.457 -120.582C280.166 -122.854 291.493 -139.303 307.644 -164.394C324.507 -190.596 330.938 -199.399 338.918 -207.219C373.213 -240.805 429.758 -265.187 501.876 -277.49C505.195 -278.058 507.907 -278.781 507.901 -279.098C507.896 -279.412 504.197 -281.427 499.679 -283.574C487.644 -289.299 448.99 -307.137 448.639 -307.131C448.477 -307.128 442.801 -309.639 436.025 -312.705C429.249 -315.774 423.392 -318.278 423.014 -318.272C422.632 -318.265 417.723 -320.195 412.097 -322.562C368.832 -340.755 336.157 -370.251 326.562 -399.763C325.452 -403.197 324.917 -407.348 324.812 -413.386C324.683 -421.133 324.899 -422.528 326.779 -426.254C329.37 -431.391 332.42 -434.429 337.279 -436.712C341.669 -438.774 345.951 -438.977 355.635 -437.569C397.497 -431.493 444.329 -408.199 498.86 -366.328C526.936 -344.767 547.545 -326.607 583.683 -291.583C596.538 -279.126 609.977 -266.101 613.559 -262.635C617.976 -258.367 620.702 -256.338 622.022 -256.358C624.54 -256.395 644.809 -251.742 655.736 -248.62C683.608 -240.649 702.325 -234.614 723.972 -226.605C741.103 -220.273 746.048 -219.373 762.413 -219.622C776.58 -219.842 784.611 -220.853 800.748 -224.464C811.645 -226.896 818.383 -228.736 830.259 -232.525C842.887 -236.548 867.505 -246.002 877.583 -250.699C879.616 -251.64 884.258 -253.767 887.903 -255.421C905.651 -263.462 931.784 -277.593 944.775 -286.18C951.054 -290.321 951.312 -290.615 950.8 -293.061C949.488 -299.352 948.964 -312.369 949.84 -316.922C951.282 -324.436 955.863 -332.974 961.615 -338.875C970.136 -347.617 981.189 -353.519 996.998 -357.756C1001.68 -359.009 1006.1 -360.582 1006.83 -361.257C1008.52 -362.802 1013.35 -373.022 1015.45 -379.508C1023.08 -403.036 1026.27 -426.575 1028.92 -478.766C1029.68 -493.902 1029.08 -531.616 1028.08 -531.599ZM908.859 454.777C908.278 454.375 905.721 453.184 903.174 452.138C883.664 444.125 850.415 426.446 831.101 413.808C759.132 366.734 700.306 302.958 650.668 218.182C641.718 202.901 620.851 163.015 620.818 161.132C620.815 160.959 619.877 158.869 618.731 156.488C617.592 154.108 614.82 147.906 612.575 142.709C610.327 137.514 608.02 132.791 607.442 132.216C606.611 131.387 604.409 131.375 596.87 132.165C591.629 132.712 581.712 133.652 574.832 134.261C567.948 134.868 557.446 135.797 551.486 136.33C545.519 136.859 535.014 137.789 528.131 138.402C521.257 139.012 511.127 139.931 505.619 140.446C500.114 140.964 486.42 142.165 475.18 143.115C463.946 144.07 454.46 145.12 454.104 145.447C453.749 145.774 467.58 168.472 484.839 195.881C502.105 223.293 516.229 245.956 516.234 246.243C516.239 246.53 508.656 248.097 499.386 249.731C480.872 252.991 448.291 259.833 430.109 264.277C423.705 265.844 416.967 267.457 415.14 267.86C401.048 270.98 362.627 281.968 345.334 287.814C329.011 293.326 312.571 300.872 312.605 302.83C312.619 303.66 334.127 326.498 361.094 354.321C383.227 377.161 382.51 376.123 377.012 377.246C370.559 378.564 349.195 386.203 334.63 392.41C315.328 400.63 291.66 415.508 280.242 426.596C270.043 436.512 261.644 449.006 259.861 456.941C259.579 458.195 258.848 459.238 258.24 459.248C256.887 459.272 248.149 450.568 243.956 445.01C224.515 419.28 209.714 365.803 210.508 324.192C210.648 316.764 211.141 309.051 211.61 307.051C212.071 305.047 212.262 303.231 212.032 303.008C211.805 302.79 208.336 306.156 204.329 310.497C170.393 347.206 138.425 392.849 131.627 414.283C130.075 419.159 130.01 420.288 130.931 425.674C131.492 428.963 132.399 434.532 132.96 438.05C144.473 511.09 189.484 558.705 266.757 579.617C289.025 585.644 307.102 588.563 338.363 591.191C343.861 591.649 348.122 591.669 348.533 591.233C348.928 590.824 349.957 587.683 350.819 584.254C359.635 549.256 371.258 529.456 394.051 510.634C439.547 473.05 496.208 456.307 545.767 465.801C568.96 470.245 593.263 481.813 612.911 497.768C619.939 503.473 630.225 513.393 637.562 521.554L641.804 526.264L651.425 527.295C670.307 529.308 680.354 531.388 690.387 535.353C693.617 536.63 696.907 537.663 697.697 537.649C698.929 537.628 718.611 533.459 727.498 531.335C737.148 529.033 739.174 528.451 739.531 527.847C740.086 526.922 691.89 483.117 648.323 444.951C584.893 389.385 537.865 351.384 511.513 334.402C506.869 331.404 502.952 328.69 502.818 328.368C502.681 328.043 512.065 327.346 523.671 326.822C535.273 326.299 555.282 325.342 568.131 324.696C580.984 324.059 595.627 323.476 600.681 323.398L609.866 323.268L622.152 335.631C628.898 342.428 642.864 356.409 653.173 366.696C663.482 376.98 675.955 389.423 680.883 394.351C709.49 422.923 749.552 462.251 769.313 481.151C791.447 502.334 792.122 502.892 795.363 502.836C801.675 502.726 830.087 496.919 840.011 493.71C872.891 483.081 897.965 470.576 907.004 460.306C910.199 456.678 910.462 455.907 908.859 454.777ZM817.033 12.5183C816.598 12.5259 812.34 10.9694 807.576 9.06044C802.816 7.15145 794.187 3.72301 788.404 1.44021C766.328 -7.2874 728.64 -22.7823 713.535 -29.339C710.527 -30.6472 703.811 -33.5586 698.61 -35.8043C693.405 -38.0499 686.429 -41.1458 683.11 -42.6748C679.788 -44.2071 676.962 -45.3598 676.843 -45.2496C676.723 -45.1294 672.983 -41.4142 668.539 -36.9912C648.72 -17.2546 624.159 -5.52514 592.934 -0.884572C581.911 0.756284 554.921 0.977522 541.157 -0.460321C510.325 -3.68349 476.077 -12.04 437.577 -25.7515C431.57 -27.8885 425.608 -29.9994 424.341 -30.4365C421.27 -31.5005 421.398 -32.6405 425.126 -37.4663C429.062 -42.5591 433.789 -47.0107 441.688 -53.0944C467.911 -73.2736 521.408 -96.8427 567.464 -108.512C570.779 -109.346 573.482 -110.369 573.475 -110.778C573.44 -112.8 558.49 -123.958 540.052 -135.72C518.859 -149.241 478.926 -171.712 451.859 -185.347L442.117 -190.251L432.298 -181.575C424.111 -174.341 393.136 -145.716 379.336 -132.618C377.3 -130.691 368.611 -122.659 360.02 -114.767C293.375 -53.5547 246.903 -17.3521 194.401 14.2557C145.852 43.4918 111.101 72.2069 60.1971 125.153C48.4678 137.357 33.1318 153.963 26.1149 162.047C4.56176 186.909 -17.9894 214.76 -17.9595 216.471C-17.941 217.527 19.7073 249.341 21.3373 249.681C21.9167 249.799 23.6363 247.912 25.1537 245.478C34.1832 231.031 64.5524 204.638 102.97 177.831C136.018 154.777 188.352 121.667 224.73 100.81C226.769 99.6336 233.841 95.5261 240.436 91.6801C247.027 87.8307 255.029 83.2173 258.213 81.4263C261.399 79.6352 267.166 76.3709 271.031 74.1763C292.782 61.7969 297.626 59.4232 298.75 60.5684C299.348 61.1826 306.087 70.9882 313.717 82.3618L327.593 103.043L324.687 107.115C321.813 111.143 314.186 117.965 306.94 122.99C301.846 126.533 288.515 133.802 283.034 136.039C280.563 137.044 277.021 138.578 275.159 139.451C273.3 140.324 263.938 143.837 254.348 147.256C227.175 156.948 205.858 165.95 185.125 176.481C96.2593 221.615 47.6999 282.931 30.7845 371.35C29.3831 378.688 28.8718 381.891 26.9337 395.623C24.3622 413.883 25.0332 433.755 28.7857 450.271C39.6773 498.205 76.7899 536.267 136.301 560.552C144.119 563.738 167.852 571.109 168.422 570.529C168.794 570.148 154.729 549.716 147.242 539.768C146.046 538.179 142.011 534.305 138.283 531.163C124.829 519.82 110.234 501.521 103.529 487.603C99.2337 478.669 98.1494 476.132 96.2166 470.44C91.8149 457.544 90.9623 452.032 90.6929 434.858C90.4888 421.42 90.7228 417.408 92.1038 410.837C97.0011 387.519 106.943 366.165 123.577 343.253C131.985 331.667 149.545 313.469 161.53 303.93C215.025 261.325 290.844 236.87 398.153 227.606C404.802 227.034 413.24 226.32 416.915 226.019C438.126 224.275 448.551 223.239 449.212 222.819C449.626 222.555 446.947 219.36 443.257 215.714C423.451 196.152 408.379 165.619 402.291 132.725C400.796 124.641 401.111 100.328 402.797 93.8163C404.904 85.6761 408.106 78.415 409.598 78.389C410.334 78.3761 414.91 79.2417 419.764 80.3117C424.628 81.3849 430.115 82.5857 431.956 82.9925C452.278 87.4154 484.991 91.0784 514.687 92.255C571.169 94.4869 633.614 86.0501 694.182 67.9894C714.964 61.7956 750.383 48.7049 764.498 42.0096C767.016 40.8177 769.247 39.83 769.453 39.8264C770.014 39.8166 779.931 35.0583 790.283 29.8299C805.733 22.0275 817.872 14.911 817.85 13.6723C817.839 13.0309 817.472 12.5106 817.033 12.5183ZM713.177 648.277C710.433 622.182 708.028 608.225 703.806 593.821C703.07 591.325 702.164 588.177 701.78 586.823C701.398 585.462 700.243 582.14 699.22 579.443C698.19 576.75 697.349 574.404 697.346 574.239C697.323 572.885 693.083 576.261 681.761 586.632L668.544 598.741L668.616 603.825C668.716 610.501 666.981 623.862 664.958 631.98C651.799 684.922 604.339 721.996 531.885 735.926C518.768 738.451 492.452 739.372 482.637 737.656C458.879 733.51 440.338 726.081 422.179 713.459L416.358 709.415L405.87 712.248C400.103 713.811 392.768 715.837 389.57 716.75C371.945 721.785 362.595 724.43 351.752 727.445C345.126 729.296 336.803 731.626 333.262 732.636C312.522 738.539 308.128 739.784 290.252 744.769C282.255 747.002 271.594 749.99 266.565 751.412C261.538 752.83 253.313 755.141 248.283 756.542C243.257 757.95 236.332 759.911 232.909 760.906C229.479 761.894 222.91 763.731 218.306 764.986C210.174 767.198 207.196 768.381 208.016 769.079C208.242 769.264 217.154 774.582 227.825 780.885C238.503 787.195 251.505 794.889 256.728 797.982C261.952 801.071 266.232 803.931 266.239 804.339C266.246 804.741 265.902 805.723 265.477 806.52C265.052 807.314 262.338 814.719 259.45 822.957C256.555 831.202 253.16 840.759 251.893 844.195C249.814 849.863 246.551 859.083 238.65 881.671C237.125 886.019 234.849 892.39 233.589 895.825C232.322 899.264 229.448 907.323 227.2 913.734C224.951 920.141 221.918 928.763 220.467 932.884C219.013 937.005 215.841 946.001 213.422 952.867C203.947 979.733 195.835 1002.61 190.989 1016.14C188.204 1023.92 186.117 1030.45 186.344 1030.68C187.443 1031.72 204.414 1026.23 263.488 1005.71C315.261 987.727 351.437 974.792 354.115 973.31C355.336 972.634 356.165 970.226 357.525 963.442C358.513 958.502 359.97 951.285 360.757 947.405C361.54 943.519 362.556 938.477 363.012 936.19C363.469 933.903 364.116 930.728 364.442 929.132C364.772 927.533 365.619 923.237 366.322 919.578C368.684 907.334 368.183 908.022 375.985 906.265C400.254 900.807 469.691 881.538 478.194 877.905C480.322 876.997 480.158 880.359 477.7 888.111C471.815 906.686 460.232 924.557 440.11 946.101C430.253 956.652 430.036 956.241 443.377 952.392C501.493 935.644 536.256 922.5 573.794 903.099C589.233 895.118 596.668 890.68 611.661 880.488C656.257 850.18 684.68 814.424 698.113 771.731C705.662 747.742 710.053 726.188 712.548 700.838C713.569 690.458 713.989 655.927 713.177 648.277ZM546.08 769.033C544.668 774.197 541.94 777.891 536.247 782.343C522.957 792.727 496.659 803.788 455.613 816.261C446.935 818.901 438.707 821.418 437.337 821.861C429.463 824.389 403.325 830.862 401.758 830.666C399.491 830.392 396.039 824.324 395.972 820.503C395.794 810.272 407.018 801.818 430.178 794.718C436.576 792.756 444.431 790.357 447.628 789.379C467.877 783.185 499.483 771.022 529.342 757.934C537.622 754.301 542.054 753.886 544.926 756.466C547.186 758.5 547.632 763.344 546.08 769.033ZM375.936 682.343C365.723 671.534 356.939 648.421 352.028 619.463C351.275 615.019 350.472 611.207 350.239 610.989C350.012 610.766 347.268 611.017 344.144 611.544C341.03 612.068 335.096 612.958 330.973 613.523C302.231 617.452 275.446 622.096 261.862 625.51C260.036 625.971 256.012 626.963 252.922 627.722C225.021 634.56 198.041 642.696 164.098 654.515C144.073 661.482 140.748 662.708 115.275 672.489C94.41 680.497 55.9298 696.194 29.0277 707.663C-34.8812 734.919 -83.9158 763.981 -125.966 799.543C-138.134 809.837 -167.561 840.515 -175.939 851.662C-185.386 864.222 -195.493 880.024 -201.085 890.997C-205.89 900.44 -212.364 916.996 -213.212 922.022L-213.732 925.117L-193.461 944.751C-182.316 955.55 -166.384 970.409 -158.054 977.762C-145.589 988.778 -142.735 990.943 -141.901 989.993C-141.345 989.366 -137.827 984.699 -134.09 979.623C-115.823 954.869 -95.1231 933.952 -76.1329 921.067C-54.58 906.443 -35.5004 902.939 -18.662 910.502C0.878582 919.284 5.53066 935.491 -5.17642 957.513C-14.2343 976.14 -38.5876 1003.07 -63.5324 1022.02C-67.2045 1024.82 -70.3261 1027.42 -70.4645 1027.81C-70.8766 1028.96 -59.7297 1033.88 -49.0454 1037.25C-29.5677 1043.39 -3.72461 1047.66 23.7163 1049.26C30.155 1049.64 38.995 1050.25 43.3673 1050.62C53.5927 1051.5 110.329 1050.51 121.811 1049.25C126.65 1048.72 136.014 1047.83 142.628 1047.25C149.243 1046.69 154.973 1045.9 155.351 1045.51C155.935 1044.91 158.959 1034.8 161.505 1024.95C162.194 1022.28 169.393 996.361 178.942 962.16C182.186 950.539 183.03 947.414 184.203 942.826C184.831 940.333 198.184 890.602 199.997 883.997C201.641 877.998 209.265 847.444 211.677 837.222L214.172 826.597L210.555 822.112C201.593 811.005 184.59 802.746 159.074 797.097C146.814 794.383 123.183 790.889 110.42 789.903C107.312 789.66 104.548 789.124 104.277 788.714C102.914 786.61 115.32 770.839 125.05 762.292C162.049 729.81 230.335 707.08 330.761 693.821C346.624 691.728 376.708 688.083 378.386 688.053C380.283 688.02 379.448 686.06 375.936 682.343ZM249.049 597.281C248.475 597.136 246.117 596.65 243.813 596.201C238.802 595.218 227.928 592.953 215.317 590.259C205.825 588.234 188.734 587.124 155.305 586.377C142.5 586.087 140.264 586.218 139.034 587.35C135.322 590.767 98.8119 610.414 74.7235 621.956C70.6217 623.918 63.5368 627.327 58.9832 629.52C54.4328 631.707 35.2289 640.672 16.322 649.429C-17.1812 664.951 -52.4796 682.46 -66.2953 690.423C-121.839 722.421 -154.62 756.508 -197.472 826.796C-212.555 851.535 -216.871 859.001 -216.088 858.987C-215.906 858.984 -211.141 853.59 -205.496 847.008C-177.68 814.545 -143.092 784.232 -99.3185 753.949C-53.2603 722.072 -12.0363 699.338 58.7988 666.738C64.0374 664.327 104.557 647.474 113.937 643.802C133.048 636.324 166.069 624.518 184.489 618.592C190.657 616.603 196.632 614.629 197.776 614.2C201.258 612.883 234.261 603.13 242.438 601.002C249.53 599.15 251.673 597.944 249.049 597.281ZM212.894 -114.735C209.42 -122.649 201.477 -139.393 196.142 -150.03C193.431 -155.442 188.736 -164.861 185.712 -170.954C174.006 -194.529 98.3444 -337.31 97.3903 -337.614C96.8402 -337.79 92.6195 -337.605 88.0111 -337.197C56.406 -334.411 22.7376 -318.295 -19.6276 -285.692C-53.1639 -259.882 -88.0639 -226.116 -143.752 -165.615C-179.611 -126.66 -186.003 -120.515 -217.163 -95.1042C-262.873 -57.8243 -356.096 10.463 -436.308 65.4296C-446.411 72.352 -454.659 78.4182 -454.64 78.9142C-454.615 79.5857 -414.086 127.292 -410.398 130.989C-410.055 131.335 -398.623 125.864 -385 118.833C-371.374 111.802 -357.432 104.708 -354.014 103.065C-350.595 101.422 -344.451 98.4412 -340.35 96.4417C-326.848 89.8517 -322.259 87.739 -310.214 82.6026C-303.669 79.8075 -297.982 77.7128 -297.587 77.949C-295.956 78.9099 -291.247 96.0473 -285.721 121.145C-283.792 129.914 -281.752 139.825 -276.041 168.152C-275.541 170.641 -274.304 176.951 -273.291 182.17C-272.281 187.389 -271.037 193.695 -270.527 196.191C-267.16 212.683 -266.305 218.533 -267.147 219.247C-268.205 220.143 -288.27 228.502 -304.529 234.806C-310.914 237.291 -318.939 240.433 -322.362 241.796C-344.415 250.591 -403.32 271.669 -424.452 278.321C-437.776 282.521 -437.886 282.58 -437.36 285.083C-436.517 289.103 -435.852 295.466 -434.707 310.559C-432.768 335.963 -434.541 368.647 -439.853 405.498C-440.7 411.354 -441.201 416.33 -440.971 416.549C-440.339 417.149 -400.574 407.747 -368.048 399.299C-277.444 375.784 -204.849 343.603 -148.139 301.823C-113.76 276.497 -80.6302 243.276 -40.4363 193.829C-8.42323 154.449 22.9487 110.839 73.5343 35.425C109.019 -17.4812 116.065 -27.1493 128.259 -39.6555C142.266 -54.0336 151.214 -61.1452 191.525 -89.9573C205.261 -99.7725 215.331 -107.998 215.137 -109.254C215.091 -109.557 214.086 -112.028 212.894 -114.735ZM124.826 -118.323C122.413 -99.5049 116.81 -83.9263 106.948 -68.6077C101.806 -60.634 85.7504 -44.0626 78.2154 -38.9644C53.8421 -22.4707 26.2057 -15.5428 -1.01301 -19.1127C-25.0472 -22.2621 -45.4451 -31.6065 -63.0203 -47.5267C-78.9248 -61.9364 -90.2456 -80.2955 -95.7389 -100.6C-100.298 -117.46 -100.954 -132.851 -97.8098 -149.606C-92.0995 -180.124 -74.8112 -205.981 -48.5412 -223.302C-38.5773 -229.867 -24.3563 -235.69 -10.6149 -238.82C0.610762 -241.382 19.3178 -241.861 30.8658 -239.888C78.8832 -231.671 115.562 -195.441 123.934 -147.946C125.407 -139.588 125.812 -126.049 124.826 -118.323ZM110.749 566.218C32.2817 529.66 -15.0976 470.181 -28.265 391.68C-30.1979 380.177 -32.1417 360.118 -32.3307 349.674C-32.7343 327.907 -29.9908 297.833 -25.3825 273.435C-24.1739 267.04 -23.3155 261.677 -23.4839 261.511C-23.642 261.348 -29.5941 266.797 -36.7071 273.623C-93.5095 328.103 -154.688 366.504 -212.147 383.737C-216.94 385.178 -222.078 386.622 -223.561 386.952C-225.048 387.281 -226.449 387.866 -226.681 388.255C-226.914 388.644 -224.711 391.067 -221.793 393.64C-210.141 403.913 -190.639 423.237 -184.535 430.559C-164.933 454.074 -156.329 472.886 -155.979 492.963C-155.62 513.505 -164.106 531.248 -183.143 549.735C-197.048 563.237 -201.41 565.791 -216.837 569.46C-226.739 571.811 -247.43 572.962 -257.22 571.701C-294.126 566.94 -322.773 540.891 -333.018 502.775C-334.603 496.874 -334.967 493.213 -335.177 481.187C-335.4 468.013 -335.23 465.967 -333.295 458.444C-332.129 453.896 -329.922 447.443 -328.393 444.107C-326.868 440.768 -325.624 437.762 -325.629 437.434C-325.646 436.509 -331.166 442.143 -344.419 456.599C-385.961 501.913 -422.93 550.446 -448.199 592.822C-459.558 611.887 -472.909 637.794 -472.058 639.117C-471.795 639.514 -467.543 641.682 -462.605 643.922C-397.345 673.586 -343.396 720.055 -303.809 780.724C-299.535 787.267 -296.039 792.767 -296.036 792.942C-296.032 793.125 -294.821 795.224 -293.341 797.605C-283.996 812.67 -269.105 843.871 -260.033 867.405C-259.206 869.552 -258.253 871.304 -257.909 871.298C-257.568 871.292 -256.471 868.95 -255.474 866.086C-252.455 857.424 -242.729 831.067 -241.563 828.396C-240.963 827.018 -239.404 823.078 -238.083 819.644C-222.578 779.049 -200.372 740.92 -177.654 715.856C-141.862 676.362 -91.7641 651.508 -29.1163 642.15C-23.058 641.244 -21.4127 640.719 -21.4307 639.686C-21.489 636.351 -40.3188 587.05 -46.6186 573.732C-47.5615 571.746 -50.1054 566.24 -52.2715 561.493C-60.4294 543.666 -78.5109 508.607 -84.7613 498.506C-86.2345 496.125 -87.4465 494.008 -87.45 493.809C-87.4649 492.959 -103.719 467.639 -110.027 458.643C-118.036 447.215 -124.136 439.745 -131.832 431.942C-136.541 427.165 -137.18 426.184 -136.184 425.214C-132.814 421.917 -79.2924 387.243 -78.3952 387.771C-77.8289 388.105 -76.9014 390.368 -72.3537 402.532C-49.683 463.168 -20.9722 520.494 3.66823 554.314C21.1722 578.339 38.5214 594.665 54.6966 602.334C63.8549 606.678 64.1516 606.653 73.1162 600.861C88.2739 591.058 111.439 578.644 120.232 575.611C122.269 574.907 124.055 573.947 124.212 573.471C124.363 573.003 118.306 569.739 110.749 566.218ZM73.1272 -144.577C69.1164 -163.513 56.0687 -180.032 38.9767 -187.807C28.4295 -192.606 20.6016 -194.036 8.83736 -193.314C-6.59662 -192.373 -18.3963 -187.302 -29.5746 -176.802C-49.3201 -158.252 -54.1581 -128.826 -41.4661 -104.447C-33.6685 -89.4674 -18.5457 -77.8566 -1.30916 -73.5993C6.17481 -71.7513 21.4692 -71.9946 28.7461 -74.08C55.183 -81.642 73.2073 -104.399 74.1043 -131.352C74.2497 -135.788 73.8557 -141.143 73.1272 -144.577ZM-197.755 470.52C-200.158 462.066 -204.084 455.71 -210.935 449.147C-223.303 437.293 -238.906 433.193 -254.969 437.562C-263.888 439.99 -270.706 443.964 -276.962 450.381C-286.028 459.682 -290.281 470.358 -290.072 483.297C-289.726 505.062 -274.409 523.523 -252.841 528.164C-245.686 529.704 -238.627 529.466 -231.133 527.431C-223.583 525.371 -220.055 523.584 -213.532 518.524C-199.567 507.695 -192.921 487.466 -197.755 470.52Z"/>
</mask>
<path fill-rule="evenodd" clip-rule="evenodd" d="M1901.67 195.108C1900.27 183.538 1898.72 173.02 1897.34 165.802C1896.6 161.949 1895.64 156.935 1895.21 154.663C1891.41 134.91 1880.84 101.898 1870.96 79.0026C1851.74 34.4151 1825 -8.45098 1794.07 -44.2615C1783.37 -56.6451 1754.71 -83.9866 1740.91 -94.9623C1678.88 -144.313 1602.77 -183.15 1513.39 -211.053C1495.99 -216.479 1488.59 -218.642 1477.29 -221.561C1472.22 -222.877 1466.93 -224.284 1465.55 -224.689C1462.13 -225.686 1436.13 -231.441 1432.22 -232.062C1430.49 -232.342 1429.08 -232.385 1429.09 -232.166C1429.09 -231.784 1430.61 -228.384 1434.5 -220.061C1438.11 -212.345 1439.5 -209.348 1446.88 -193.378C1451.05 -184.351 1455.15 -175.479 1456 -173.677C1456.84 -171.868 1460.94 -163.003 1465.12 -153.969C1469.29 -144.943 1473.43 -135.983 1474.33 -134.064C1477.91 -126.405 1479.49 -123.005 1486.29 -108.332L1493.37 -93.0694L1509.11 -87.3441C1517.76 -84.1964 1527.29 -80.7703 1530.3 -79.7322C1533.3 -78.6974 1540.3 -76.1421 1545.85 -74.0679L1555.93 -70.2935L1556.01 -65.7503C1556.39 -43.9757 1556.12 28.3043 1555.65 28.8088C1555.33 29.1656 1551.32 29.1646 1546.75 28.8088C1542.18 28.4563 1532.8 27.847 1525.91 27.4642C1519.01 27.0782 1509.37 26.4562 1504.5 26.0821C1496.4 25.4503 1495.39 25.5321 1492.82 27.0152C1491.28 27.9065 1486.66 30.4822 1482.57 32.7382C1478.47 34.9942 1473.26 37.8876 1470.99 39.1732C1468.71 40.4554 1464.34 42.9053 1461.27 44.61C1458.2 46.318 1453.36 49.0124 1450.52 50.5983C1441.64 55.5544 1424.93 64.8714 1418.88 68.2317C1415.69 70.0059 1399.32 79.121 1382.48 88.504C1365.65 97.8871 1348.53 107.41 1344.43 109.673C1333.11 115.921 1333.58 114.809 1338.37 124.095C1340.62 128.465 1344.53 136.19 1347.08 141.271C1349.62 146.348 1352.02 150.493 1352.43 150.486C1352.84 150.479 1357.51 147.257 1362.82 143.326C1398.12 117.153 1440.77 97.7848 1484.1 88.2498C1498.41 85.0965 1522.97 82.1523 1536.88 81.9096C1549.91 81.682 1572.47 83.5135 1587.06 85.9869C1620.03 91.5734 1657.61 105.794 1699.04 128.368C1767.72 165.792 1815.74 215.681 1841.18 276.029C1851.21 299.843 1857.56 323.806 1861.03 350.993C1862.54 362.831 1862.46 362.711 1865.85 358.756C1882.38 339.441 1895.9 304.182 1900.55 268.267C1903.3 247.052 1903.82 212.871 1901.67 195.108ZM1770.94 57.9408C1770.59 57.9502 1758.97 54.4727 1745.12 50.2239C1731.26 45.9683 1717.1 41.7115 1713.63 40.7556C1710.17 39.8065 1705.77 38.5429 1703.86 37.9652C1689.66 33.6313 1659.82 27.5985 1653.18 27.7142L1649.1 27.7855L1648.95 18.8914C1648.59 -1.44194 1649.01 -43.3772 1649.57 -44.3088C1650.2 -45.3733 1650.82 -45.2726 1664.17 -41.8491C1713.24 -29.2877 1752.77 5.8527 1770.13 52.3231C1771.62 56.3218 1771.85 57.9181 1770.94 57.9408ZM1527.8 -13.9939C1527.59 -14.203 1526.85 -23.2962 1526.15 -34.2066C1525.44 -45.117 1524.63 -55.4379 1524.34 -57.1312C1523.74 -60.6322 1523.9 -60.5709 1509.29 -63.3005C1504.68 -64.1655 1499.4 -65.1842 1497.55 -65.5673C1493.69 -66.3643 1489.89 -67.1251 1475.37 -70.0083L1464.92 -72.0813L1455.39 -90.2455C1450.15 -100.229 1445.6 -108.652 1445.28 -108.953C1444.96 -109.258 1441.42 -107.603 1437.41 -105.284C1433.4 -102.959 1427.89 -99.7833 1425.16 -98.2366C1422.43 -96.6797 1414.06 -91.8775 1406.55 -87.5699C1399.05 -83.2589 1390.86 -78.5579 1388.36 -77.1367C1385.86 -75.7087 1370.23 -66.7654 1353.63 -57.2648C1337.03 -47.7642 1321.59 -38.9321 1319.32 -37.6297C1317.04 -36.334 1296.58 -24.6219 1273.83 -11.6006C1251.09 1.42398 1230.63 13.1395 1228.35 14.4386C1226.08 15.7343 1210.82 24.4787 1194.45 33.8571C1178.08 43.2389 1163.38 51.6426 1161.79 52.5381C1145.41 61.7006 1126.24 72.9782 1126.24 73.4372C1126.25 73.7545 1135.56 87.0099 1146.93 102.897C1158.31 118.78 1181.16 150.724 1197.71 173.877C1227.08 214.955 1233.78 224.255 1235.01 225.641C1235.53 226.223 1331.53 171.862 1333.77 169.726C1334.79 168.753 1337.19 171.77 1307.53 136.572C1293.57 120.011 1282.15 106.064 1282.14 105.584C1282.13 105.098 1293.77 98.6421 1307.99 91.2292C1322.22 83.8161 1340.56 74.2007 1348.75 69.8575C1356.94 65.521 1377.8 54.545 1395.1 45.4746C1412.39 36.4042 1440.09 21.8614 1456.65 13.155L1486.75 -2.66889L1506.07 -2.31386C1516.7 -2.11103 1525.96 -1.95194 1526.64 -1.9572C1527.62 -1.95729 1527.93 -3.25922 1528.04 -7.79558C1528.11 -10.9978 1528.01 -13.795 1527.8 -13.9939ZM1431.88 -165.808C1428.05 -173.932 1424.39 -181.688 1423.74 -183.044C1423.09 -184.4 1421.69 -187.354 1420.64 -189.608C1419.59 -191.868 1417.61 -196.017 1416.25 -198.833C1414.89 -201.642 1412.36 -207.078 1410.61 -210.906C1408.87 -214.739 1407.01 -218.204 1406.48 -218.617C1405.85 -219.102 1403.33 -218.11 1399.25 -215.762C1395.8 -213.778 1389.29 -210.119 1384.77 -207.629C1380.26 -205.136 1365.58 -196.956 1352.16 -189.449C1338.74 -181.935 1325.53 -174.55 1322.8 -173.023C1320.07 -171.497 1315.42 -168.9 1312.46 -167.241C1309.5 -165.589 1295.92 -157.999 1282.27 -150.369C1268.62 -142.737 1255.13 -135.198 1252.29 -133.609C1249.44 -132.023 1244.79 -129.416 1241.94 -127.83C1239.11 -126.238 1225.61 -118.696 1211.97 -111.07C1198.31 -103.441 1184.83 -95.8989 1181.98 -94.313C1179.14 -92.7203 1174.49 -90.1203 1171.65 -88.5311C1168.8 -86.9451 1155.49 -79.4976 1142.08 -71.9906C1128.65 -64.4836 1113.95 -56.306 1109.41 -53.8158C1104.85 -51.3289 1100.75 -49.0256 1100.31 -48.6903C1099.85 -48.3616 1095.38 -45.8695 1090.38 -43.1553C1085.37 -40.4377 1080.84 -37.7959 1080.3 -37.2766C1079.55 -36.5646 1081.68 -32.6413 1089.27 -20.7875C1094.75 -12.2361 1103.67 1.76197 1109.1 10.3175C1114.53 18.8663 1119.27 26.1847 1119.63 26.5767C1120.14 27.1284 1164.26 3.34476 1202.73 -18.2232C1205 -19.4953 1212.63 -23.7173 1219.69 -27.6085C1226.74 -31.4929 1234.74 -35.9138 1237.47 -37.4268C1240.2 -38.9466 1248.2 -43.3675 1255.26 -47.2587C1262.31 -51.1431 1270.31 -55.5708 1273.04 -57.0905C1275.77 -58.6103 1284.14 -63.2268 1291.65 -67.3522C1299.16 -71.4774 1307.16 -75.9018 1309.44 -77.184C1311.71 -78.4696 1319.71 -82.8905 1327.22 -87.0091C1334.73 -91.1378 1342.73 -95.5587 1345.01 -96.8409C1347.28 -98.1266 1355.29 -102.548 1362.79 -106.673C1370.3 -110.795 1378.68 -115.415 1381.4 -116.934C1389.78 -121.595 1409.07 -132.25 1418.21 -137.275C1435.38 -146.694 1438.46 -148.585 1438.65 -149.8C1438.75 -150.477 1435.7 -157.68 1431.88 -165.808ZM1174.08 188.771C1150.12 154.598 1130.01 126.536 1129.39 126.412C1128.78 126.288 1123.47 129.027 1117.59 132.5C1111.73 135.965 1105.06 139.863 1102.78 141.152C1100.51 142.448 1081.23 153.683 1059.93 166.129C1027.28 185.212 1021.03 188.579 1020.09 187.64C1017.35 184.905 986.99 138.388 987.328 137.461C987.541 136.89 1012.83 120.249 1043.54 100.484C1074.24 80.7229 1099.35 64.24 1099.35 63.8552C1099.34 63.4636 1096.57 59.1699 1093.19 54.3061C1089.81 49.4423 1076.47 30.0009 1063.55 11.1126C1050.63 -7.77917 1039.39 -23.9044 1038.57 -24.714C1037.12 -26.1439 1036.98 -26.1247 1034.67 -24.1396C1023.39 -14.4313 995.184 0.83275 970.634 10.5159C942.735 21.517 913.993 30.095 873.008 39.6363C864.315 41.6653 855.703 43.6962 853.878 44.1468C852.046 44.6075 844.187 46.416 836.408 48.1758C766.226 64.0138 727.344 76.4356 693.831 93.7134C674.409 103.733 657.051 115.711 645.052 127.383L639.567 132.716L648.655 148.285C659.222 166.39 662.198 171.531 668.609 182.696C671.193 187.203 674.386 192.738 675.698 194.988C677.01 197.24 685.54 211.988 694.641 227.759C703.749 243.537 712.265 258.282 713.577 260.538C714.886 262.787 717.073 266.612 718.436 269.032C719.798 271.457 721.396 273.613 721.987 273.826C722.582 274.045 729.835 270.015 738.118 264.863C746.399 259.718 766.52 247.205 782.839 237.055C799.156 226.897 812.968 218.759 813.522 218.962C814.729 219.397 860.089 280.447 860.11 281.662C860.118 282.118 856.492 284.241 852.049 286.388C847.613 288.532 841.368 291.551 838.181 293.096C834.99 294.641 827.166 298.427 820.788 301.506C814.409 304.586 806.022 308.645 802.152 310.526C798.285 312.41 791.385 315.758 786.831 317.972C782.278 320.188 775.288 323.582 771.303 325.515C767.319 327.449 764.089 329.433 764.121 329.929C764.15 330.424 770.153 334.851 777.447 339.764C784.742 344.685 808.777 361.036 830.858 376.115C865.05 399.453 897.924 421.802 931.016 444.211C947.082 455.086 957.816 461.932 958.768 461.915C960.264 461.889 982.142 448.71 996.982 438.889C1056.23 399.685 1125.38 346.205 1169.55 305.434C1192.08 284.63 1218.31 255.425 1217.77 251.755C1217.7 251.29 1198.04 222.944 1174.08 188.771ZM1028.08 -531.599C1027.67 -531.592 1027.09 -530.558 1026.8 -529.304C1024.58 -519.862 1006.78 -479.45 997.475 -462.736C973.746 -420.121 945.646 -392.97 907.847 -376.134C884.435 -365.714 850.922 -358.856 820.746 -358.323C767.291 -357.373 711.398 -391.785 655.4 -460.125C637.913 -481.456 618.533 -509.426 603.688 -534.741C600.712 -539.812 598 -543.953 597.662 -543.947C596.565 -543.928 596.113 -536.554 596.355 -522.703C596.485 -515.257 596.308 -509.163 595.963 -509.157C595.616 -509.151 592.801 -512.177 589.698 -515.874C568.881 -540.728 552.83 -565.046 532.308 -602.809C528.393 -610.025 522.467 -620.903 519.14 -626.99C496.963 -667.621 475.771 -697.901 445.598 -732.055C430.404 -749.255 401.605 -777.031 389.222 -786.442C326.832 -833.83 251.086 -856.458 160.018 -854.915C91.6054 -853.756 21.2466 -839.128 -40.9386 -813.135C-67.3655 -802.095 -83.4268 -793.385 -100.007 -781.115C-122.51 -764.46 -135.266 -756.685 -156.708 -746.567C-170.006 -740.295 -191.057 -733.286 -202.171 -731.433C-204.116 -731.113 -205.707 -730.524 -205.7 -730.127C-205.684 -729.205 -203.96 -728.925 -192.295 -727.954C-177.911 -726.763 -158.63 -723.804 -152.268 -721.819C-147.828 -720.436 -146.637 -719.715 -146.614 -718.407C-146.589 -716.958 -147.756 -716.511 -156.153 -714.753C-161.414 -713.65 -168.346 -712.087 -171.542 -711.271C-206.442 -702.443 -234.04 -681.143 -264.915 -639.218C-269.754 -632.644 -286.293 -607.05 -290.233 -600.036C-299.087 -584.268 -301.312 -580.192 -304.966 -573.078C-307.258 -568.604 -309.403 -564.571 -309.732 -564.11C-310.059 -563.649 -316.879 -549.721 -324.882 -533.161C-347.769 -485.831 -363.802 -457.115 -385.764 -424.16C-406.548 -392.974 -434.418 -358.578 -455.778 -337.761C-466.534 -327.275 -482.383 -313.517 -488.589 -309.276C-491.075 -307.574 -493.108 -305.874 -493.101 -305.49C-493.041 -302.027 -463.225 -307.541 -438.159 -315.653C-425.998 -319.589 -411.025 -324.662 -400.431 -328.432C-394.529 -330.541 -389.303 -332.138 -388.821 -331.988C-387.847 -331.684 -398.834 -323.97 -418.04 -311.473C-490.96 -264.031 -558.069 -229.771 -625.408 -205.636C-649.638 -196.951 -687.025 -186.142 -708.921 -181.496C-735.348 -175.882 -757.708 -172.494 -786.609 -169.717C-800.321 -168.397 -845.821 -167.603 -859.635 -168.439C-896.49 -170.662 -931.645 -175.687 -963.471 -183.272C-983.479 -188.042 -992.765 -190.591 -1013.19 -196.927C-1031.21 -202.514 -1060.08 -212.703 -1070.15 -217.021C-1073.05 -218.267 -1075.58 -219.287 -1075.77 -219.283C-1076.62 -219.268 -1107.35 -232.201 -1123.22 -239.254C-1128.02 -241.385 -1132.05 -243.124 -1132.17 -243.122C-1132.29 -243.12 -1140.68 -246.931 -1150.8 -251.582C-1190.45 -269.802 -1218.03 -282.394 -1224.79 -285.365C-1227.56 -286.583 -1233.96 -289.415 -1239.01 -291.657C-1244.07 -293.902 -1248.38 -295.555 -1248.6 -295.329C-1249.09 -294.817 -1246.87 -292.205 -1237.68 -282.486C-1111.52 -149.139 -983.246 12.3301 -886.999 158.952C-861.296 198.102 -831.426 246.417 -818.332 270.015C-815.547 275.035 -812.612 279.535 -811.82 280.011C-807.402 282.638 -779.753 285.36 -760.796 285.029C-751.534 284.867 -750.838 284.737 -749.885 283.042C-722.716 234.839 -633.555 135.03 -549.796 59.0572C-488.452 3.41374 -428.338 -41.4037 -379.961 -67.5643C-320.902 -99.5027 -249.845 -148.968 -172.848 -211.752C-108.411 -264.293 -35.8233 -329.36 23.1482 -387.43C48.4448 -412.347 55.6564 -418.946 63.6829 -424.512C78.7516 -434.968 90.0749 -436.577 103.55 -430.191C123.334 -420.816 148.784 -390.913 174.329 -347.034C180.313 -336.749 198.188 -302.851 203.086 -292.5C205.221 -287.986 207.941 -282.263 209.132 -279.779C213.418 -270.838 214.867 -267.697 220.086 -256.105C222.998 -249.633 225.383 -244.195 225.386 -244.019C225.389 -243.837 226.397 -241.619 227.629 -239.075C229.9 -234.361 248.253 -190.865 251.376 -182.789C252.317 -180.338 255.439 -172.421 258.317 -165.188C261.189 -157.952 264.147 -150.369 264.895 -148.333C269.305 -136.336 275.178 -120.988 275.625 -120.293C275.955 -119.786 276.638 -119.896 277.457 -120.582C280.166 -122.854 291.493 -139.303 307.644 -164.394C324.507 -190.596 330.938 -199.399 338.918 -207.219C373.213 -240.805 429.758 -265.187 501.876 -277.49C505.195 -278.058 507.907 -278.781 507.901 -279.098C507.896 -279.412 504.197 -281.427 499.679 -283.574C487.644 -289.299 448.99 -307.137 448.639 -307.131C448.477 -307.128 442.801 -309.639 436.025 -312.705C429.249 -315.774 423.392 -318.278 423.014 -318.272C422.632 -318.265 417.723 -320.195 412.097 -322.562C368.832 -340.755 336.157 -370.251 326.562 -399.763C325.452 -403.197 324.917 -407.348 324.812 -413.386C324.683 -421.133 324.899 -422.528 326.779 -426.254C329.37 -431.391 332.42 -434.429 337.279 -436.712C341.669 -438.774 345.951 -438.977 355.635 -437.569C397.497 -431.493 444.329 -408.199 498.86 -366.328C526.936 -344.767 547.545 -326.607 583.683 -291.583C596.538 -279.126 609.977 -266.101 613.559 -262.635C617.976 -258.367 620.702 -256.338 622.022 -256.358C624.54 -256.395 644.809 -251.742 655.736 -248.62C683.608 -240.649 702.325 -234.614 723.972 -226.605C741.103 -220.273 746.048 -219.373 762.413 -219.622C776.58 -219.842 784.611 -220.853 800.748 -224.464C811.645 -226.896 818.383 -228.736 830.259 -232.525C842.887 -236.548 867.505 -246.002 877.583 -250.699C879.616 -251.64 884.258 -253.767 887.903 -255.421C905.651 -263.462 931.784 -277.593 944.775 -286.18C951.054 -290.321 951.312 -290.615 950.8 -293.061C949.488 -299.352 948.964 -312.369 949.84 -316.922C951.282 -324.436 955.863 -332.974 961.615 -338.875C970.136 -347.617 981.189 -353.519 996.998 -357.756C1001.68 -359.009 1006.1 -360.582 1006.83 -361.257C1008.52 -362.802 1013.35 -373.022 1015.45 -379.508C1023.08 -403.036 1026.27 -426.575 1028.92 -478.766C1029.68 -493.902 1029.08 -531.616 1028.08 -531.599ZM908.859 454.777C908.278 454.375 905.721 453.184 903.174 452.138C883.664 444.125 850.415 426.446 831.101 413.808C759.132 366.734 700.306 302.958 650.668 218.182C641.718 202.901 620.851 163.015 620.818 161.132C620.815 160.959 619.877 158.869 618.731 156.488C617.592 154.108 614.82 147.906 612.575 142.709C610.327 137.514 608.02 132.791 607.442 132.216C606.611 131.387 604.409 131.375 596.87 132.165C591.629 132.712 581.712 133.652 574.832 134.261C567.948 134.868 557.446 135.797 551.486 136.33C545.519 136.859 535.014 137.789 528.131 138.402C521.257 139.012 511.127 139.931 505.619 140.446C500.114 140.964 486.42 142.165 475.18 143.115C463.946 144.07 454.46 145.12 454.104 145.447C453.749 145.774 467.58 168.472 484.839 195.881C502.105 223.293 516.229 245.956 516.234 246.243C516.239 246.53 508.656 248.097 499.386 249.731C480.872 252.991 448.291 259.833 430.109 264.277C423.705 265.844 416.967 267.457 415.14 267.86C401.048 270.98 362.627 281.968 345.334 287.814C329.011 293.326 312.571 300.872 312.605 302.83C312.619 303.66 334.127 326.498 361.094 354.321C383.227 377.161 382.51 376.123 377.012 377.246C370.559 378.564 349.195 386.203 334.63 392.41C315.328 400.63 291.66 415.508 280.242 426.596C270.043 436.512 261.644 449.006 259.861 456.941C259.579 458.195 258.848 459.238 258.24 459.248C256.887 459.272 248.149 450.568 243.956 445.01C224.515 419.28 209.714 365.803 210.508 324.192C210.648 316.764 211.141 309.051 211.61 307.051C212.071 305.047 212.262 303.231 212.032 303.008C211.805 302.79 208.336 306.156 204.329 310.497C170.393 347.206 138.425 392.849 131.627 414.283C130.075 419.159 130.01 420.288 130.931 425.674C131.492 428.963 132.399 434.532 132.96 438.05C144.473 511.09 189.484 558.705 266.757 579.617C289.025 585.644 307.102 588.563 338.363 591.191C343.861 591.649 348.122 591.669 348.533 591.233C348.928 590.824 349.957 587.683 350.819 584.254C359.635 549.256 371.258 529.456 394.051 510.634C439.547 473.05 496.208 456.307 545.767 465.801C568.96 470.245 593.263 481.813 612.911 497.768C619.939 503.473 630.225 513.393 637.562 521.554L641.804 526.264L651.425 527.295C670.307 529.308 680.354 531.388 690.387 535.353C693.617 536.63 696.907 537.663 697.697 537.649C698.929 537.628 718.611 533.459 727.498 531.335C737.148 529.033 739.174 528.451 739.531 527.847C740.086 526.922 691.89 483.117 648.323 444.951C584.893 389.385 537.865 351.384 511.513 334.402C506.869 331.404 502.952 328.69 502.818 328.368C502.681 328.043 512.065 327.346 523.671 326.822C535.273 326.299 555.282 325.342 568.131 324.696C580.984 324.059 595.627 323.476 600.681 323.398L609.866 323.268L622.152 335.631C628.898 342.428 642.864 356.409 653.173 366.696C663.482 376.98 675.955 389.423 680.883 394.351C709.49 422.923 749.552 462.251 769.313 481.151C791.447 502.334 792.122 502.892 795.363 502.836C801.675 502.726 830.087 496.919 840.011 493.71C872.891 483.081 897.965 470.576 907.004 460.306C910.199 456.678 910.462 455.907 908.859 454.777ZM817.033 12.5183C816.598 12.5259 812.34 10.9694 807.576 9.06044C802.816 7.15145 794.187 3.72301 788.404 1.44021C766.328 -7.2874 728.64 -22.7823 713.535 -29.339C710.527 -30.6472 703.811 -33.5586 698.61 -35.8043C693.405 -38.0499 686.429 -41.1458 683.11 -42.6748C679.788 -44.2071 676.962 -45.3598 676.843 -45.2496C676.723 -45.1294 672.983 -41.4142 668.539 -36.9912C648.72 -17.2546 624.159 -5.52514 592.934 -0.884572C581.911 0.756284 554.921 0.977522 541.157 -0.460321C510.325 -3.68349 476.077 -12.04 437.577 -25.7515C431.57 -27.8885 425.608 -29.9994 424.341 -30.4365C421.27 -31.5005 421.398 -32.6405 425.126 -37.4663C429.062 -42.5591 433.789 -47.0107 441.688 -53.0944C467.911 -73.2736 521.408 -96.8427 567.464 -108.512C570.779 -109.346 573.482 -110.369 573.475 -110.778C573.44 -112.8 558.49 -123.958 540.052 -135.72C518.859 -149.241 478.926 -171.712 451.859 -185.347L442.117 -190.251L432.298 -181.575C424.111 -174.341 393.136 -145.716 379.336 -132.618C377.3 -130.691 368.611 -122.659 360.02 -114.767C293.375 -53.5547 246.903 -17.3521 194.401 14.2557C145.852 43.4918 111.101 72.2069 60.1971 125.153C48.4678 137.357 33.1318 153.963 26.1149 162.047C4.56176 186.909 -17.9894 214.76 -17.9595 216.471C-17.941 217.527 19.7073 249.341 21.3373 249.681C21.9167 249.799 23.6363 247.912 25.1537 245.478C34.1832 231.031 64.5524 204.638 102.97 177.831C136.018 154.777 188.352 121.667 224.73 100.81C226.769 99.6336 233.841 95.5261 240.436 91.6801C247.027 87.8307 255.029 83.2173 258.213 81.4263C261.399 79.6352 267.166 76.3709 271.031 74.1763C292.782 61.7969 297.626 59.4232 298.75 60.5684C299.348 61.1826 306.087 70.9882 313.717 82.3618L327.593 103.043L324.687 107.115C321.813 111.143 314.186 117.965 306.94 122.99C301.846 126.533 288.515 133.802 283.034 136.039C280.563 137.044 277.021 138.578 275.159 139.451C273.3 140.324 263.938 143.837 254.348 147.256C227.175 156.948 205.858 165.95 185.125 176.481C96.2593 221.615 47.6999 282.931 30.7845 371.35C29.3831 378.688 28.8718 381.891 26.9337 395.623C24.3622 413.883 25.0332 433.755 28.7857 450.271C39.6773 498.205 76.7899 536.267 136.301 560.552C144.119 563.738 167.852 571.109 168.422 570.529C168.794 570.148 154.729 549.716 147.242 539.768C146.046 538.179 142.011 534.305 138.283 531.163C124.829 519.82 110.234 501.521 103.529 487.603C99.2337 478.669 98.1494 476.132 96.2166 470.44C91.8149 457.544 90.9623 452.032 90.6929 434.858C90.4888 421.42 90.7228 417.408 92.1038 410.837C97.0011 387.519 106.943 366.165 123.577 343.253C131.985 331.667 149.545 313.469 161.53 303.93C215.025 261.325 290.844 236.87 398.153 227.606C404.802 227.034 413.24 226.32 416.915 226.019C438.126 224.275 448.551 223.239 449.212 222.819C449.626 222.555 446.947 219.36 443.257 215.714C423.451 196.152 408.379 165.619 402.291 132.725C400.796 124.641 401.111 100.328 402.797 93.8163C404.904 85.6761 408.106 78.415 409.598 78.389C410.334 78.3761 414.91 79.2417 419.764 80.3117C424.628 81.3849 430.115 82.5857 431.956 82.9925C452.278 87.4154 484.991 91.0784 514.687 92.255C571.169 94.4869 633.614 86.0501 694.182 67.9894C714.964 61.7956 750.383 48.7049 764.498 42.0096C767.016 40.8177 769.247 39.83 769.453 39.8264C770.014 39.8166 779.931 35.0583 790.283 29.8299C805.733 22.0275 817.872 14.911 817.85 13.6723C817.839 13.0309 817.472 12.5106 817.033 12.5183ZM713.177 648.277C710.433 622.182 708.028 608.225 703.806 593.821C703.07 591.325 702.164 588.177 701.78 586.823C701.398 585.462 700.243 582.14 699.22 579.443C698.19 576.75 697.349 574.404 697.346 574.239C697.323 572.885 693.083 576.261 681.761 586.632L668.544 598.741L668.616 603.825C668.716 610.501 666.981 623.862 664.958 631.98C651.799 684.922 604.339 721.996 531.885 735.926C518.768 738.451 492.452 739.372 482.637 737.656C458.879 733.51 440.338 726.081 422.179 713.459L416.358 709.415L405.87 712.248C400.103 713.811 392.768 715.837 389.57 716.75C371.945 721.785 362.595 724.43 351.752 727.445C345.126 729.296 336.803 731.626 333.262 732.636C312.522 738.539 308.128 739.784 290.252 744.769C282.255 747.002 271.594 749.99 266.565 751.412C261.538 752.83 253.313 755.141 248.283 756.542C243.257 757.95 236.332 759.911 232.909 760.906C229.479 761.894 222.91 763.731 218.306 764.986C210.174 767.198 207.196 768.381 208.016 769.079C208.242 769.264 217.154 774.582 227.825 780.885C238.503 787.195 251.505 794.889 256.728 797.982C261.952 801.071 266.232 803.931 266.239 804.339C266.246 804.741 265.902 805.723 265.477 806.52C265.052 807.314 262.338 814.719 259.45 822.957C256.555 831.202 253.16 840.759 251.893 844.195C249.814 849.863 246.551 859.083 238.65 881.671C237.125 886.019 234.849 892.39 233.589 895.825C232.322 899.264 229.448 907.323 227.2 913.734C224.951 920.141 221.918 928.763 220.467 932.884C219.013 937.005 215.841 946.001 213.422 952.867C203.947 979.733 195.835 1002.61 190.989 1016.14C188.204 1023.92 186.117 1030.45 186.344 1030.68C187.443 1031.72 204.414 1026.23 263.488 1005.71C315.261 987.727 351.437 974.792 354.115 973.31C355.336 972.634 356.165 970.226 357.525 963.442C358.513 958.502 359.97 951.285 360.757 947.405C361.54 943.519 362.556 938.477 363.012 936.19C363.469 933.903 364.116 930.728 364.442 929.132C364.772 927.533 365.619 923.237 366.322 919.578C368.684 907.334 368.183 908.022 375.985 906.265C400.254 900.807 469.691 881.538 478.194 877.905C480.322 876.997 480.158 880.359 477.7 888.111C471.815 906.686 460.232 924.557 440.11 946.101C430.253 956.652 430.036 956.241 443.377 952.392C501.493 935.644 536.256 922.5 573.794 903.099C589.233 895.118 596.668 890.68 611.661 880.488C656.257 850.18 684.68 814.424 698.113 771.731C705.662 747.742 710.053 726.188 712.548 700.838C713.569 690.458 713.989 655.927 713.177 648.277ZM546.08 769.033C544.668 774.197 541.94 777.891 536.247 782.343C522.957 792.727 496.659 803.788 455.613 816.261C446.935 818.901 438.707 821.418 437.337 821.861C429.463 824.389 403.325 830.862 401.758 830.666C399.491 830.392 396.039 824.324 395.972 820.503C395.794 810.272 407.018 801.818 430.178 794.718C436.576 792.756 444.431 790.357 447.628 789.379C467.877 783.185 499.483 771.022 529.342 757.934C537.622 754.301 542.054 753.886 544.926 756.466C547.186 758.5 547.632 763.344 546.08 769.033ZM375.936 682.343C365.723 671.534 356.939 648.421 352.028 619.463C351.275 615.019 350.472 611.207 350.239 610.989C350.012 610.766 347.268 611.017 344.144 611.544C341.03 612.068 335.096 612.958 330.973 613.523C302.231 617.452 275.446 622.096 261.862 625.51C260.036 625.971 256.012 626.963 252.922 627.722C225.021 634.56 198.041 642.696 164.098 654.515C144.073 661.482 140.748 662.708 115.275 672.489C94.41 680.497 55.9298 696.194 29.0277 707.663C-34.8812 734.919 -83.9158 763.981 -125.966 799.543C-138.134 809.837 -167.561 840.515 -175.939 851.662C-185.386 864.222 -195.493 880.024 -201.085 890.997C-205.89 900.44 -212.364 916.996 -213.212 922.022L-213.732 925.117L-193.461 944.751C-182.316 955.55 -166.384 970.409 -158.054 977.762C-145.589 988.778 -142.735 990.943 -141.901 989.993C-141.345 989.366 -137.827 984.699 -134.09 979.623C-115.823 954.869 -95.1231 933.952 -76.1329 921.067C-54.58 906.443 -35.5004 902.939 -18.662 910.502C0.878582 919.284 5.53066 935.491 -5.17642 957.513C-14.2343 976.14 -38.5876 1003.07 -63.5324 1022.02C-67.2045 1024.82 -70.3261 1027.42 -70.4645 1027.81C-70.8766 1028.96 -59.7297 1033.88 -49.0454 1037.25C-29.5677 1043.39 -3.72461 1047.66 23.7163 1049.26C30.155 1049.64 38.995 1050.25 43.3673 1050.62C53.5927 1051.5 110.329 1050.51 121.811 1049.25C126.65 1048.72 136.014 1047.83 142.628 1047.25C149.243 1046.69 154.973 1045.9 155.351 1045.51C155.935 1044.91 158.959 1034.8 161.505 1024.95C162.194 1022.28 169.393 996.361 178.942 962.16C182.186 950.539 183.03 947.414 184.203 942.826C184.831 940.333 198.184 890.602 199.997 883.997C201.641 877.998 209.265 847.444 211.677 837.222L214.172 826.597L210.555 822.112C201.593 811.005 184.59 802.746 159.074 797.097C146.814 794.383 123.183 790.889 110.42 789.903C107.312 789.66 104.548 789.124 104.277 788.714C102.914 786.61 115.32 770.839 125.05 762.292C162.049 729.81 230.335 707.08 330.761 693.821C346.624 691.728 376.708 688.083 378.386 688.053C380.283 688.02 379.448 686.06 375.936 682.343ZM249.049 597.281C248.475 597.136 246.117 596.65 243.813 596.201C238.802 595.218 227.928 592.953 215.317 590.259C205.825 588.234 188.734 587.124 155.305 586.377C142.5 586.087 140.264 586.218 139.034 587.35C135.322 590.767 98.8119 610.414 74.7235 621.956C70.6217 623.918 63.5368 627.327 58.9832 629.52C54.4328 631.707 35.2289 640.672 16.322 649.429C-17.1812 664.951 -52.4796 682.46 -66.2953 690.423C-121.839 722.421 -154.62 756.508 -197.472 826.796C-212.555 851.535 -216.871 859.001 -216.088 858.987C-215.906 858.984 -211.141 853.59 -205.496 847.008C-177.68 814.545 -143.092 784.232 -99.3185 753.949C-53.2603 722.072 -12.0363 699.338 58.7988 666.738C64.0374 664.327 104.557 647.474 113.937 643.802C133.048 636.324 166.069 624.518 184.489 618.592C190.657 616.603 196.632 614.629 197.776 614.2C201.258 612.883 234.261 603.13 242.438 601.002C249.53 599.15 251.673 597.944 249.049 597.281ZM212.894 -114.735C209.42 -122.649 201.477 -139.393 196.142 -150.03C193.431 -155.442 188.736 -164.861 185.712 -170.954C174.006 -194.529 98.3444 -337.31 97.3903 -337.614C96.8402 -337.79 92.6195 -337.605 88.0111 -337.197C56.406 -334.411 22.7376 -318.295 -19.6276 -285.692C-53.1639 -259.882 -88.0639 -226.116 -143.752 -165.615C-179.611 -126.66 -186.003 -120.515 -217.163 -95.1042C-262.873 -57.8243 -356.096 10.463 -436.308 65.4296C-446.411 72.352 -454.659 78.4182 -454.64 78.9142C-454.615 79.5857 -414.086 127.292 -410.398 130.989C-410.055 131.335 -398.623 125.864 -385 118.833C-371.374 111.802 -357.432 104.708 -354.014 103.065C-350.595 101.422 -344.451 98.4412 -340.35 96.4417C-326.848 89.8517 -322.259 87.739 -310.214 82.6026C-303.669 79.8075 -297.982 77.7128 -297.587 77.949C-295.956 78.9099 -291.247 96.0473 -285.721 121.145C-283.792 129.914 -281.752 139.825 -276.041 168.152C-275.541 170.641 -274.304 176.951 -273.291 182.17C-272.281 187.389 -271.037 193.695 -270.527 196.191C-267.16 212.683 -266.305 218.533 -267.147 219.247C-268.205 220.143 -288.27 228.502 -304.529 234.806C-310.914 237.291 -318.939 240.433 -322.362 241.796C-344.415 250.591 -403.32 271.669 -424.452 278.321C-437.776 282.521 -437.886 282.58 -437.36 285.083C-436.517 289.103 -435.852 295.466 -434.707 310.559C-432.768 335.963 -434.541 368.647 -439.853 405.498C-440.7 411.354 -441.201 416.33 -440.971 416.549C-440.339 417.149 -400.574 407.747 -368.048 399.299C-277.444 375.784 -204.849 343.603 -148.139 301.823C-113.76 276.497 -80.6302 243.276 -40.4363 193.829C-8.42323 154.449 22.9487 110.839 73.5343 35.425C109.019 -17.4812 116.065 -27.1493 128.259 -39.6555C142.266 -54.0336 151.214 -61.1452 191.525 -89.9573C205.261 -99.7725 215.331 -107.998 215.137 -109.254C215.091 -109.557 214.086 -112.028 212.894 -114.735ZM124.826 -118.323C122.413 -99.5049 116.81 -83.9263 106.948 -68.6077C101.806 -60.634 85.7504 -44.0626 78.2154 -38.9644C53.8421 -22.4707 26.2057 -15.5428 -1.01301 -19.1127C-25.0472 -22.2621 -45.4451 -31.6065 -63.0203 -47.5267C-78.9248 -61.9364 -90.2456 -80.2955 -95.7389 -100.6C-100.298 -117.46 -100.954 -132.851 -97.8098 -149.606C-92.0995 -180.124 -74.8112 -205.981 -48.5412 -223.302C-38.5773 -229.867 -24.3563 -235.69 -10.6149 -238.82C0.610762 -241.382 19.3178 -241.861 30.8658 -239.888C78.8832 -231.671 115.562 -195.441 123.934 -147.946C125.407 -139.588 125.812 -126.049 124.826 -118.323ZM110.749 566.218C32.2817 529.66 -15.0976 470.181 -28.265 391.68C-30.1979 380.177 -32.1417 360.118 -32.3307 349.674C-32.7343 327.907 -29.9908 297.833 -25.3825 273.435C-24.1739 267.04 -23.3155 261.677 -23.4839 261.511C-23.642 261.348 -29.5941 266.797 -36.7071 273.623C-93.5095 328.103 -154.688 366.504 -212.147 383.737C-216.94 385.178 -222.078 386.622 -223.561 386.952C-225.048 387.281 -226.449 387.866 -226.681 388.255C-226.914 388.644 -224.711 391.067 -221.793 393.64C-210.141 403.913 -190.639 423.237 -184.535 430.559C-164.933 454.074 -156.329 472.886 -155.979 492.963C-155.62 513.505 -164.106 531.248 -183.143 549.735C-197.048 563.237 -201.41 565.791 -216.837 569.46C-226.739 571.811 -247.43 572.962 -257.22 571.701C-294.126 566.94 -322.773 540.891 -333.018 502.775C-334.603 496.874 -334.967 493.213 -335.177 481.187C-335.4 468.013 -335.23 465.967 -333.295 458.444C-332.129 453.896 -329.922 447.443 -328.393 444.107C-326.868 440.768 -325.624 437.762 -325.629 437.434C-325.646 436.509 -331.166 442.143 -344.419 456.599C-385.961 501.913 -422.93 550.446 -448.199 592.822C-459.558 611.887 -472.909 637.794 -472.058 639.117C-471.795 639.514 -467.543 641.682 -462.605 643.922C-397.345 673.586 -343.396 720.055 -303.809 780.724C-299.535 787.267 -296.039 792.767 -296.036 792.942C-296.032 793.125 -294.821 795.224 -293.341 797.605C-283.996 812.67 -269.105 843.871 -260.033 867.405C-259.206 869.552 -258.253 871.304 -257.909 871.298C-257.568 871.292 -256.471 868.95 -255.474 866.086C-252.455 857.424 -242.729 831.067 -241.563 828.396C-240.963 827.018 -239.404 823.078 -238.083 819.644C-222.578 779.049 -200.372 740.92 -177.654 715.856C-141.862 676.362 -91.7641 651.508 -29.1163 642.15C-23.058 641.244 -21.4127 640.719 -21.4307 639.686C-21.489 636.351 -40.3188 587.05 -46.6186 573.732C-47.5615 571.746 -50.1054 566.24 -52.2715 561.493C-60.4294 543.666 -78.5109 508.607 -84.7613 498.506C-86.2345 496.125 -87.4465 494.008 -87.45 493.809C-87.4649 492.959 -103.719 467.639 -110.027 458.643C-118.036 447.215 -124.136 439.745 -131.832 431.942C-136.541 427.165 -137.18 426.184 -136.184 425.214C-132.814 421.917 -79.2924 387.243 -78.3952 387.771C-77.8289 388.105 -76.9014 390.368 -72.3537 402.532C-49.683 463.168 -20.9722 520.494 3.66823 554.314C21.1722 578.339 38.5214 594.665 54.6966 602.334C63.8549 606.678 64.1516 606.653 73.1162 600.861C88.2739 591.058 111.439 578.644 120.232 575.611C122.269 574.907 124.055 573.947 124.212 573.471C124.363 573.003 118.306 569.739 110.749 566.218ZM73.1272 -144.577C69.1164 -163.513 56.0687 -180.032 38.9767 -187.807C28.4295 -192.606 20.6016 -194.036 8.83736 -193.314C-6.59662 -192.373 -18.3963 -187.302 -29.5746 -176.802C-49.3201 -158.252 -54.1581 -128.826 -41.4661 -104.447C-33.6685 -89.4674 -18.5457 -77.8566 -1.30916 -73.5993C6.17481 -71.7513 21.4692 -71.9946 28.7461 -74.08C55.183 -81.642 73.2073 -104.399 74.1043 -131.352C74.2497 -135.788 73.8557 -141.143 73.1272 -144.577ZM-197.755 470.52C-200.158 462.066 -204.084 455.71 -210.935 449.147C-223.303 437.293 -238.906 433.193 -254.969 437.562C-263.888 439.99 -270.706 443.964 -276.962 450.381C-286.028 459.682 -290.281 470.358 -290.072 483.297C-289.726 505.062 -274.409 523.523 -252.841 528.164C-245.686 529.704 -238.627 529.466 -231.133 527.431C-223.583 525.371 -220.055 523.584 -213.532 518.524C-199.567 507.695 -192.921 487.466 -197.755 470.52Z" stroke="white" stroke-width="2" mask="url(#path-1-inside-1_15_6)"/>
</svg>
